NotoSansDevanagari-Condensed.ufo
<glyph name="exclam.deva" format="2">
  <advance width="337"/>
  <unicode hex="0021"/>
  <outline>
    <contour>
      <point x="152" y="201" type="line"/>
      <point x="209" y="201" type="line"/>
      <point x="231" y="714" type="line"/>
      <point x="131" y="714" type="line"/>
    </contour>
    <contour>
      <point x="127" y="54" type="curve" smooth="yes"/>
      <point x="127" y="12"/>
      <point x="146" y="-10"/>
      <point x="181" y="-10" type="curve" smooth="yes"/>
      <point x="212" y="-10"/>
      <point x="235" y="10"/>
      <point x="235" y="54" type="curve" smooth="yes"/>
      <point x="235" y="99"/>
      <point x="214" y="118"/>
      <point x="181" y="118" type="curve" smooth="yes"/>
      <point x="145" y="118"/>
      <point x="127" y="96"/>
    </contour>
  </outline>
</glyph>
<glyph name="quotesingle.deva" format="2">
  <advance width="279"/>
  <unicode hex="0027"/>
  <outline>
    <contour>
      <point x="117" y="471" type="line"/>
      <point x="177" y="471" type="line"/>
      <point x="194" y="729" type="line"/>
      <point x="100" y="729" type="line"/>
    </contour>
  </outline>
</glyph>
<glyph name="plus.deva" format="2">
  <advance width="411"/>
  <unicode hex="002B"/>
  <outline>
    <contour>
      <point x="171" y="288" type="line"/>
      <point x="171" y="117" type="line"/>
      <point x="240" y="117" type="line"/>
      <point x="240" y="288" type="line"/>
      <point x="376" y="288" type="line"/>
      <point x="376" y="357" type="line"/>
      <point x="240" y="357" type="line"/>
      <point x="240" y="527" type="line"/>
      <point x="171" y="527" type="line"/>
      <point x="171" y="357" type="line"/>
      <point x="35" y="357" type="line"/>
      <point x="35" y="288" type="line"/>
    </contour>
  </outline>
</glyph>
<glyph name="comma.deva" format="2">
  <advance width="252"/>
  <unicode hex="002C"/>
  <outline>
    <contour>
      <point x="43" y="-129" type="curve"/>
      <point x="105" y="-129" type="line"/>
      <point x="137" y="-57"/>
      <point x="161" y="22"/>
      <point x="181" y="106" type="curve"/>
      <point x="174" y="117" type="line"/>
      <point x="88" y="117" type="line"/>
      <point x="81" y="45"/>
      <point x="64" y="-48"/>
    </contour>
  </outline>
</glyph>
<glyph name="hyphen.deva" format="2">
  <advance width="278"/>
  <unicode hex="002D"/>
  <outline>
    <contour>
      <point x="40" y="336" type="line"/>
      <point x="40" y="258" type="line"/>
      <point x="239" y="258" type="line"/>
      <point x="239" y="336" type="line"/>
    </contour>
  </outline>
</glyph>
<glyph name="zero.deva" format="2">
  <advance width="411"/>
  <unicode hex="0030"/>
  <outline>
    <contour>
      <point x="206" y="-10" type="curve" smooth="yes"/>
      <point x="309" y="-10"/>
      <point x="373" y="81"/>
      <point x="373" y="357" type="curve" smooth="yes"/>
      <point x="373" y="614"/>
      <point x="320" y="724"/>
      <point x="206" y="724" type="curve" smooth="yes"/>
      <point x="102" y="724"/>
      <point x="37" y="630"/>
      <point x="37" y="357" type="curve" smooth="yes"/>
      <point x="37" y="118"/>
      <point x="85" y="-10"/>
    </contour>
    <contour>
      <point x="206" y="62" type="curve" smooth="yes"/>
      <point x="140" y="62"/>
      <point x="120" y="162"/>
      <point x="120" y="357" type="curve" smooth="yes"/>
      <point x="120" y="551"/>
      <point x="143" y="652"/>
      <point x="205" y="652" type="curve" smooth="yes"/>
      <point x="270" y="652"/>
      <point x="290" y="555"/>
      <point x="290" y="357" type="curve" smooth="yes"/>
      <point x="290" y="161"/>
      <point x="270" y="62"/>
    </contour>
  </outline>
</glyph>
<glyph name="one.deva" format="2">
  <advance width="411"/>
  <unicode hex="0031"/>
  <outline>
    <contour>
      <point x="193" y="0" type="line"/>
      <point x="276" y="0" type="line"/>
      <point x="276" y="714" type="line"/>
      <point x="210" y="714" type="line"/>
      <point x="50" y="557" type="line"/>
      <point x="98" y="504" type="line"/>
      <point x="159" y="565" type="line" smooth="yes"/>
      <point x="179" y="585"/>
      <point x="189" y="597"/>
      <point x="196" y="609" type="curve"/>
      <point x="195" y="566"/>
      <point x="193" y="493"/>
      <point x="193" y="437" type="curve" smooth="yes"/>
    </contour>
  </outline>
</glyph>
<glyph name="four.deva" format="2">
  <advance width="411"/>
  <unicode hex="0034"/>
  <outline>
    <contour>
      <point x="246" y="163" type="line"/>
      <point x="246" y="0" type="line"/>
      <point x="328" y="0" type="line"/>
      <point x="328" y="163" type="line"/>
      <point x="392" y="163" type="line"/>
      <point x="392" y="237" type="line"/>
      <point x="328" y="237" type="line"/>
      <point x="328" y="720" type="line"/>
      <point x="238" y="720" type="line"/>
      <point x="11" y="231" type="line"/>
      <point x="11" y="163" type="line"/>
    </contour>
    <contour>
      <point x="246" y="237" type="line"/>
      <point x="86" y="237" type="line"/>
      <point x="208" y="507" type="line" smooth="yes"/>
      <point x="229" y="552"/>
      <point x="237" y="578"/>
      <point x="246" y="611" type="curve"/>
      <point x="249" y="611" type="line"/>
      <point x="248" y="583"/>
      <point x="246" y="529"/>
      <point x="246" y="498" type="curve" smooth="yes"/>
    </contour>
  </outline>
</glyph>
<glyph name="seven.deva" format="2">
  <advance width="411"/>
  <unicode hex="0037"/>
  <outline>
    <contour>
      <point x="290" y="637" type="line"/>
      <point x="94" y="0" type="line"/>
      <point x="181" y="0" type="line"/>
      <point x="376" y="647" type="line"/>
      <point x="376" y="714" type="line"/>
      <point x="31" y="714" type="line"/>
      <point x="31" y="637" type="line"/>
    </contour>
  </outline>
</glyph>
<glyph name="less.deva" format="2">
  <advance width="411"/>
  <unicode hex="003C"/>
  <outline>
    <contour>
      <point x="35" y="298" type="line"/>
      <point x="376" y="115" type="line"/>
      <point x="376" y="191" type="line"/>
      <point x="123" y="322" type="line"/>
      <point x="376" y="453" type="line"/>
      <point x="376" y="529" type="line"/>
      <point x="35" y="346" type="line"/>
    </contour>
  </outline>
</glyph>
<glyph name="equal.deva" format="2">
  <advance width="411"/>
  <unicode hex="003D"/>
  <outline>
    <contour>
      <point x="40" y="451" type="line"/>
      <point x="40" y="382" type="line"/>
      <point x="371" y="382" type="line"/>
      <point x="371" y="451" type="line"/>
    </contour>
    <contour>
      <point x="40" y="262" type="line"/>
      <point x="40" y="193" type="line"/>
      <point x="371" y="193" type="line"/>
      <point x="371" y="262" type="line"/>
    </contour>
  </outline>
</glyph>
<glyph name="greater.deva" format="2">
  <advance width="411"/>
  <unicode hex="003E"/>
  <outline>
    <contour>
      <point x="35" y="191" type="line"/>
      <point x="35" y="115" type="line"/>
      <point x="376" y="298" type="line"/>
      <point x="376" y="346" type="line"/>
      <point x="35" y="529" type="line"/>
      <point x="35" y="453" type="line"/>
      <point x="288" y="322" type="line"/>
    </contour>
  </outline>
</glyph>
<glyph name="backslash.deva" format="2">
  <advance width="399"/>
  <unicode hex="005C"/>
  <outline>
    <contour>
      <point x="37" y="832" type="line"/>
      <point x="286" y="-165" type="line"/>
      <point x="362" y="-165" type="line"/>
      <point x="113" y="832" type="line"/>
    </contour>
  </outline>
</glyph>
<glyph name="asciicircum.deva" format="2">
  <advance width="411"/>
  <unicode hex="005E"/>
  <outline>
    <contour>
      <point x="179" y="719" type="line"/>
      <point x="14" y="332" type="line"/>
      <point x="84" y="332" type="line"/>
      <point x="203" y="621" type="line"/>
      <point x="326" y="332" type="line"/>
      <point x="397" y="332" type="line"/>
      <point x="226" y="719" type="line"/>
    </contour>
  </outline>
</glyph>
<glyph name="underscore.deva" format="2">
  <advance width="296"/>
  <unicode hex="005F"/>
  <outline>
    <contour>
      <point x="0" y="-90" type="line"/>
      <point x="0" y="-155" type="line"/>
      <point x="296" y="-155" type="line"/>
      <point x="296" y="-90" type="line"/>
    </contour>
  </outline>
</glyph>
<glyph name="braceleft.deva" format="2">
  <advance width="330"/>
  <unicode hex="007B"/>
  <outline>
    <contour>
      <point x="39" y="367" type="curve"/>
      <point x="39" y="299" type="line"/>
      <point x="102" y="299"/>
      <point x="129" y="272"/>
      <point x="129" y="206" type="curve" smooth="yes"/>
      <point x="129" y="-26" type="line" smooth="yes"/>
      <point x="129" y="-126"/>
      <point x="175" y="-164"/>
      <point x="279" y="-166" type="curve"/>
      <point x="279" y="-98" type="line"/>
      <point x="230" y="-97"/>
      <point x="206" y="-84"/>
      <point x="206" y="-20" type="curve" smooth="yes"/>
      <point x="206" y="211" type="line" smooth="yes"/>
      <point x="206" y="279"/>
      <point x="179" y="317"/>
      <point x="128" y="330" type="curve"/>
      <point x="128" y="335" type="line"/>
      <point x="179" y="349"/>
      <point x="206" y="388"/>
      <point x="206" y="455" type="curve" smooth="yes"/>
      <point x="206" y="686" type="line" smooth="yes"/>
      <point x="206" y="749"/>
      <point x="230" y="763"/>
      <point x="279" y="764" type="curve"/>
      <point x="279" y="832" type="line"/>
      <point x="175" y="830"/>
      <point x="129" y="790"/>
      <point x="129" y="691" type="curve" smooth="yes"/>
      <point x="129" y="460" type="line" smooth="yes"/>
      <point x="129" y="394"/>
      <point x="101" y="367"/>
    </contour>
  </outline>
</glyph>
<glyph name="bar.deva" format="2">
  <advance width="396"/>
  <unicode hex="007C"/>
  <outline>
    <contour>
      <point x="165" y="832" type="line"/>
      <point x="165" y="-165" type="line"/>
      <point x="232" y="-165" type="line"/>
      <point x="232" y="832" type="line"/>
    </contour>
  </outline>
</glyph>
<glyph name="braceright.deva" format="2">
  <advance width="330"/>
  <unicode hex="007D"/>
  <outline>
    <contour>
      <point x="291" y="299" type="curve"/>
      <point x="291" y="367" type="line"/>
      <point x="228" y="367"/>
      <point x="201" y="394"/>
      <point x="201" y="460" type="curve" smooth="yes"/>
      <point x="201" y="692" type="line" smooth="yes"/>
      <point x="201" y="792"/>
      <point x="155" y="830"/>
      <point x="51" y="832" type="curve"/>
      <point x="51" y="764" type="line"/>
      <point x="100" y="763"/>
      <point x="124" y="750"/>
      <point x="124" y="686" type="curve" smooth="yes"/>
      <point x="124" y="455" type="line" smooth="yes"/>
      <point x="124" y="387"/>
      <point x="151" y="349"/>
      <point x="202" y="336" type="curve"/>
      <point x="202" y="331" type="line"/>
      <point x="151" y="317"/>
      <point x="124" y="278"/>
      <point x="124" y="211" type="curve" smooth="yes"/>
      <point x="124" y="-20" type="line" smooth="yes"/>
      <point x="124" y="-83"/>
      <point x="100" y="-97"/>
      <point x="51" y="-98" type="curve"/>
      <point x="51" y="-166" type="line"/>
      <point x="155" y="-164"/>
      <point x="201" y="-124"/>
      <point x="201" y="-25" type="curve" smooth="yes"/>
      <point x="201" y="206" type="line" smooth="yes"/>
      <point x="201" y="272"/>
      <point x="229" y="299"/>
    </contour>
  </outline>
</glyph>
<glyph name="multiply.deva" format="2">
  <advance width="411"/>
  <unicode hex="00D7"/>
  <outline>
    <contour>
      <point x="204" y="278" type="line"/>
      <point x="335" y="144" type="line"/>
      <point x="382" y="191" type="line"/>
      <point x="249" y="323" type="line"/>
      <point x="382" y="454" type="line"/>
      <point x="335" y="501" type="line"/>
      <point x="204" y="367" type="line"/>
      <point x="73" y="501" type="line"/>
      <point x="26" y="454" type="line"/>
      <point x="159" y="323" type="line"/>
      <point x="26" y="191" type="line"/>
      <point x="73" y="144" type="line"/>
    </contour>
  </outline>
</glyph>
<glyph name="divide.deva" format="2">
  <advance width="411"/>
  <unicode hex="00F7"/>
  <outline>
    <contour>
      <point x="35" y="357" type="line"/>
      <point x="35" y="288" type="line"/>
      <point x="376" y="288" type="line"/>
      <point x="376" y="357" type="line"/>
    </contour>
    <contour>
      <point x="204" y="99" type="curve" smooth="yes"/>
      <point x="232" y="99"/>
      <point x="256" y="116"/>
      <point x="256" y="155" type="curve" smooth="yes"/>
      <point x="256" y="195"/>
      <point x="232" y="211"/>
      <point x="204" y="211" type="curve" smooth="yes"/>
      <point x="177" y="211"/>
      <point x="154" y="195"/>
      <point x="154" y="155" type="curve" smooth="yes"/>
      <point x="154" y="116"/>
      <point x="177" y="99"/>
    </contour>
    <contour>
      <point x="204" y="436" type="curve" smooth="yes"/>
      <point x="232" y="436"/>
      <point x="256" y="453"/>
      <point x="256" y="492" type="curve" smooth="yes"/>
      <point x="256" y="532"/>
      <point x="232" y="548"/>
      <point x="204" y="548" type="curve" smooth="yes"/>
      <point x="177" y="548"/>
      <point x="154" y="532"/>
      <point x="154" y="492" type="curve" smooth="yes"/>
      <point x="154" y="453"/>
      <point x="177" y="436"/>
    </contour>
  </outline>
</glyph>
<glyph name="binducandradeva" format="2">
  <unicode hex="0900"/>
  <outline>
    <contour>
      <point x="-277" y="708" type="curve"/>
      <point x="-211" y="689" type="line"/>
      <point x="-196" y="779"/>
      <point x="-178" y="831"/>
      <point x="-120" y="831" type="curve" smooth="yes"/>
      <point x="-64" y="831"/>
      <point x="-38" y="784"/>
      <point x="-15" y="690" type="curve"/>
      <point x="47" y="708" type="line"/>
      <point x="17" y="838"/>
      <point x="-45" y="895"/>
      <point x="-118" y="895" type="curve" smooth="yes"/>
      <point x="-202" y="895"/>
      <point x="-257" y="842"/>
    </contour>
    <contour>
      <point x="-76" y="727" type="curve" smooth="yes"/>
      <point x="-76" y="755"/>
      <point x="-94" y="774"/>
      <point x="-116" y="774" type="curve" smooth="yes"/>
      <point x="-140" y="774"/>
      <point x="-157" y="755"/>
      <point x="-157" y="727" type="curve" smooth="yes"/>
      <point x="-157" y="699"/>
      <point x="-140" y="681"/>
      <point x="-116" y="681" type="curve" smooth="yes"/>
      <point x="-94" y="681"/>
      <point x="-76" y="699"/>
    </contour>
  </outline>
</glyph>
<glyph name="candrabindudeva" format="2">
  <unicode hex="0901"/>
  <outline>
    <contour>
      <point x="-154" y="849" type="curve" smooth="yes"/>
      <point x="-154" y="821"/>
      <point x="-136" y="802"/>
      <point x="-114" y="802" type="curve" smooth="yes"/>
      <point x="-90" y="802"/>
      <point x="-73" y="821"/>
      <point x="-73" y="849" type="curve" smooth="yes"/>
      <point x="-73" y="877"/>
      <point x="-90" y="895"/>
      <point x="-114" y="895" type="curve" smooth="yes"/>
      <point x="-136" y="895"/>
      <point x="-154" y="877"/>
    </contour>
    <contour>
      <point x="47" y="868" type="curve"/>
      <point x="-19" y="887" type="line"/>
      <point x="-34" y="797"/>
      <point x="-52" y="745"/>
      <point x="-110" y="745" type="curve" smooth="yes"/>
      <point x="-166" y="745"/>
      <point x="-192" y="792"/>
      <point x="-215" y="886" type="curve"/>
      <point x="-277" y="868" type="line"/>
      <point x="-247" y="738"/>
      <point x="-185" y="681"/>
      <point x="-112" y="681" type="curve" smooth="yes"/>
      <point x="-28" y="681"/>
      <point x="27" y="734"/>
    </contour>
  </outline>
</glyph>
<glyph name="anusvaradeva" format="2">
  <unicode hex="0902"/>
  <outline>
    <contour>
      <point x="-151" y="772" type="curve" smooth="yes"/>
      <point x="-151" y="739"/>
      <point x="-133" y="717"/>
      <point x="-102" y="717" type="curve" smooth="yes"/>
      <point x="-70" y="717"/>
      <point x="-53" y="739"/>
      <point x="-53" y="772" type="curve" smooth="yes"/>
      <point x="-53" y="804"/>
      <point x="-70" y="827"/>
      <point x="-102" y="827" type="curve" smooth="yes"/>
      <point x="-133" y="827"/>
      <point x="-151" y="804"/>
    </contour>
  </outline>
</glyph>
<glyph name="visargadeva" format="2">
  <advance width="212"/>
  <unicode hex="0903"/>
  <outline>
    <contour>
      <point x="55" y="118" type="curve" smooth="yes"/>
      <point x="55" y="82"/>
      <point x="75" y="58"/>
      <point x="109" y="58" type="curve" smooth="yes"/>
      <point x="144" y="58"/>
      <point x="163" y="82"/>
      <point x="163" y="118" type="curve" smooth="yes"/>
      <point x="163" y="153"/>
      <point x="144" y="178"/>
      <point x="109" y="178" type="curve" smooth="yes"/>
      <point x="75" y="178"/>
      <point x="55" y="153"/>
    </contour>
    <contour>
      <point x="55" y="436" type="curve" smooth="yes"/>
      <point x="55" y="400"/>
      <point x="75" y="376"/>
      <point x="109" y="376" type="curve" smooth="yes"/>
      <point x="144" y="376"/>
      <point x="163" y="400"/>
      <point x="163" y="436" type="curve" smooth="yes"/>
      <point x="163" y="470"/>
      <point x="144" y="496"/>
      <point x="109" y="496" type="curve" smooth="yes"/>
      <point x="75" y="496"/>
      <point x="55" y="471"/>
    </contour>
  </outline>
</glyph>
<glyph name="aadeva" format="2">
  <advance width="776"/>
  <unicode hex="0906"/>
  <outline>
    <contour>
      <point x="515" y="554" type="line"/>
      <point x="591" y="554" type="line"/>
      <point x="591" y="622" type="line"/>
      <point x="391" y="622" type="line"/>
      <point x="391" y="554" type="line"/>
      <point x="440" y="554" type="line"/>
      <point x="440" y="0" type="line"/>
      <point x="515" y="0" type="line"/>
    </contour>
    <contour>
      <point x="213" y="632" type="curve" smooth="yes"/>
      <point x="166" y="632"/>
      <point x="134" y="621"/>
      <point x="94" y="603" type="curve"/>
      <point x="119" y="537" type="line"/>
      <point x="147" y="553"/>
      <point x="176" y="563"/>
      <point x="203" y="563" type="curve" smooth="yes"/>
      <point x="249" y="563"/>
      <point x="275" y="538"/>
      <point x="275" y="494" type="curve" smooth="yes"/>
      <point x="275" y="447"/>
      <point x="241" y="418"/>
      <point x="177" y="411" type="curve"/>
      <point x="185" y="344" type="line"/>
      <point x="266" y="351"/>
      <point x="349" y="398"/>
      <point x="349" y="495" type="curve" smooth="yes"/>
      <point x="349" y="576"/>
      <point x="300" y="632"/>
    </contour>
    <contour>
      <point x="356" y="208" type="curve" smooth="yes"/>
      <point x="356" y="249"/>
      <point x="345" y="281"/>
      <point x="335" y="306" type="curve" smooth="yes"/>
      <point x="328" y="324" type="line" smooth="yes"/>
      <point x="318" y="346"/>
      <point x="301" y="370"/>
      <point x="287" y="386" type="curve"/>
      <point x="255" y="378" type="line"/>
      <point x="206" y="374" type="line"/>
      <point x="245" y="336"/>
      <point x="283" y="280"/>
      <point x="283" y="215" type="curve" smooth="yes"/>
      <point x="283" y="173"/>
      <point x="262" y="151"/>
      <point x="230" y="151" type="curve" smooth="yes"/>
      <point x="168" y="151"/>
      <point x="128" y="235"/>
      <point x="89" y="374" type="curve"/>
      <point x="21" y="356" type="line"/>
      <point x="80" y="157"/>
      <point x="136" y="82"/>
      <point x="236" y="82" type="curve" smooth="yes"/>
      <point x="309" y="82"/>
      <point x="356" y="127"/>
    </contour>
    <contour>
      <point x="364" y="349" type="curve" smooth="yes"/>
      <point x="333" y="349"/>
      <point x="314" y="353"/>
      <point x="285" y="362" type="curve"/>
      <point x="278" y="350" type="line"/>
      <point x="300" y="295" type="line"/>
      <point x="316" y="288"/>
      <point x="348" y="282"/>
      <point x="374" y="282" type="curve" smooth="yes"/>
      <point x="410" y="282"/>
      <point x="440" y="288"/>
      <point x="475" y="309" type="curve"/>
      <point x="475" y="377" type="line"/>
      <point x="434" y="357"/>
      <point x="410" y="349"/>
    </contour>
    <contour>
      <point x="712" y="554" type="line"/>
      <point x="788" y="554" type="line"/>
      <point x="788" y="622" type="line"/>
      <point x="576" y="622" type="line"/>
      <point x="576" y="554" type="line"/>
      <point x="637" y="554" type="line"/>
      <point x="637" y="0" type="line"/>
      <point x="712" y="0" type="line"/>
    </contour>
  </outline>
</glyph>
<glyph name="udeva" format="2">
  <advance width="410"/>
  <unicode hex="0909"/>
  <outline>
    <contour>
      <point x="0" y="622" type="line"/>
      <point x="0" y="554" type="line"/>
      <point x="422" y="554" type="line"/>
      <point x="422" y="622" type="line"/>
    </contour>
    <contour>
      <point x="222" y="614" type="curve"/>
      <point x="213" y="567" type="line"/>
      <point x="259" y="546"/>
      <point x="289" y="510"/>
      <point x="289" y="463" type="curve" smooth="yes"/>
      <point x="289" y="398"/>
      <point x="250" y="373"/>
      <point x="177" y="363" type="curve"/>
      <point x="186" y="296" type="line"/>
      <point x="296" y="312"/>
      <point x="364" y="361"/>
      <point x="364" y="461" type="curve" smooth="yes"/>
      <point x="364" y="544"/>
      <point x="292" y="606"/>
    </contour>
    <contour>
      <point x="285" y="343" type="curve"/>
      <point x="211" y="321" type="line"/>
      <point x="258" y="273"/>
      <point x="298" y="213"/>
      <point x="298" y="147" type="curve" smooth="yes"/>
      <point x="298" y="92"/>
      <point x="275" y="71"/>
      <point x="239" y="71" type="curve" smooth="yes"/>
      <point x="174" y="71"/>
      <point x="132" y="169"/>
      <point x="88" y="331" type="curve"/>
      <point x="19" y="313" type="line"/>
      <point x="81" y="83"/>
      <point x="141" y="0"/>
      <point x="246" y="0" type="curve" smooth="yes"/>
      <point x="323" y="0"/>
      <point x="374" y="51"/>
      <point x="374" y="137" type="curve" smooth="yes"/>
      <point x="374" y="237"/>
      <point x="322" y="298"/>
    </contour>
  </outline>
</glyph>
<glyph name="uudeva" format="2">
  <advance width="574"/>
  <unicode hex="090A"/>
  <outline>
    <contour>
      <point x="0" y="622" type="line"/>
      <point x="0" y="554" type="line"/>
      <point x="586" y="554" type="line"/>
      <point x="586" y="622" type="line"/>
    </contour>
    <contour>
      <point x="222" y="614" type="curve"/>
      <point x="213" y="567" type="line"/>
      <point x="259" y="546"/>
      <point x="289" y="510"/>
      <point x="289" y="463" type="curve" smooth="yes"/>
      <point x="289" y="398"/>
      <point x="250" y="373"/>
      <point x="177" y="363" type="curve"/>
      <point x="186" y="296" type="line"/>
      <point x="296" y="312"/>
      <point x="364" y="361"/>
      <point x="364" y="461" type="curve" smooth="yes"/>
      <point x="364" y="544"/>
      <point x="292" y="606"/>
    </contour>
    <contour>
      <point x="285" y="343" type="curve"/>
      <point x="211" y="321" type="line"/>
      <point x="258" y="273"/>
      <point x="298" y="213"/>
      <point x="298" y="147" type="curve" smooth="yes"/>
      <point x="298" y="92"/>
      <point x="275" y="71"/>
      <point x="239" y="71" type="curve" smooth="yes"/>
      <point x="174" y="71"/>
      <point x="132" y="169"/>
      <point x="88" y="331" type="curve"/>
      <point x="19" y="313" type="line"/>
      <point x="81" y="83"/>
      <point x="141" y="0"/>
      <point x="246" y="0" type="curve" smooth="yes"/>
      <point x="323" y="0"/>
      <point x="374" y="51"/>
      <point x="374" y="137" type="curve" smooth="yes"/>
      <point x="374" y="237"/>
      <point x="322" y="298"/>
    </contour>
    <contour>
      <point x="319" y="276" type="curve"/>
      <point x="339" y="195" type="line"/>
      <point x="371" y="245"/>
      <point x="398" y="267"/>
      <point x="426" y="267" type="curve" smooth="yes"/>
      <point x="451" y="267"/>
      <point x="468" y="244"/>
      <point x="468" y="192" type="curve" smooth="yes"/>
      <point x="468" y="127"/>
      <point x="446" y="79"/>
      <point x="421" y="36" type="curve"/>
      <point x="488" y="0" type="line"/>
      <point x="519" y="57"/>
      <point x="543" y="125"/>
      <point x="543" y="188" type="curve" smooth="yes"/>
      <point x="543" y="278"/>
      <point x="498" y="334"/>
      <point x="434" y="334" type="curve" smooth="yes"/>
      <point x="384" y="334"/>
      <point x="351" y="305"/>
    </contour>
  </outline>
</glyph>
<glyph name="rvocalicdeva" format="2">
  <advance width="637"/>
  <unicode hex="090B"/>
  <outline>
    <contour>
      <point x="353" y="554" type="line"/>
      <point x="649" y="554" type="line"/>
      <point x="649" y="622" type="line"/>
      <point x="0" y="622" type="line"/>
      <point x="0" y="554" type="line"/>
      <point x="278" y="554" type="line"/>
      <point x="278" y="0" type="line"/>
      <point x="353" y="0" type="line"/>
    </contour>
    <contour>
      <point x="16" y="419" type="curve"/>
      <point x="43" y="353" type="line"/>
      <point x="73" y="370"/>
      <point x="98" y="379"/>
      <point x="122" y="379" type="curve" smooth="yes"/>
      <point x="166" y="379"/>
      <point x="179" y="361"/>
      <point x="247" y="260" type="curve"/>
      <point x="291" y="274" type="line"/>
      <point x="292" y="304" type="line"/>
      <point x="224" y="416"/>
      <point x="197" y="450"/>
      <point x="124" y="450" type="curve" smooth="yes"/>
      <point x="87" y="450"/>
      <point x="56" y="439"/>
    </contour>
    <contour>
      <point x="104" y="81" type="line"/>
      <point x="307" y="261" type="line"/>
      <point x="262" y="307" type="line"/>
      <point x="53" y="141" type="line"/>
    </contour>
    <contour>
      <point x="338" y="328" type="curve"/>
      <point x="344" y="263" type="line"/>
      <point x="383" y="265"/>
      <point x="429" y="275"/>
      <point x="457" y="285" type="curve"/>
      <point x="467" y="257"/>
      <point x="487" y="212"/>
      <point x="500" y="187" type="curve"/>
      <point x="545" y="189" type="line"/>
      <point x="558" y="219" type="line"/>
      <point x="543" y="244"/>
      <point x="529" y="273"/>
      <point x="515" y="305" type="curve"/>
      <point x="537" y="317"/>
      <point x="552" y="337"/>
      <point x="552" y="371" type="curve" smooth="yes"/>
      <point x="552" y="414"/>
      <point x="529" y="448"/>
      <point x="485" y="448" type="curve" smooth="yes"/>
      <point x="456" y="448"/>
      <point x="430" y="428"/>
      <point x="430" y="387" type="curve" smooth="yes"/>
      <point x="430" y="370"/>
      <point x="434" y="354"/>
      <point x="439" y="338" type="curve"/>
      <point x="443" y="347" type="line"/>
      <point x="419" y="337"/>
      <point x="373" y="330"/>
    </contour>
    <contour>
      <point x="642" y="-5" type="curve"/>
      <point x="613" y="59" type="line"/>
      <point x="587" y="45"/>
      <point x="567" y="36"/>
      <point x="534" y="36" type="curve" smooth="yes"/>
      <point x="504" y="36"/>
      <point x="472" y="55"/>
      <point x="472" y="104" type="curve" smooth="yes"/>
      <point x="472" y="151"/>
      <point x="507" y="176"/>
      <point x="545" y="189" type="curve"/>
      <point x="497" y="244" type="line"/>
      <point x="436" y="220"/>
      <point x="401" y="171"/>
      <point x="401" y="106" type="curve" smooth="yes"/>
      <point x="401" y="25"/>
      <point x="450" y="-33"/>
      <point x="535" y="-33" type="curve" smooth="yes"/>
      <point x="581" y="-33"/>
      <point x="609" y="-21"/>
    </contour>
  </outline>
</glyph>
<glyph name="lvocalicdeva" format="2">
  <advance width="525"/>
  <unicode hex="090C"/>
  <outline>
    <contour>
      <point x="537" y="554" type="line"/>
      <point x="537" y="622" type="line"/>
      <point x="0" y="622" type="line"/>
      <point x="0" y="554" type="line"/>
      <point x="342" y="554" type="line"/>
      <point x="342" y="414" type="line"/>
      <point x="416" y="380" type="line"/>
      <point x="416" y="554" type="line"/>
    </contour>
    <contour>
      <point x="159" y="426" type="curve" smooth="yes"/>
      <point x="92" y="426"/>
      <point x="32" y="379"/>
      <point x="32" y="283" type="curve" smooth="yes"/>
      <point x="32" y="188"/>
      <point x="92" y="88"/>
      <point x="171" y="-12" type="curve"/>
      <point x="227" y="30" type="line"/>
      <point x="149" y="132"/>
      <point x="107" y="198"/>
      <point x="107" y="280" type="curve" smooth="yes"/>
      <point x="107" y="324"/>
      <point x="127" y="356"/>
      <point x="168" y="356" type="curve" smooth="yes"/>
      <point x="203" y="356"/>
      <point x="228" y="329"/>
      <point x="248" y="296" type="curve"/>
      <point x="285" y="358" type="line"/>
      <point x="242" y="403"/>
      <point x="210" y="426"/>
    </contour>
    <contour>
      <point x="303" y="29" type="curve" smooth="yes"/>
      <point x="303" y="-52"/>
      <point x="352" y="-110"/>
      <point x="437" y="-110" type="curve" smooth="yes"/>
      <point x="483" y="-110"/>
      <point x="511" y="-98"/>
      <point x="544" y="-82" type="curve"/>
      <point x="515" y="-18" type="line"/>
      <point x="489" y="-32"/>
      <point x="468" y="-41"/>
      <point x="436" y="-41" type="curve" smooth="yes"/>
      <point x="406" y="-41"/>
      <point x="374" y="-22"/>
      <point x="374" y="27" type="curve" smooth="yes"/>
      <point x="374" y="74"/>
      <point x="410" y="103"/>
      <point x="459" y="115" type="curve"/>
      <point x="449" y="182" type="line"/>
      <point x="357" y="165"/>
      <point x="303" y="111"/>
    </contour>
    <contour>
      <point x="373" y="426" type="curve" smooth="yes"/>
      <point x="284" y="426"/>
      <point x="226" y="368"/>
      <point x="202" y="230" type="curve"/>
      <point x="274" y="212" type="line"/>
      <point x="294" y="337"/>
      <point x="333" y="359"/>
      <point x="367" y="359" type="curve" smooth="yes"/>
      <point x="397" y="359"/>
      <point x="417" y="340"/>
      <point x="417" y="276" type="curve" smooth="yes"/>
      <point x="417" y="217"/>
      <point x="402" y="173"/>
      <point x="384" y="134" type="curve"/>
      <point x="459" y="115" type="line"/>
      <point x="479" y="162"/>
      <point x="492" y="211"/>
      <point x="492" y="273" type="curve" smooth="yes"/>
      <point x="492" y="386"/>
      <point x="439" y="426"/>
    </contour>
  </outline>
</glyph>
<glyph name="edeva" format="2">
  <advance width="420"/>
  <unicode hex="090F"/>
  <outline>
    <contour>
      <point x="432" y="554" type="line"/>
      <point x="432" y="622" type="line"/>
      <point x="0" y="622" type="line"/>
      <point x="0" y="554" type="line"/>
      <point x="57" y="554" type="line"/>
      <point x="57" y="302" type="line" smooth="yes"/>
      <point x="57" y="237"/>
      <point x="62" y="208"/>
      <point x="78" y="178" type="curve" smooth="yes"/>
      <point x="92" y="151"/>
      <point x="121" y="126"/>
      <point x="154" y="102" type="curve" smooth="yes"/>
      <point x="243" y="40" type="line" smooth="yes"/>
      <point x="284" y="11"/>
      <point x="294" y="-17"/>
      <point x="294" y="-49" type="curve" smooth="yes"/>
      <point x="294" y="-87"/>
      <point x="278" y="-115"/>
      <point x="257" y="-143" type="curve"/>
      <point x="321" y="-183" type="line"/>
      <point x="350" y="-139"/>
      <point x="370" y="-101"/>
      <point x="370" y="-44" type="curve" smooth="yes"/>
      <point x="370" y="14"/>
      <point x="348" y="57"/>
      <point x="288" y="99" type="curve" smooth="yes"/>
      <point x="201" y="159" type="line" smooth="yes"/>
      <point x="139" y="202"/>
      <point x="132" y="226"/>
      <point x="132" y="304" type="curve" smooth="yes"/>
      <point x="132" y="554" type="line"/>
      <point x="290" y="554" type="line"/>
      <point x="290" y="349" type="line" smooth="yes"/>
      <point x="290" y="315"/>
      <point x="286" y="300"/>
      <point x="274" y="286" type="curve" smooth="yes"/>
      <point x="264" y="275"/>
      <point x="247" y="267"/>
      <point x="226" y="262" type="curve"/>
      <point x="247" y="192" type="line"/>
      <point x="291" y="202"/>
      <point x="321" y="218"/>
      <point x="339" y="242" type="curve" smooth="yes"/>
      <point x="358" y="268"/>
      <point x="365" y="296"/>
      <point x="365" y="354" type="curve" smooth="yes"/>
      <point x="365" y="554" type="line"/>
    </contour>
  </outline>
</glyph>
<glyph name="kadeva" format="2">
  <advance width="571"/>
  <unicode hex="0915"/>
  <outline>
    <contour>
      <point x="583" y="554" type="line"/>
      <point x="583" y="622" type="line"/>
      <point x="0" y="622" type="line"/>
      <point x="0" y="554" type="line"/>
      <point x="273" y="554" type="line"/>
      <point x="273" y="226" type="line"/>
      <point x="294" y="273" type="line"/>
      <point x="255" y="214"/>
      <point x="227" y="188"/>
      <point x="181" y="188" type="curve" smooth="yes"/>
      <point x="140" y="188"/>
      <point x="110" y="213"/>
      <point x="110" y="291" type="curve" smooth="yes"/>
      <point x="110" y="360"/>
      <point x="139" y="396"/>
      <point x="190" y="396" type="curve" smooth="yes"/>
      <point x="210" y="396"/>
      <point x="228" y="393"/>
      <point x="243" y="388" type="curve"/>
      <point x="248" y="457" type="line"/>
      <point x="232" y="462"/>
      <point x="208" y="465"/>
      <point x="181" y="465" type="curve" smooth="yes"/>
      <point x="95" y="465"/>
      <point x="35" y="398"/>
      <point x="35" y="292" type="curve" smooth="yes"/>
      <point x="35" y="178"/>
      <point x="97" y="120"/>
      <point x="174" y="120" type="curve" smooth="yes"/>
      <point x="233" y="120"/>
      <point x="270" y="152"/>
      <point x="303" y="190" type="curve"/>
      <point x="273" y="212" type="line"/>
      <point x="273" y="0" type="line"/>
      <point x="348" y="0" type="line"/>
      <point x="348" y="278" type="line"/>
      <point x="341" y="234" type="line"/>
      <point x="363" y="295"/>
      <point x="393" y="332"/>
      <point x="421" y="332" type="curve" smooth="yes"/>
      <point x="452" y="332"/>
      <point x="465" y="301"/>
      <point x="465" y="246" type="curve" smooth="yes"/>
      <point x="465" y="185"/>
      <point x="446" y="127"/>
      <point x="418" y="77" type="curve"/>
      <point x="485" y="41" type="line"/>
      <point x="519" y="104"/>
      <point x="540" y="172"/>
      <point x="540" y="244" type="curve" smooth="yes"/>
      <point x="540" y="344"/>
      <point x="493" y="399"/>
      <point x="431" y="399" type="curve" smooth="yes"/>
      <point x="390" y="399"/>
      <point x="359" y="379"/>
      <point x="325" y="322" type="curve"/>
      <point x="348" y="316" type="line"/>
      <point x="348" y="554" type="line"/>
    </contour>
  </outline>
</glyph>
<glyph name="ghadeva" format="2">
  <advance width="446"/>
  <unicode hex="0918"/>
  <outline>
    <contour>
      <point x="458" y="554" type="line"/>
      <point x="458" y="622" type="line"/>
      <point x="0" y="622" type="line"/>
      <point x="0" y="554" type="line"/>
      <point x="307" y="554" type="line"/>
      <point x="307" y="230" type="line"/>
      <point x="326" y="274" type="line"/>
      <point x="296" y="227"/>
      <point x="259" y="188"/>
      <point x="203" y="188" type="curve" smooth="yes"/>
      <point x="162" y="188"/>
      <point x="136" y="212"/>
      <point x="136" y="270" type="curve" smooth="yes"/>
      <point x="136" y="326"/>
      <point x="161" y="351"/>
      <point x="206" y="351" type="curve" smooth="yes"/>
      <point x="213" y="351"/>
      <point x="221" y="351"/>
      <point x="229" y="350" type="curve"/>
      <point x="234" y="416" type="line"/>
      <point x="223" y="418"/>
      <point x="210" y="419"/>
      <point x="197" y="419" type="curve" smooth="yes"/>
      <point x="163" y="419"/>
      <point x="133" y="411"/>
      <point x="110" y="391" type="curve"/>
      <point x="103" y="377" type="line"/>
      <point x="74" y="350"/>
      <point x="61" y="309"/>
      <point x="61" y="267" type="curve" smooth="yes"/>
      <point x="61" y="177"/>
      <point x="120" y="120"/>
      <point x="196" y="120" type="curve" smooth="yes"/>
      <point x="264" y="120"/>
      <point x="302" y="151"/>
      <point x="335" y="182" type="curve"/>
      <point x="307" y="189" type="line"/>
      <point x="307" y="0" type="line"/>
      <point x="382" y="0" type="line"/>
      <point x="382" y="554" type="line"/>
    </contour>
    <contour>
      <point x="166" y="351" type="curve"/>
      <point x="180" y="408" type="line"/>
      <point x="129" y="424"/>
      <point x="104" y="448"/>
      <point x="104" y="492" type="curve" smooth="yes"/>
      <point x="104" y="529"/>
      <point x="123" y="556"/>
      <point x="143" y="574" type="curve"/>
      <point x="82" y="608" type="line"/>
      <point x="55" y="585"/>
      <point x="29" y="554"/>
      <point x="29" y="498" type="curve" smooth="yes"/>
      <point x="29" y="417"/>
      <point x="82" y="365"/>
    </contour>
  </outline>
</glyph>
<glyph name="ngadeva" format="2">
  <advance width="485"/>
  <unicode hex="0919"/>
  <outline>
    <contour>
      <point x="250" y="225" type="curve" smooth="yes"/>
      <point x="303" y="225"/>
      <point x="325" y="193"/>
      <point x="325" y="147" type="curve" smooth="yes"/>
      <point x="325" y="94"/>
      <point x="294" y="70"/>
      <point x="239" y="70" type="curve" smooth="yes"/>
      <point x="170" y="70"/>
      <point x="128" y="110"/>
      <point x="76" y="190" type="curve"/>
      <point x="15" y="150" type="line"/>
      <point x="75" y="55"/>
      <point x="146" y="0"/>
      <point x="244" y="0" type="curve" smooth="yes"/>
      <point x="349" y="0"/>
      <point x="400" y="63"/>
      <point x="400" y="144" type="curve" smooth="yes"/>
      <point x="400" y="234"/>
      <point x="350" y="293"/>
      <point x="263" y="293" type="curve" smooth="yes"/>
      <point x="245" y="293"/>
      <point x="221" y="290"/>
      <point x="200" y="283" type="curve"/>
      <point x="184" y="304"/>
      <point x="172" y="326"/>
      <point x="172" y="354" type="curve" smooth="yes"/>
      <point x="172" y="365"/>
      <point x="175" y="377"/>
      <point x="181" y="383" type="curve" smooth="yes"/>
      <point x="190" y="393"/>
      <point x="203" y="397"/>
      <point x="230" y="397" type="curve" smooth="yes"/>
      <point x="357" y="397" type="line"/>
      <point x="357" y="554" type="line"/>
      <point x="497" y="554" type="line"/>
      <point x="497" y="622" type="line"/>
      <point x="0" y="622" type="line"/>
      <point x="0" y="554" type="line"/>
      <point x="282" y="554" type="line"/>
      <point x="282" y="465" type="line"/>
      <point x="245" y="465" type="line" smooth="yes"/>
      <point x="180" y="465"/>
      <point x="151" y="452"/>
      <point x="129" y="431" type="curve" smooth="yes"/>
      <point x="110" y="413"/>
      <point x="99" y="388"/>
      <point x="99" y="356" type="curve" smooth="yes"/>
      <point x="99" y="293"/>
      <point x="140" y="245"/>
      <point x="177" y="208" type="curve"/>
      <point x="203" y="219"/>
      <point x="226" y="225"/>
    </contour>
    <contour>
      <point x="375" y="339" type="curve" smooth="yes"/>
      <point x="375" y="307"/>
      <point x="392" y="287"/>
      <point x="421" y="287" type="curve" smooth="yes"/>
      <point x="451" y="287"/>
      <point x="467" y="307"/>
      <point x="467" y="339" type="curve" smooth="yes"/>
      <point x="467" y="369"/>
      <point x="452" y="391"/>
      <point x="421" y="391" type="curve" smooth="yes"/>
      <point x="391" y="391"/>
      <point x="375" y="369"/>
    </contour>
  </outline>
</glyph>
<glyph name="cadeva" format="2">
  <advance width="478"/>
  <unicode hex="091A"/>
  <outline>
    <contour>
      <point x="490" y="554" type="line"/>
      <point x="490" y="622" type="line"/>
      <point x="0" y="622" type="line"/>
      <point x="0" y="554" type="line"/>
      <point x="339" y="554" type="line"/>
      <point x="339" y="207" type="line"/>
      <point x="369" y="275" type="line"/>
      <point x="339" y="228"/>
      <point x="301" y="188"/>
      <point x="246" y="188" type="curve" smooth="yes"/>
      <point x="202" y="188"/>
      <point x="177" y="215"/>
      <point x="177" y="273" type="curve" smooth="yes"/>
      <point x="177" y="339"/>
      <point x="209" y="374"/>
      <point x="275" y="374" type="curve" smooth="yes"/>
      <point x="279" y="374" type="line"/>
      <point x="286" y="440" type="line"/>
      <point x="278" y="441"/>
      <point x="261" y="441"/>
      <point x="244" y="441" type="curve" smooth="yes"/>
      <point x="30" y="441" type="line"/>
      <point x="30" y="373" type="line"/>
      <point x="146" y="375" type="line"/>
      <point x="117" y="349"/>
      <point x="102" y="313"/>
      <point x="102" y="271" type="curve" smooth="yes"/>
      <point x="102" y="179"/>
      <point x="159" y="120"/>
      <point x="241" y="120" type="curve" smooth="yes"/>
      <point x="294" y="120"/>
      <point x="334" y="142"/>
      <point x="357" y="166" type="curve"/>
      <point x="339" y="173" type="line"/>
      <point x="339" y="0" type="line"/>
      <point x="414" y="0" type="line"/>
      <point x="414" y="554" type="line"/>
    </contour>
  </outline>
</glyph>
<glyph name="chadeva" format="2">
  <advance width="527"/>
  <unicode hex="091B"/>
  <outline>
    <contour>
      <point x="408" y="554" type="line"/>
      <point x="539" y="554" type="line"/>
      <point x="539" y="622" type="line"/>
      <point x="0" y="622" type="line"/>
      <point x="0" y="554" type="line"/>
      <point x="334" y="554" type="line"/>
      <point x="334" y="449" type="line"/>
      <point x="408" y="449" type="line"/>
    </contour>
    <contour>
      <point x="230" y="69" type="curve" smooth="yes"/>
      <point x="176" y="69"/>
      <point x="147" y="92"/>
      <point x="147" y="146" type="curve" smooth="yes"/>
      <point x="147" y="197"/>
      <point x="173" y="220"/>
      <point x="209" y="220" type="curve" smooth="yes"/>
      <point x="214" y="220"/>
      <point x="223" y="220"/>
      <point x="229" y="219" type="curve"/>
      <point x="234" y="286" type="line"/>
      <point x="227" y="287"/>
      <point x="214" y="288"/>
      <point x="203" y="288" type="curve" smooth="yes"/>
      <point x="171" y="288"/>
      <point x="139" y="278"/>
      <point x="118" y="259" type="curve" smooth="yes"/>
      <point x="115" y="256"/>
      <point x="115" y="253"/>
      <point x="112" y="250" type="curve" smooth="yes"/>
      <point x="84" y="224"/>
      <point x="72" y="183"/>
      <point x="72" y="145" type="curve" smooth="yes"/>
      <point x="72" y="61"/>
      <point x="125" y="0"/>
      <point x="227" y="0" type="curve" smooth="yes"/>
      <point x="406" y="0"/>
      <point x="493" y="155"/>
      <point x="493" y="309" type="curve" smooth="yes"/>
      <point x="493" y="424"/>
      <point x="442" y="483"/>
      <point x="367" y="483" type="curve" smooth="yes"/>
      <point x="299" y="483"/>
      <point x="256" y="436"/>
      <point x="256" y="363" type="curve" smooth="yes"/>
      <point x="256" y="288"/>
      <point x="295" y="236"/>
      <point x="365" y="202" type="curve"/>
      <point x="397" y="262" type="line"/>
      <point x="357" y="283"/>
      <point x="327" y="311"/>
      <point x="327" y="364" type="curve" smooth="yes"/>
      <point x="327" y="400"/>
      <point x="344" y="419"/>
      <point x="367" y="419" type="curve" smooth="yes"/>
      <point x="404" y="419"/>
      <point x="418" y="375"/>
      <point x="418" y="311" type="curve" smooth="yes"/>
      <point x="418" y="173"/>
      <point x="340" y="69"/>
    </contour>
    <contour>
      <point x="164" y="215" type="curve"/>
      <point x="182" y="273" type="line"/>
      <point x="143" y="288"/>
      <point x="107" y="311"/>
      <point x="107" y="358" type="curve" smooth="yes"/>
      <point x="107" y="396"/>
      <point x="128" y="419"/>
      <point x="167" y="419" type="curve" smooth="yes"/>
      <point x="188" y="419"/>
      <point x="200" y="416"/>
      <point x="216" y="412" type="curve"/>
      <point x="220" y="477" type="line"/>
      <point x="204" y="481"/>
      <point x="182" y="484"/>
      <point x="158" y="484" type="curve" smooth="yes"/>
      <point x="82" y="484"/>
      <point x="32" y="436"/>
      <point x="32" y="361" type="curve" smooth="yes"/>
      <point x="32" y="286"/>
      <point x="90" y="234"/>
    </contour>
  </outline>
</glyph>
<glyph name="jadeva" format="2">
  <advance width="561"/>
  <unicode hex="091C"/>
  <outline>
    <contour>
      <point x="497" y="554" type="line"/>
      <point x="573" y="554" type="line"/>
      <point x="573" y="622" type="line"/>
      <point x="0" y="622" type="line"/>
      <point x="0" y="554" type="line"/>
      <point x="422" y="554" type="line"/>
      <point x="422" y="441" type="line"/>
      <point x="227" y="441" type="line"/>
      <point x="197" y="380" type="line"/>
      <point x="241" y="333"/>
      <point x="272" y="274"/>
      <point x="272" y="213" type="curve" smooth="yes"/>
      <point x="272" y="173"/>
      <point x="259" y="151"/>
      <point x="224" y="151" type="curve" smooth="yes"/>
      <point x="164" y="151"/>
      <point x="126" y="240"/>
      <point x="87" y="414" type="curve"/>
      <point x="19" y="396" type="line"/>
      <point x="72" y="164"/>
      <point x="127" y="82"/>
      <point x="231" y="82" type="curve" smooth="yes"/>
      <point x="307" y="82"/>
      <point x="348" y="130"/>
      <point x="348" y="206" type="curve" smooth="yes"/>
      <point x="348" y="280"/>
      <point x="314" y="344"/>
      <point x="269" y="389" type="curve"/>
      <point x="268" y="377" type="line"/>
      <point x="285" y="374"/>
      <point x="304" y="373"/>
      <point x="325" y="373" type="curve" smooth="yes"/>
      <point x="422" y="373" type="line"/>
      <point x="422" y="0" type="line"/>
      <point x="497" y="0" type="line"/>
    </contour>
  </outline>
</glyph>
<glyph name="nyadeva" format="2">
  <advance width="565"/>
  <unicode hex="091E"/>
  <outline>
    <contour>
      <point x="501" y="554" type="line"/>
      <point x="577" y="554" type="line"/>
      <point x="577" y="622" type="line"/>
      <point x="0" y="622" type="line"/>
      <point x="0" y="554" type="line"/>
      <point x="426" y="554" type="line"/>
      <point x="426" y="0" type="line"/>
      <point x="501" y="0" type="line"/>
    </contour>
    <contour>
      <point x="485" y="270" type="curve"/>
      <point x="485" y="363" type="line"/>
      <point x="447" y="329"/>
      <point x="420" y="316"/>
      <point x="382" y="316" type="curve" smooth="yes"/>
      <point x="362" y="316"/>
      <point x="348" y="318"/>
      <point x="336" y="322" type="curve"/>
      <point x="344" y="253" type="line"/>
      <point x="355" y="250"/>
      <point x="365" y="249"/>
      <point x="378" y="249" type="curve" smooth="yes"/>
      <point x="414" y="249"/>
      <point x="450" y="254"/>
    </contour>
    <contour>
      <point x="136" y="427" type="curve"/>
      <point x="161" y="362" type="line"/>
      <point x="183" y="372"/>
      <point x="203" y="378"/>
      <point x="225" y="378" type="curve" smooth="yes"/>
      <point x="268" y="378"/>
      <point x="294" y="350"/>
      <point x="294" y="288" type="curve" smooth="yes"/>
      <point x="294" y="228"/>
      <point x="272" y="191"/>
      <point x="221" y="191" type="curve" smooth="yes"/>
      <point x="161" y="191"/>
      <point x="124" y="242"/>
      <point x="87" y="356" type="curve"/>
      <point x="21" y="333" type="line"/>
      <point x="74" y="178"/>
      <point x="137" y="121"/>
      <point x="224" y="121" type="curve" smooth="yes"/>
      <point x="296" y="121"/>
      <point x="366" y="158"/>
      <point x="366" y="288" type="curve" smooth="yes"/>
      <point x="366" y="390"/>
      <point x="317" y="447"/>
      <point x="231" y="447" type="curve" smooth="yes"/>
      <point x="197" y="447"/>
      <point x="167" y="440"/>
    </contour>
  </outline>
</glyph>
<glyph name="ttadeva" format="2">
  <advance width="379"/>
  <unicode hex="091F"/>
  <outline>
    <contour>
      <point x="391" y="554" type="line"/>
      <point x="391" y="622" type="line"/>
      <point x="0" y="622" type="line"/>
      <point x="0" y="554" type="line"/>
      <point x="208" y="554" type="line"/>
      <point x="208" y="413" type="line"/>
      <point x="240" y="418" type="line"/>
      <point x="230" y="418" type="line"/>
      <point x="127" y="418"/>
      <point x="33" y="346"/>
      <point x="33" y="212" type="curve" smooth="yes"/>
      <point x="33" y="72"/>
      <point x="116" y="0"/>
      <point x="225" y="0" type="curve" smooth="yes"/>
      <point x="275" y="0"/>
      <point x="325" y="13"/>
      <point x="370" y="38" type="curve"/>
      <point x="342" y="106" type="line"/>
      <point x="299" y="83"/>
      <point x="269" y="71"/>
      <point x="224" y="71" type="curve" smooth="yes"/>
      <point x="164" y="71"/>
      <point x="108" y="106"/>
      <point x="108" y="210" type="curve" smooth="yes"/>
      <point x="108" y="261"/>
      <point x="129" y="296"/>
      <point x="151" y="315" type="curve" smooth="yes"/>
      <point x="180" y="341"/>
      <point x="222" y="352"/>
      <point x="268" y="352" type="curve" smooth="yes"/>
      <point x="283" y="352" type="line"/>
      <point x="283" y="554" type="line"/>
    </contour>
  </outline>
</glyph>
<glyph name="tthadeva" format="2">
  <advance width="436"/>
  <unicode hex="0920"/>
  <outline>
    <contour>
      <point x="448" y="554" type="line"/>
      <point x="448" y="622" type="line"/>
      <point x="0" y="622" type="line"/>
      <point x="0" y="554" type="line"/>
      <point x="208" y="554" type="line"/>
      <point x="208" y="413" type="line"/>
      <point x="246" y="418" type="line"/>
      <point x="237" y="418" type="line"/>
      <point x="127" y="418"/>
      <point x="33" y="346"/>
      <point x="33" y="208" type="curve" smooth="yes"/>
      <point x="33" y="76"/>
      <point x="111" y="0"/>
      <point x="222" y="0" type="curve" smooth="yes"/>
      <point x="326" y="0"/>
      <point x="403" y="58"/>
      <point x="403" y="193" type="curve" smooth="yes"/>
      <point x="403" y="290"/>
      <point x="360" y="364"/>
      <point x="283" y="410" type="curve"/>
      <point x="283" y="554" type="line"/>
    </contour>
    <contour>
      <point x="218" y="70" type="curve" smooth="yes"/>
      <point x="160" y="70"/>
      <point x="108" y="106"/>
      <point x="108" y="205" type="curve" smooth="yes"/>
      <point x="108" y="263"/>
      <point x="128" y="297"/>
      <point x="150" y="316" type="curve" smooth="yes"/>
      <point x="181" y="343"/>
      <point x="219" y="352"/>
      <point x="262" y="352" type="curve"/>
      <point x="245" y="352" type="line"/>
      <point x="298" y="322"/>
      <point x="328" y="260"/>
      <point x="328" y="196" type="curve" smooth="yes"/>
      <point x="328" y="111"/>
      <point x="285" y="70"/>
    </contour>
  </outline>
</glyph>
<glyph name="ddhadeva" format="2">
  <advance width="422"/>
  <unicode hex="0922"/>
  <outline>
    <contour>
      <point x="230" y="0" type="curve" smooth="yes"/>
      <point x="335" y="0"/>
      <point x="396" y="61"/>
      <point x="396" y="156" type="curve" smooth="yes"/>
      <point x="396" y="225"/>
      <point x="360" y="286"/>
      <point x="285" y="286" type="curve" smooth="yes"/>
      <point x="207" y="286"/>
      <point x="170" y="228"/>
      <point x="170" y="163" type="curve" smooth="yes"/>
      <point x="170" y="107"/>
      <point x="186" y="67"/>
      <point x="206" y="22" type="curve"/>
      <point x="270" y="34" type="line"/>
      <point x="249" y="72"/>
      <point x="238" y="104"/>
      <point x="238" y="150" type="curve" smooth="yes"/>
      <point x="238" y="191"/>
      <point x="256" y="221"/>
      <point x="286" y="221" type="curve" smooth="yes"/>
      <point x="311" y="221"/>
      <point x="326" y="199"/>
      <point x="326" y="155" type="curve" smooth="yes"/>
      <point x="326" y="98"/>
      <point x="295" y="67"/>
      <point x="240" y="67" type="curve" smooth="yes"/>
      <point x="233" y="67"/>
      <point x="217" y="66"/>
      <point x="210" y="67" type="curve"/>
      <point x="142" y="79"/>
      <point x="108" y="132"/>
      <point x="108" y="226" type="curve" smooth="yes"/>
      <point x="108" y="278"/>
      <point x="123" y="318"/>
      <point x="154" y="344" type="curve" smooth="yes"/>
      <point x="181" y="366"/>
      <point x="216" y="378"/>
      <point x="277" y="378" type="curve" smooth="yes"/>
      <point x="297" y="378" type="line"/>
      <point x="297" y="554" type="line"/>
      <point x="434" y="554" type="line"/>
      <point x="434" y="622" type="line"/>
      <point x="0" y="622" type="line"/>
      <point x="0" y="554" type="line"/>
      <point x="222" y="554" type="line"/>
      <point x="222" y="435" type="line"/>
      <point x="255" y="446" type="line"/>
      <point x="249" y="446" type="line"/>
      <point x="117" y="444"/>
      <point x="33" y="370"/>
      <point x="33" y="226" type="curve" smooth="yes"/>
      <point x="33" y="81"/>
      <point x="119" y="0"/>
    </contour>
  </outline>
</glyph>
<glyph name="nnadeva" format="2">
  <advance width="548"/>
  <unicode hex="0923"/>
  <outline>
    <contour>
      <point x="484" y="554" type="line"/>
      <point x="560" y="554" type="line"/>
      <point x="560" y="622" type="line"/>
      <point x="0" y="622" type="line"/>
      <point x="0" y="554" type="line"/>
      <point x="57" y="554" type="line"/>
      <point x="57" y="314" type="line" smooth="yes"/>
      <point x="57" y="259"/>
      <point x="67" y="226"/>
      <point x="85" y="202" type="curve" smooth="yes"/>
      <point x="107" y="171"/>
      <point x="143" y="154"/>
      <point x="190" y="154" type="curve" smooth="yes"/>
      <point x="237" y="154"/>
      <point x="270" y="167"/>
      <point x="291" y="193" type="curve" smooth="yes"/>
      <point x="310" y="216"/>
      <point x="321" y="246"/>
      <point x="321" y="305" type="curve" smooth="yes"/>
      <point x="321" y="554" type="line"/>
      <point x="409" y="554" type="line"/>
      <point x="409" y="0" type="line"/>
      <point x="484" y="0" type="line"/>
    </contour>
    <contour>
      <point x="188" y="222" type="curve" smooth="yes"/>
      <point x="164" y="222"/>
      <point x="150" y="232"/>
      <point x="142" y="248" type="curve" smooth="yes"/>
      <point x="135" y="262"/>
      <point x="132" y="281"/>
      <point x="132" y="312" type="curve" smooth="yes"/>
      <point x="132" y="554" type="line"/>
      <point x="246" y="554" type="line"/>
      <point x="246" y="317" type="line" smooth="yes"/>
      <point x="246" y="270"/>
      <point x="241" y="254"/>
      <point x="234" y="243" type="curve" smooth="yes"/>
      <point x="225" y="229"/>
      <point x="210" y="222"/>
    </contour>
  </outline>
</glyph>
<glyph name="tadeva" format="2">
  <advance width="431"/>
  <unicode hex="0924"/>
  <outline>
    <contour>
      <point x="367" y="554" type="line"/>
      <point x="443" y="554" type="line"/>
      <point x="443" y="622" type="line"/>
      <point x="0" y="622" type="line"/>
      <point x="0" y="554" type="line"/>
      <point x="292" y="554" type="line"/>
      <point x="292" y="398" type="line"/>
      <point x="217" y="398" type="line" smooth="yes"/>
      <point x="137" y="398"/>
      <point x="96" y="381"/>
      <point x="67" y="348" type="curve" smooth="yes"/>
      <point x="44" y="322"/>
      <point x="33" y="288"/>
      <point x="33" y="242" type="curve" smooth="yes"/>
      <point x="33" y="156"/>
      <point x="81" y="75"/>
      <point x="148" y="-12" type="curve"/>
      <point x="205" y="29" type="line"/>
      <point x="129" y="123"/>
      <point x="108" y="185"/>
      <point x="108" y="239" type="curve" smooth="yes"/>
      <point x="108" y="267"/>
      <point x="113" y="291"/>
      <point x="132" y="308" type="curve" smooth="yes"/>
      <point x="150" y="324"/>
      <point x="169" y="330"/>
      <point x="221" y="330" type="curve" smooth="yes"/>
      <point x="292" y="330" type="line"/>
      <point x="292" y="0" type="line"/>
      <point x="367" y="0" type="line"/>
    </contour>
  </outline>
</glyph>
<glyph name="nadeva" format="2">
  <advance width="424"/>
  <unicode hex="0928"/>
  <outline>
    <contour>
      <point x="0" y="622" type="line"/>
      <point x="0" y="554" type="line"/>
      <point x="285" y="554" type="line"/>
      <point x="285" y="369" type="line"/>
      <point x="82" y="369" type="line" smooth="yes"/>
      <point x="38" y="369"/>
      <point x="27" y="349"/>
      <point x="27" y="316" type="curve" smooth="yes"/>
      <point x="27" y="261"/>
      <point x="82" y="190"/>
      <point x="121" y="190" type="curve" smooth="yes"/>
      <point x="151" y="190"/>
      <point x="163" y="207"/>
      <point x="163" y="240" type="curve" smooth="yes"/>
      <point x="163" y="301" type="line"/>
      <point x="285" y="301" type="line"/>
      <point x="285" y="0" type="line"/>
      <point x="360" y="0" type="line"/>
      <point x="360" y="554" type="line"/>
      <point x="436" y="554" type="line"/>
      <point x="436" y="622" type="line"/>
    </contour>
  </outline>
</glyph>
<glyph name="padeva" format="2">
  <advance width="427"/>
  <unicode hex="092A"/>
  <outline>
    <contour>
      <point x="363" y="554" type="line"/>
      <point x="439" y="554" type="line"/>
      <point x="439" y="622" type="line"/>
      <point x="0" y="622" type="line"/>
      <point x="0" y="554" type="line"/>
      <point x="56" y="554" type="line"/>
      <point x="56" y="337" type="line" smooth="yes"/>
      <point x="56" y="261"/>
      <point x="67" y="224"/>
      <point x="91" y="193" type="curve" smooth="yes"/>
      <point x="111" y="168"/>
      <point x="141" y="147"/>
      <point x="191" y="147" type="curve" smooth="yes"/>
      <point x="254" y="147"/>
      <point x="290" y="178"/>
      <point x="319" y="205" type="curve"/>
      <point x="288" y="228" type="line"/>
      <point x="288" y="0" type="line"/>
      <point x="363" y="0" type="line"/>
    </contour>
    <contour>
      <point x="288" y="554" type="line"/>
      <point x="288" y="247" type="line"/>
      <point x="311" y="298" type="line"/>
      <point x="286" y="254"/>
      <point x="249" y="215"/>
      <point x="196" y="215" type="curve" smooth="yes"/>
      <point x="175" y="215"/>
      <point x="160" y="222"/>
      <point x="150" y="235" type="curve" smooth="yes"/>
      <point x="136" y="253"/>
      <point x="131" y="275"/>
      <point x="131" y="344" type="curve" smooth="yes"/>
      <point x="131" y="554" type="line"/>
    </contour>
  </outline>
</glyph>
<glyph name="phadeva" format="2">
  <advance width="574"/>
  <unicode hex="092B"/>
  <outline>
    <contour>
      <point x="351" y="554" type="line"/>
      <point x="586" y="554" type="line"/>
      <point x="586" y="622" type="line"/>
      <point x="0" y="622" type="line"/>
      <point x="0" y="554" type="line"/>
      <point x="56" y="554" type="line"/>
      <point x="56" y="337" type="line" smooth="yes"/>
      <point x="56" y="261"/>
      <point x="66" y="224"/>
      <point x="90" y="193" type="curve" smooth="yes"/>
      <point x="110" y="168"/>
      <point x="139" y="147"/>
      <point x="188" y="147" type="curve" smooth="yes"/>
      <point x="238" y="147"/>
      <point x="275" y="176"/>
      <point x="298" y="208" type="curve"/>
      <point x="276" y="231" type="line"/>
      <point x="276" y="0" type="line"/>
      <point x="351" y="0" type="line"/>
      <point x="351" y="285" type="line"/>
      <point x="343" y="238" type="line"/>
      <point x="366" y="298"/>
      <point x="396" y="332"/>
      <point x="424" y="332" type="curve" smooth="yes"/>
      <point x="455" y="332"/>
      <point x="468" y="300"/>
      <point x="468" y="246" type="curve" smooth="yes"/>
      <point x="468" y="185"/>
      <point x="449" y="127"/>
      <point x="421" y="77" type="curve"/>
      <point x="488" y="41" type="line"/>
      <point x="522" y="104"/>
      <point x="543" y="172"/>
      <point x="543" y="244" type="curve" smooth="yes"/>
      <point x="543" y="344"/>
      <point x="496" y="399"/>
      <point x="434" y="399" type="curve" smooth="yes"/>
      <point x="393" y="399"/>
      <point x="365" y="379"/>
      <point x="338" y="341" type="curve"/>
      <point x="351" y="316" type="line"/>
    </contour>
    <contour>
      <point x="131" y="554" type="line"/>
      <point x="276" y="554" type="line"/>
      <point x="276" y="245" type="line"/>
      <point x="292" y="292" type="line"/>
      <point x="270" y="249"/>
      <point x="240" y="215"/>
      <point x="193" y="215" type="curve" smooth="yes"/>
      <point x="176" y="215"/>
      <point x="161" y="220"/>
      <point x="149" y="235" type="curve" smooth="yes"/>
      <point x="135" y="253"/>
      <point x="131" y="275"/>
      <point x="131" y="344" type="curve" smooth="yes"/>
    </contour>
  </outline>
</glyph>
<glyph name="badeva" format="2">
  <advance width="431"/>
  <unicode hex="092C"/>
  <outline>
    <contour>
      <point x="443" y="554" type="line"/>
      <point x="443" y="622" type="line"/>
      <point x="0" y="622" type="line"/>
      <point x="0" y="554" type="line"/>
      <point x="292" y="554" type="line"/>
      <point x="292" y="222" type="line"/>
      <point x="312" y="272" type="line"/>
      <point x="281" y="224"/>
      <point x="246" y="185"/>
      <point x="185" y="185" type="curve" smooth="yes"/>
      <point x="138" y="185"/>
      <point x="107" y="212"/>
      <point x="107" y="289" type="curve" smooth="yes"/>
      <point x="107" y="363"/>
      <point x="137" y="399"/>
      <point x="198" y="399" type="curve" smooth="yes"/>
      <point x="220" y="399"/>
      <point x="243" y="396"/>
      <point x="261" y="391" type="curve"/>
      <point x="266" y="457" type="line"/>
      <point x="250" y="461"/>
      <point x="218" y="465"/>
      <point x="189" y="465" type="curve" smooth="yes"/>
      <point x="93" y="465"/>
      <point x="33" y="401"/>
      <point x="33" y="288" type="curve" smooth="yes"/>
      <point x="33" y="187"/>
      <point x="87" y="120"/>
      <point x="179" y="120" type="curve" smooth="yes"/>
      <point x="249" y="120"/>
      <point x="287" y="151"/>
      <point x="320" y="182" type="curve"/>
      <point x="292" y="204" type="line"/>
      <point x="292" y="0" type="line"/>
      <point x="367" y="0" type="line"/>
      <point x="367" y="554" type="line"/>
    </contour>
    <contour>
      <point x="156" y="426" type="line"/>
      <point x="106" y="403" type="line"/>
      <point x="241" y="169" type="line"/>
      <point x="279" y="209" type="line"/>
    </contour>
  </outline>
</glyph>
<glyph name="yadeva" format="2">
  <advance width="439"/>
  <unicode hex="092F"/>
  <outline>
    <contour>
      <point x="451" y="622" type="line"/>
      <point x="0" y="622" type="line"/>
      <point x="0" y="554" type="line"/>
      <point x="124" y="554" type="line"/>
      <point x="78" y="568" type="line"/>
      <point x="94" y="544"/>
      <point x="114" y="504"/>
      <point x="114" y="458" type="curve" smooth="yes"/>
      <point x="114" y="399"/>
      <point x="84" y="371"/>
      <point x="27" y="354" type="curve"/>
      <point x="45" y="216"/>
      <point x="101" y="134"/>
      <point x="196" y="134" type="curve" smooth="yes"/>
      <point x="261" y="134"/>
      <point x="299" y="165"/>
      <point x="332" y="196" type="curve"/>
      <point x="300" y="217" type="line"/>
      <point x="300" y="0" type="line"/>
      <point x="375" y="0" type="line"/>
      <point x="375" y="554" type="line"/>
      <point x="451" y="554" type="line"/>
    </contour>
    <contour>
      <point x="133" y="554" type="line"/>
      <point x="300" y="554" type="line"/>
      <point x="300" y="240" type="line"/>
      <point x="323" y="288" type="line"/>
      <point x="293" y="241"/>
      <point x="256" y="202"/>
      <point x="200" y="202" type="curve" smooth="yes"/>
      <point x="156" y="202"/>
      <point x="124" y="238"/>
      <point x="108" y="306" type="curve"/>
      <point x="158" y="332"/>
      <point x="189" y="376"/>
      <point x="189" y="447" type="curve" smooth="yes"/>
      <point x="189" y="489"/>
      <point x="174" y="537"/>
      <point x="154" y="574" type="curve"/>
    </contour>
  </outline>
</glyph>
<glyph name="radeva" format="2">
  <advance width="308"/>
  <unicode hex="0930"/>
  <outline>
    <contour>
      <point x="225" y="554" type="line"/>
      <point x="320" y="554" type="line"/>
      <point x="320" y="622" type="line"/>
      <point x="0" y="622" type="line"/>
      <point x="0" y="554" type="line"/>
      <point x="194" y="554" type="line"/>
      <point x="165" y="566" type="line"/>
      <point x="175" y="551"/>
      <point x="183" y="507"/>
      <point x="183" y="469" type="curve" smooth="yes"/>
      <point x="183" y="402"/>
      <point x="163" y="359"/>
      <point x="115" y="334" type="curve"/>
      <point x="167" y="299" type="line"/>
      <point x="146" y="356"/>
      <point x="119" y="392"/>
      <point x="82" y="392" type="curve" smooth="yes"/>
      <point x="45" y="392"/>
      <point x="29" y="365"/>
      <point x="29" y="338" type="curve" smooth="yes"/>
      <point x="29" y="317"/>
      <point x="34" y="294"/>
      <point x="53" y="256" type="curve" smooth="yes"/>
      <point x="79" y="205"/>
      <point x="153" y="88"/>
      <point x="237" y="-12" type="curve"/>
      <point x="295" y="32" type="line"/>
      <point x="235" y="99"/>
      <point x="169" y="188"/>
      <point x="129" y="260" type="curve"/>
      <point x="131" y="252" type="line"/>
      <point x="207" y="292"/>
      <point x="258" y="346"/>
      <point x="258" y="460" type="curve" smooth="yes"/>
      <point x="258" y="509"/>
      <point x="250" y="545"/>
      <point x="240" y="567" type="curve"/>
    </contour>
  </outline>
</glyph>
<glyph name="ladeva" format="2">
  <advance width="511"/>
  <unicode hex="0932"/>
  <outline>
    <contour>
      <point x="0" y="554" type="line"/>
      <point x="372" y="554" type="line"/>
      <point x="372" y="413" type="line"/>
      <point x="416" y="394" type="line"/>
      <point x="413" y="416" type="line"/>
      <point x="401" y="421"/>
      <point x="384" y="426"/>
      <point x="366" y="426" type="curve" smooth="yes"/>
      <point x="286" y="426"/>
      <point x="226" y="368"/>
      <point x="202" y="230" type="curve"/>
      <point x="274" y="212" type="line"/>
      <point x="294" y="337"/>
      <point x="335" y="359"/>
      <point x="367" y="359" type="curve" smooth="yes"/>
      <point x="378" y="359"/>
      <point x="391" y="357"/>
      <point x="406" y="344" type="curve"/>
      <point x="372" y="380" type="line"/>
      <point x="372" y="0" type="line"/>
      <point x="447" y="0" type="line"/>
      <point x="447" y="554" type="line"/>
      <point x="523" y="554" type="line"/>
      <point x="523" y="622" type="line"/>
      <point x="0" y="622" type="line"/>
    </contour>
    <contour>
      <point x="248" y="296" type="curve"/>
      <point x="285" y="358" type="line"/>
      <point x="242" y="403"/>
      <point x="210" y="426"/>
      <point x="159" y="426" type="curve" smooth="yes"/>
      <point x="92" y="426"/>
      <point x="32" y="379"/>
      <point x="32" y="283" type="curve" smooth="yes"/>
      <point x="32" y="188"/>
      <point x="92" y="88"/>
      <point x="171" y="-12" type="curve"/>
      <point x="227" y="30" type="line"/>
      <point x="149" y="132"/>
      <point x="107" y="198"/>
      <point x="107" y="280" type="curve" smooth="yes"/>
      <point x="107" y="324"/>
      <point x="127" y="356"/>
      <point x="168" y="356" type="curve" smooth="yes"/>
      <point x="203" y="356"/>
      <point x="228" y="329"/>
    </contour>
  </outline>
</glyph>
<glyph name="lladeva" format="2">
  <advance width="564"/>
  <unicode hex="0933"/>
  <outline>
    <contour>
      <point x="0" y="554" type="line"/>
      <point x="378" y="554" type="line"/>
      <point x="378" y="402" type="line"/>
      <point x="453" y="402" type="line"/>
      <point x="453" y="554" type="line"/>
      <point x="576" y="554" type="line"/>
      <point x="576" y="622" type="line"/>
      <point x="0" y="622" type="line"/>
    </contour>
    <contour>
      <point x="286" y="292" type="curve"/>
      <point x="319" y="351" type="line"/>
      <point x="274" y="405"/>
      <point x="235" y="440"/>
      <point x="173" y="440" type="curve" smooth="yes"/>
      <point x="89" y="440"/>
      <point x="34" y="370"/>
      <point x="34" y="255" type="curve" smooth="yes"/>
      <point x="34" y="119"/>
      <point x="91" y="66"/>
      <point x="164" y="66" type="curve" smooth="yes"/>
      <point x="228" y="66"/>
      <point x="277" y="98"/>
      <point x="308" y="208" type="curve" smooth="yes"/>
      <point x="328" y="279" type="line" smooth="yes"/>
      <point x="345" y="337"/>
      <point x="359" y="372"/>
      <point x="401" y="372" type="curve" smooth="yes"/>
      <point x="429" y="372"/>
      <point x="457" y="349"/>
      <point x="457" y="260" type="curve" smooth="yes"/>
      <point x="457" y="168"/>
      <point x="425" y="134"/>
      <point x="384" y="134" type="curve" smooth="yes"/>
      <point x="345" y="134"/>
      <point x="317" y="164"/>
      <point x="280" y="213" type="curve"/>
      <point x="248" y="155" type="line"/>
      <point x="291" y="101"/>
      <point x="332" y="66"/>
      <point x="392" y="66" type="curve" smooth="yes"/>
      <point x="477" y="66"/>
      <point x="532" y="136"/>
      <point x="532" y="251" type="curve" smooth="yes"/>
      <point x="532" y="387"/>
      <point x="475" y="440"/>
      <point x="402" y="440" type="curve" smooth="yes"/>
      <point x="342" y="440"/>
      <point x="291" y="411"/>
      <point x="259" y="298" type="curve" smooth="yes"/>
      <point x="239" y="228" type="line" smooth="yes"/>
      <point x="222" y="170"/>
      <point x="207" y="134"/>
      <point x="165" y="134" type="curve" smooth="yes"/>
      <point x="136" y="134"/>
      <point x="109" y="158"/>
      <point x="109" y="250" type="curve" smooth="yes"/>
      <point x="109" y="337"/>
      <point x="141" y="372"/>
      <point x="182" y="372" type="curve" smooth="yes"/>
      <point x="219" y="372"/>
      <point x="248" y="344"/>
    </contour>
  </outline>
</glyph>
<glyph name="vadeva" format="2">
  <advance width="420"/>
  <unicode hex="0935"/>
  <outline>
    <contour>
      <point x="432" y="554" type="line"/>
      <point x="432" y="622" type="line"/>
      <point x="0" y="622" type="line"/>
      <point x="0" y="554" type="line"/>
      <point x="281" y="554" type="line"/>
      <point x="281" y="225" type="line"/>
      <point x="300" y="274" type="line"/>
      <point x="270" y="227"/>
      <point x="233" y="188"/>
      <point x="177" y="188" type="curve" smooth="yes"/>
      <point x="139" y="188"/>
      <point x="108" y="213"/>
      <point x="108" y="288" type="curve" smooth="yes"/>
      <point x="108" y="363"/>
      <point x="138" y="396"/>
      <point x="193" y="396" type="curve" smooth="yes"/>
      <point x="214" y="396"/>
      <point x="232" y="393"/>
      <point x="250" y="388" type="curve"/>
      <point x="255" y="457" type="line"/>
      <point x="239" y="461"/>
      <point x="212" y="465"/>
      <point x="184" y="465" type="curve" smooth="yes"/>
      <point x="93" y="465"/>
      <point x="33" y="402"/>
      <point x="33" y="287" type="curve" smooth="yes"/>
      <point x="33" y="187"/>
      <point x="87" y="120"/>
      <point x="175" y="120" type="curve" smooth="yes"/>
      <point x="238" y="120"/>
      <point x="276" y="151"/>
      <point x="309" y="182" type="curve"/>
      <point x="281" y="202" type="line"/>
      <point x="281" y="0" type="line"/>
      <point x="356" y="0" type="line"/>
      <point x="356" y="554" type="line"/>
    </contour>
  </outline>
</glyph>
<glyph name="shadeva" format="2">
  <advance width="515"/>
  <unicode hex="0936"/>
  <outline>
    <contour>
      <point x="451" y="554" type="line"/>
      <point x="527" y="554" type="line"/>
      <point x="527" y="622" type="line"/>
      <point x="317" y="622" type="line"/>
      <point x="317" y="554" type="line"/>
      <point x="376" y="554" type="line"/>
      <point x="376" y="0" type="line"/>
      <point x="451" y="0" type="line"/>
    </contour>
    <contour>
      <point x="97" y="190" type="curve" smooth="yes"/>
      <point x="227" y="190"/>
      <point x="295" y="306"/>
      <point x="295" y="442" type="curve" smooth="yes"/>
      <point x="295" y="573"/>
      <point x="229" y="632"/>
      <point x="159" y="632" type="curve" smooth="yes"/>
      <point x="85" y="632"/>
      <point x="45" y="582"/>
      <point x="45" y="515" type="curve" smooth="yes"/>
      <point x="45" y="440"/>
      <point x="87" y="383"/>
      <point x="183" y="372" type="curve"/>
      <point x="199" y="439" type="line"/>
      <point x="129" y="442"/>
      <point x="113" y="480"/>
      <point x="113" y="514" type="curve" smooth="yes"/>
      <point x="113" y="548"/>
      <point x="131" y="567"/>
      <point x="157" y="567" type="curve" smooth="yes"/>
      <point x="190" y="567"/>
      <point x="221" y="529"/>
      <point x="221" y="443" type="curve" smooth="yes"/>
      <point x="221" y="334"/>
      <point x="178" y="269"/>
      <point x="104" y="261" type="curve"/>
      <point x="106" y="223" type="line"/>
      <point x="146" y="181"/>
      <point x="196" y="102"/>
      <point x="249" y="-1" type="curve"/>
      <point x="311" y="34" type="line"/>
      <point x="269" y="117"/>
      <point x="221" y="189"/>
      <point x="174" y="243" type="curve"/>
      <point x="167" y="258" type="line"/>
      <point x="130" y="301"/>
      <point x="106" y="308"/>
      <point x="80" y="308" type="curve" smooth="yes"/>
      <point x="46" y="308"/>
      <point x="25" y="286"/>
      <point x="25" y="255" type="curve" smooth="yes"/>
      <point x="25" y="210"/>
      <point x="58" y="190"/>
    </contour>
  </outline>
</glyph>
<glyph name="hadeva" format="2">
  <advance width="399"/>
  <unicode hex="0939"/>
  <outline>
    <contour>
      <point x="106" y="232" type="curve"/>
      <point x="164" y="269" type="line"/>
      <point x="139" y="294"/>
      <point x="123" y="323"/>
      <point x="123" y="354" type="curve" smooth="yes"/>
      <point x="123" y="365"/>
      <point x="126" y="377"/>
      <point x="132" y="383" type="curve" smooth="yes"/>
      <point x="141" y="393"/>
      <point x="154" y="397"/>
      <point x="181" y="397" type="curve" smooth="yes"/>
      <point x="335" y="397" type="line"/>
      <point x="335" y="554" type="line"/>
      <point x="411" y="554" type="line"/>
      <point x="411" y="622" type="line"/>
      <point x="0" y="622" type="line"/>
      <point x="0" y="554" type="line"/>
      <point x="260" y="554" type="line"/>
      <point x="260" y="465" type="line"/>
      <point x="196" y="465" type="line" smooth="yes"/>
      <point x="131" y="465"/>
      <point x="102" y="452"/>
      <point x="80" y="431" type="curve" smooth="yes"/>
      <point x="61" y="413"/>
      <point x="50" y="388"/>
      <point x="50" y="356" type="curve" smooth="yes"/>
      <point x="50" y="299"/>
      <point x="84" y="254"/>
    </contour>
    <contour>
      <point x="233" y="65" type="curve"/>
      <point x="266" y="5" type="line"/>
      <point x="324" y="36"/>
      <point x="363" y="78"/>
      <point x="363" y="155" type="curve" smooth="yes"/>
      <point x="363" y="230"/>
      <point x="318" y="299"/>
      <point x="211" y="299" type="curve" smooth="yes"/>
      <point x="122" y="299"/>
      <point x="41" y="236"/>
      <point x="41" y="132" type="curve" smooth="yes"/>
      <point x="41" y="43"/>
      <point x="91" y="-29"/>
      <point x="168" y="-120" type="curve"/>
      <point x="222" y="-76" type="line"/>
      <point x="141" y="9"/>
      <point x="115" y="65"/>
      <point x="115" y="131" type="curve" smooth="yes"/>
      <point x="115" y="193"/>
      <point x="151" y="231"/>
      <point x="210" y="231" type="curve" smooth="yes"/>
      <point x="266" y="231"/>
      <point x="290" y="201"/>
      <point x="290" y="150" type="curve" smooth="yes"/>
      <point x="290" y="106"/>
      <point x="261" y="79"/>
    </contour>
  </outline>
</glyph>
<glyph name="oevowelsigndeva" format="2">
  <unicode hex="093A"/>
  <outline>
    <contour>
      <point x="-139" y="615" type="line"/>
      <point x="-64" y="615" type="line"/>
      <point x="-64" y="805" type="line"/>
      <point x="-139" y="805" type="line"/>
    </contour>
  </outline>
</glyph>
<glyph name="nuktadeva" format="2">
  <unicode hex="093C"/>
  <outline>
    <contour>
      <point x="-251" y="-134" type="curve" smooth="yes"/>
      <point x="-251" y="-167"/>
      <point x="-233" y="-189"/>
      <point x="-202" y="-189" type="curve" smooth="yes"/>
      <point x="-170" y="-189"/>
      <point x="-153" y="-167"/>
      <point x="-153" y="-134" type="curve" smooth="yes"/>
      <point x="-153" y="-102"/>
      <point x="-170" y="-79"/>
      <point x="-202" y="-79" type="curve" smooth="yes"/>
      <point x="-233" y="-79"/>
      <point x="-251" y="-102"/>
    </contour>
  </outline>
</glyph>
<glyph name="avagrahadeva" format="2">
  <advance width="360"/>
  <unicode hex="093D"/>
  <outline>
    <contour>
      <point x="328" y="177" type="curve" smooth="yes"/>
      <point x="328" y="245"/>
      <point x="301" y="291"/>
      <point x="241" y="380" type="curve" smooth="yes"/>
      <point x="189" y="457"/>
      <point x="173" y="480"/>
      <point x="173" y="508" type="curve" smooth="yes"/>
      <point x="173" y="520"/>
      <point x="177" y="532"/>
      <point x="189" y="541" type="curve" smooth="yes"/>
      <point x="201" y="550"/>
      <point x="216" y="554"/>
      <point x="255" y="554" type="curve" smooth="yes"/>
      <point x="313" y="554" type="line"/>
      <point x="313" y="622" type="line"/>
      <point x="252" y="622" type="line" smooth="yes"/>
      <point x="189" y="622"/>
      <point x="155" y="608"/>
      <point x="133" y="589" type="curve" smooth="yes"/>
      <point x="109" y="568"/>
      <point x="98" y="540"/>
      <point x="98" y="505" type="curve" smooth="yes"/>
      <point x="98" y="454"/>
      <point x="134" y="397"/>
      <point x="178" y="337" type="curve" smooth="yes"/>
      <point x="231" y="267"/>
      <point x="253" y="227"/>
      <point x="253" y="177" type="curve" smooth="yes"/>
      <point x="253" y="136"/>
      <point x="234" y="112"/>
      <point x="200" y="112" type="curve" smooth="yes"/>
      <point x="152" y="112"/>
      <point x="120" y="151"/>
      <point x="83" y="252" type="curve"/>
      <point x="17" y="228" type="line"/>
      <point x="70" y="84"/>
      <point x="129" y="42"/>
      <point x="204" y="42" type="curve" smooth="yes"/>
      <point x="281" y="42"/>
      <point x="328" y="93"/>
    </contour>
  </outline>
</glyph>
<glyph name="aavowelsigndeva" format="2">
  <advance width="203"/>
  <unicode hex="093E"/>
  <outline>
    <contour>
      <point x="139" y="554" type="line"/>
      <point x="215" y="554" type="line"/>
      <point x="215" y="622" type="line"/>
      <point x="0" y="622" type="line"/>
      <point x="0" y="554" type="line"/>
      <point x="64" y="554" type="line"/>
      <point x="64" y="0" type="line"/>
      <point x="139" y="0" type="line"/>
    </contour>
  </outline>
</glyph>
<glyph name="iivowelsigndeva" format="2">
  <advance width="203"/>
  <unicode hex="0940"/>
  <outline>
    <contour>
      <point x="-144" y="615" type="curve"/>
      <point x="-71" y="615" type="line"/>
      <point x="-86" y="653"/>
      <point x="-98" y="689"/>
      <point x="-98" y="739" type="curve" smooth="yes"/>
      <point x="-98" y="793"/>
      <point x="-77" y="828"/>
      <point x="-37" y="828" type="curve" smooth="yes"/>
      <point x="10" y="828"/>
      <point x="37" y="760"/>
      <point x="65" y="622" type="curve"/>
      <point x="0" y="622" type="line"/>
      <point x="0" y="554" type="line"/>
      <point x="64" y="554" type="line"/>
      <point x="64" y="0" type="line"/>
      <point x="139" y="0" type="line"/>
      <point x="139" y="554" type="line"/>
      <point x="215" y="554" type="line"/>
      <point x="215" y="622" type="line"/>
      <point x="134" y="622" type="line"/>
      <point x="100" y="812"/>
      <point x="55" y="896"/>
      <point x="-43" y="896" type="curve" smooth="yes"/>
      <point x="-125" y="896"/>
      <point x="-173" y="834"/>
      <point x="-173" y="749" type="curve" smooth="yes"/>
      <point x="-173" y="704"/>
      <point x="-162" y="659"/>
    </contour>
  </outline>
</glyph>
<glyph name="uvowelsigndeva" format="2">
  <unicode hex="0941"/>
  <outline>
    <contour>
      <point x="-203" y="-11" type="curve"/>
      <point x="-175" y="-72" type="line"/>
      <point x="-156" y="-63"/>
      <point x="-139" y="-57"/>
      <point x="-117" y="-57" type="curve" smooth="yes"/>
      <point x="-85" y="-57"/>
      <point x="-55" y="-74"/>
      <point x="-55" y="-128" type="curve" smooth="yes"/>
      <point x="-55" y="-176"/>
      <point x="-84" y="-199"/>
      <point x="-132" y="-199" type="curve" smooth="yes"/>
      <point x="-194" y="-199"/>
      <point x="-236" y="-160"/>
      <point x="-286" y="-70" type="curve"/>
      <point x="-350" y="-102" type="line"/>
      <point x="-296" y="-197"/>
      <point x="-233" y="-268"/>
      <point x="-127" y="-268" type="curve" smooth="yes"/>
      <point x="-36" y="-268"/>
      <point x="15" y="-215"/>
      <point x="15" y="-130" type="curve" smooth="yes"/>
      <point x="15" y="-46"/>
      <point x="-31" y="10"/>
      <point x="-116" y="10" type="curve" smooth="yes"/>
      <point x="-143" y="10"/>
      <point x="-175" y="3"/>
    </contour>
  </outline>
</glyph>
<glyph name="uuvowelsigndeva" format="2">
  <unicode hex="0942"/>
  <outline>
    <contour>
      <point x="-41" y="-247" type="curve"/>
      <point x="-70" y="-184" type="line"/>
      <point x="-89" y="-193"/>
      <point x="-106" y="-199"/>
      <point x="-128" y="-199" type="curve" smooth="yes"/>
      <point x="-160" y="-199"/>
      <point x="-190" y="-183"/>
      <point x="-190" y="-131" type="curve" smooth="yes"/>
      <point x="-190" y="-81"/>
      <point x="-161" y="-57"/>
      <point x="-118" y="-57" type="curve" smooth="yes"/>
      <point x="-47" y="-57"/>
      <point x="-14" y="-109"/>
      <point x="45" y="-223" type="curve"/>
      <point x="108" y="-192" type="line"/>
      <point x="49" y="-82"/>
      <point x="-7" y="10"/>
      <point x="-120" y="10" type="curve" smooth="yes"/>
      <point x="-205" y="10"/>
      <point x="-260" y="-45"/>
      <point x="-260" y="-126" type="curve" smooth="yes"/>
      <point x="-260" y="-208"/>
      <point x="-212" y="-268"/>
      <point x="-127" y="-268" type="curve" smooth="yes"/>
      <point x="-101" y="-268"/>
      <point x="-67" y="-261"/>
    </contour>
  </outline>
</glyph>
<glyph name="rvocalicvowelsigndeva" format="2">
  <unicode hex="0943"/>
  <outline>
    <contour>
      <point x="28" y="-240" type="curve"/>
      <point x="-1" y="-176" type="line"/>
      <point x="-27" y="-190"/>
      <point x="-47" y="-199"/>
      <point x="-80" y="-199" type="curve" smooth="yes"/>
      <point x="-110" y="-199"/>
      <point x="-142" y="-180"/>
      <point x="-142" y="-131" type="curve" smooth="yes"/>
      <point x="-142" y="-84"/>
      <point x="-106" y="-55"/>
      <point x="-57" y="-43" type="curve"/>
      <point x="-67" y="24" type="line"/>
      <point x="-159" y="7"/>
      <point x="-213" y="-47"/>
      <point x="-213" y="-129" type="curve" smooth="yes"/>
      <point x="-213" y="-210"/>
      <point x="-164" y="-268"/>
      <point x="-79" y="-268" type="curve" smooth="yes"/>
      <point x="-33" y="-268"/>
      <point x="-5" y="-256"/>
    </contour>
  </outline>
</glyph>
<glyph name="rrvocalicvowelsigndeva" format="2">
  <unicode hex="0944"/>
  <outline>
    <contour>
      <point x="28" y="-210" type="curve"/>
      <point x="0" y="-147" type="line"/>
      <point x="-32" y="-165"/>
      <point x="-53" y="-171"/>
      <point x="-80" y="-171" type="curve" smooth="yes"/>
      <point x="-114" y="-171"/>
      <point x="-141" y="-156"/>
      <point x="-141" y="-117" type="curve" smooth="yes"/>
      <point x="-141" y="-83"/>
      <point x="-117" y="-57"/>
      <point x="-57" y="-43" type="curve"/>
      <point x="-67" y="24" type="line"/>
      <point x="-171" y="6"/>
      <point x="-213" y="-51"/>
      <point x="-213" y="-114" type="curve" smooth="yes"/>
      <point x="-213" y="-198"/>
      <point x="-154" y="-238"/>
      <point x="-79" y="-238" type="curve" smooth="yes"/>
      <point x="-38" y="-238"/>
      <point x="-4" y="-227"/>
    </contour>
    <contour>
      <point x="65" y="-366" type="curve"/>
      <point x="37" y="-303" type="line"/>
      <point x="5" y="-321"/>
      <point x="-16" y="-327"/>
      <point x="-43" y="-327" type="curve" smooth="yes"/>
      <point x="-77" y="-327"/>
      <point x="-104" y="-312"/>
      <point x="-104" y="-273" type="curve" smooth="yes"/>
      <point x="-104" y="-254"/>
      <point x="-97" y="-239"/>
      <point x="-85" y="-223" type="curve"/>
      <point x="-152" y="-196" type="line"/>
      <point x="-168" y="-220"/>
      <point x="-176" y="-243"/>
      <point x="-176" y="-270" type="curve" smooth="yes"/>
      <point x="-176" y="-354"/>
      <point x="-117" y="-394"/>
      <point x="-42" y="-394" type="curve" smooth="yes"/>
      <point x="-1" y="-394"/>
      <point x="33" y="-383"/>
    </contour>
  </outline>
</glyph>
<glyph name="ecandravowelsigndeva" format="2">
  <unicode hex="0945"/>
  <outline>
    <contour>
      <point x="47" y="868" type="curve"/>
      <point x="-20" y="887" type="line"/>
      <point x="-35" y="797"/>
      <point x="-53" y="746"/>
      <point x="-110" y="746" type="curve" smooth="yes"/>
      <point x="-165" y="746"/>
      <point x="-191" y="792"/>
      <point x="-214" y="886" type="curve"/>
      <point x="-277" y="868" type="line"/>
      <point x="-247" y="738"/>
      <point x="-185" y="681"/>
      <point x="-112" y="681" type="curve" smooth="yes"/>
      <point x="-28" y="681"/>
      <point x="27" y="734"/>
    </contour>
  </outline>
</glyph>
<glyph name="eshortvowelsigndeva" format="2">
  <unicode hex="0946"/>
  <outline>
    <contour>
      <point x="-137" y="615" type="curve"/>
      <point x="-69" y="615" type="line"/>
      <point x="-95" y="774"/>
      <point x="-125" y="811"/>
      <point x="-179" y="811" type="curve" smooth="yes"/>
      <point x="-199" y="811"/>
      <point x="-213" y="807"/>
      <point x="-231" y="807" type="curve" smooth="yes"/>
      <point x="-265" y="807"/>
      <point x="-277" y="826"/>
      <point x="-299" y="896" type="curve"/>
      <point x="-360" y="879" type="line"/>
      <point x="-331" y="762"/>
      <point x="-288" y="739"/>
      <point x="-244" y="739" type="curve" smooth="yes"/>
      <point x="-229" y="739"/>
      <point x="-214" y="741"/>
      <point x="-201" y="741" type="curve" smooth="yes"/>
      <point x="-167" y="741"/>
      <point x="-154" y="711"/>
    </contour>
  </outline>
</glyph>
<glyph name="evowelsigndeva" format="2">
  <unicode hex="0947"/>
  <outline>
    <contour>
      <point x="-137" y="615" type="curve"/>
      <point x="-69" y="615" type="line"/>
      <point x="-104" y="825"/>
      <point x="-155" y="896"/>
      <point x="-245" y="896" type="curve" smooth="yes"/>
      <point x="-268" y="896"/>
      <point x="-288" y="892"/>
      <point x="-311" y="885" type="curve"/>
      <point x="-291" y="815" type="line"/>
      <point x="-275" y="822"/>
      <point x="-260" y="825"/>
      <point x="-242" y="825" type="curve" smooth="yes"/>
      <point x="-195" y="825"/>
      <point x="-166" y="775"/>
    </contour>
  </outline>
</glyph>
<glyph name="aivowelsigndeva" format="2">
  <unicode hex="0948"/>
  <outline>
    <contour>
      <point x="-142" y="615" type="curve"/>
      <point x="-69" y="615" type="line"/>
      <point x="-104" y="825"/>
      <point x="-155" y="896"/>
      <point x="-245" y="896" type="curve" smooth="yes"/>
      <point x="-268" y="896"/>
      <point x="-288" y="892"/>
      <point x="-311" y="885" type="curve"/>
      <point x="-292" y="818" type="line"/>
      <point x="-276" y="825"/>
      <point x="-260" y="828"/>
      <point x="-242" y="828" type="curve" smooth="yes"/>
      <point x="-199" y="827"/>
      <point x="-177" y="795"/>
      <point x="-143" y="690" type="curve"/>
      <point x="-148" y="689" type="line"/>
      <point x="-176" y="749"/>
      <point x="-206" y="773"/>
      <point x="-253" y="773" type="curve" smooth="yes"/>
      <point x="-274" y="773"/>
      <point x="-300" y="769"/>
      <point x="-323" y="760" type="curve"/>
      <point x="-301" y="693" type="line"/>
      <point x="-284" y="701"/>
      <point x="-264" y="704"/>
      <point x="-248" y="704" type="curve" smooth="yes"/>
      <point x="-208" y="704"/>
      <point x="-184" y="688"/>
    </contour>
  </outline>
</glyph>
<glyph name="viramadeva" format="2">
  <unicode hex="094D"/>
  <outline>
    <contour>
      <point x="-147" y="-44" type="curve"/>
      <point x="-135" y="-112" type="line"/>
      <point x="-125" y="-110"/>
      <point x="-114" y="-109"/>
      <point x="-105" y="-109" type="curve" smooth="yes"/>
      <point x="-41" y="-109"/>
      <point x="-7" y="-157"/>
      <point x="51" y="-268" type="curve"/>
      <point x="114" y="-239" type="line"/>
      <point x="55" y="-125"/>
      <point x="-6" y="-40"/>
      <point x="-107" y="-40" type="curve" smooth="yes"/>
      <point x="-118" y="-40"/>
      <point x="-134" y="-41"/>
    </contour>
  </outline>
</glyph>
<glyph name="uni094E" format="2">
  <advance width="213"/>
  <unicode hex="094E"/>
  <outline>
    <contour>
      <point x="149" y="554" type="line"/>
      <point x="225" y="554" type="line"/>
      <point x="225" y="622" type="line"/>
      <point x="74" y="622" type="line"/>
      <point x="74" y="0" type="line"/>
      <point x="149" y="0" type="line"/>
    </contour>
  </outline>
</glyph>
<glyph name="omdeva" format="2">
  <advance width="688"/>
  <unicode hex="0950"/>
  <outline>
    <contour>
      <point x="281" y="394" type="curve"/>
      <point x="253" y="348" type="line"/>
      <point x="274" y="306"/>
      <point x="306" y="278"/>
      <point x="354" y="278" type="curve" smooth="yes"/>
      <point x="400" y="278"/>
      <point x="427" y="302"/>
      <point x="454" y="366" type="curve" smooth="yes"/>
      <point x="479" y="426" type="line" smooth="yes"/>
      <point x="494" y="462"/>
      <point x="508" y="479"/>
      <point x="530" y="479" type="curve" smooth="yes"/>
      <point x="559" y="479"/>
      <point x="580" y="448"/>
      <point x="580" y="370" type="curve" smooth="yes"/>
      <point x="580" y="293"/>
      <point x="556" y="261"/>
      <point x="514" y="261" type="curve" smooth="yes"/>
      <point x="489" y="261"/>
      <point x="472" y="274"/>
      <point x="448" y="298" type="curve"/>
      <point x="403" y="249" type="line"/>
      <point x="436" y="214"/>
      <point x="470" y="194"/>
      <point x="523" y="194" type="curve" smooth="yes"/>
      <point x="608" y="194"/>
      <point x="655" y="258"/>
      <point x="655" y="370" type="curve" smooth="yes"/>
      <point x="655" y="500"/>
      <point x="598" y="547"/>
      <point x="532" y="547" type="curve" smooth="yes"/>
      <point x="474" y="547"/>
      <point x="441" y="516"/>
      <point x="416" y="459" type="curve" smooth="yes"/>
      <point x="385" y="389" type="line" smooth="yes"/>
      <point x="371" y="357"/>
      <point x="357" y="344"/>
      <point x="336" y="344" type="curve" smooth="yes"/>
      <point x="313" y="344"/>
      <point x="303" y="357"/>
    </contour>
    <contour>
      <point x="94" y="603" type="curve"/>
      <point x="119" y="537" type="line"/>
      <point x="147" y="553"/>
      <point x="176" y="563"/>
      <point x="203" y="563" type="curve" smooth="yes"/>
      <point x="249" y="563"/>
      <point x="275" y="538"/>
      <point x="275" y="494" type="curve" smooth="yes"/>
      <point x="275" y="447"/>
      <point x="241" y="418"/>
      <point x="177" y="411" type="curve"/>
      <point x="185" y="344" type="line"/>
      <point x="266" y="351"/>
      <point x="349" y="398"/>
      <point x="349" y="495" type="curve" smooth="yes"/>
      <point x="349" y="576"/>
      <point x="300" y="632"/>
      <point x="213" y="632" type="curve" smooth="yes"/>
      <point x="166" y="632"/>
      <point x="134" y="621"/>
    </contour>
    <contour>
      <point x="356" y="208" type="curve" smooth="yes"/>
      <point x="356" y="257"/>
      <point x="339" y="304"/>
      <point x="314" y="342" type="curve"/>
      <point x="286" y="379" type="line"/>
      <point x="206" y="374" type="line"/>
      <point x="245" y="336"/>
      <point x="283" y="280"/>
      <point x="283" y="215" type="curve" smooth="yes"/>
      <point x="283" y="173"/>
      <point x="262" y="151"/>
      <point x="230" y="151" type="curve" smooth="yes"/>
      <point x="168" y="151"/>
      <point x="128" y="235"/>
      <point x="89" y="374" type="curve"/>
      <point x="21" y="356" type="line"/>
      <point x="80" y="157"/>
      <point x="136" y="82"/>
      <point x="236" y="82" type="curve" smooth="yes"/>
      <point x="309" y="82"/>
      <point x="356" y="127"/>
    </contour>
    <contour>
      <point x="374" y="818" type="curve" smooth="yes"/>
      <point x="374" y="790"/>
      <point x="392" y="771"/>
      <point x="414" y="771" type="curve" smooth="yes"/>
      <point x="438" y="771"/>
      <point x="455" y="790"/>
      <point x="455" y="818" type="curve" smooth="yes"/>
      <point x="455" y="846"/>
      <point x="438" y="864"/>
      <point x="414" y="864" type="curve" smooth="yes"/>
      <point x="392" y="864"/>
      <point x="374" y="846"/>
    </contour>
    <contour>
      <point x="575" y="837" type="curve"/>
      <point x="509" y="856" type="line"/>
      <point x="494" y="766"/>
      <point x="476" y="714"/>
      <point x="418" y="714" type="curve" smooth="yes"/>
      <point x="362" y="714"/>
      <point x="336" y="761"/>
      <point x="313" y="855" type="curve"/>
      <point x="251" y="837" type="line"/>
      <point x="281" y="707"/>
      <point x="343" y="650"/>
      <point x="416" y="650" type="curve" smooth="yes"/>
      <point x="500" y="650"/>
      <point x="555" y="703"/>
    </contour>
  </outline>
</glyph>
<glyph name="udattadeva" format="2">
  <unicode hex="0951"/>
  <outline>
    <contour>
      <point x="-71" y="671" type="line"/>
      <point x="-71" y="872" type="line"/>
      <point x="-132" y="872" type="line"/>
      <point x="-132" y="671" type="line"/>
    </contour>
  </outline>
</glyph>
<glyph name="anudattadeva" format="2">
  <unicode hex="0952"/>
  <outline>
    <contour>
      <point x="-319" y="-79" type="line"/>
      <point x="-319" y="-146" type="line"/>
      <point x="-60" y="-146" type="line"/>
      <point x="-60" y="-79" type="line"/>
    </contour>
  </outline>
</glyph>
<glyph name="uni0954" format="2">
  <unicode hex="0954"/>
  <outline>
    <contour>
      <point x="1" y="873" type="line"/>
      <point x="-90" y="873" type="line"/>
      <point x="-142" y="683" type="line"/>
      <point x="-81" y="683" type="line"/>
    </contour>
  </outline>
</glyph>
<glyph name="candralongevowelsigndeva" format="2">
  <unicode hex="0955"/>
  <outline>
    <contour>
      <point x="-238" y="718" type="line"/>
      <point x="-238" y="657" type="line"/>
      <point x="10" y="657" type="line"/>
      <point x="10" y="718" type="line"/>
    </contour>
    <contour>
      <point x="29" y="878" type="curve"/>
      <point x="-35" y="896" type="line"/>
      <point x="-45" y="830"/>
      <point x="-66" y="796"/>
      <point x="-114" y="796" type="curve" smooth="yes"/>
      <point x="-158" y="796"/>
      <point x="-182" y="825"/>
      <point x="-202" y="895" type="curve"/>
      <point x="-263" y="878" type="line"/>
      <point x="-235" y="780"/>
      <point x="-185" y="731"/>
      <point x="-115" y="731" type="curve" smooth="yes"/>
      <point x="-39" y="731"/>
      <point x="10" y="773"/>
    </contour>
  </outline>
</glyph>
<glyph name="uevowelsigndeva" format="2">
  <unicode hex="0956"/>
  <outline>
    <contour>
      <point x="-226" y="-180" type="curve" smooth="yes"/>
      <point x="-168" y="-180"/>
      <point x="-116" y="-161"/>
      <point x="-77" y="-132" type="curve"/>
      <point x="-96" y="-67" type="line"/>
      <point x="-139" y="-102"/>
      <point x="-178" y="-112"/>
      <point x="-226" y="-112" type="curve" smooth="yes"/>
      <point x="-280" y="-112"/>
      <point x="-319" y="-96"/>
      <point x="-356" y="-67" type="curve"/>
      <point x="-375" y="-132" type="line"/>
      <point x="-335" y="-161"/>
      <point x="-282" y="-180"/>
    </contour>
  </outline>
</glyph>
<glyph name="uuevowelsigndeva" format="2">
  <unicode hex="0957"/>
  <outline>
    <contour>
      <point x="-226" y="-149" type="curve" smooth="yes"/>
      <point x="-168" y="-149"/>
      <point x="-116" y="-130"/>
      <point x="-77" y="-101" type="curve"/>
      <point x="-96" y="-36" type="line"/>
      <point x="-139" y="-71"/>
      <point x="-178" y="-81"/>
      <point x="-226" y="-81" type="curve" smooth="yes"/>
      <point x="-280" y="-81"/>
      <point x="-319" y="-65"/>
      <point x="-356" y="-36" type="curve"/>
      <point x="-375" y="-101" type="line"/>
      <point x="-335" y="-130"/>
      <point x="-282" y="-149"/>
    </contour>
    <contour>
      <point x="-226" y="-267" type="curve" smooth="yes"/>
      <point x="-165" y="-267"/>
      <point x="-123" y="-254"/>
      <point x="-77" y="-228" type="curve"/>
      <point x="-95" y="-165" type="line"/>
      <point x="-139" y="-190"/>
      <point x="-177" y="-198"/>
      <point x="-226" y="-198" type="curve" smooth="yes"/>
      <point x="-281" y="-198"/>
      <point x="-320" y="-186"/>
      <point x="-357" y="-165" type="curve"/>
      <point x="-375" y="-228" type="line"/>
      <point x="-336" y="-251"/>
      <point x="-290" y="-267"/>
    </contour>
  </outline>
</glyph>
<glyph name="rrvocalicdeva" format="2">
  <advance width="637"/>
  <unicode hex="0960"/>
  <outline>
    <contour>
      <point x="353" y="554" type="line"/>
      <point x="649" y="554" type="line"/>
      <point x="649" y="622" type="line"/>
      <point x="0" y="622" type="line"/>
      <point x="0" y="554" type="line"/>
      <point x="278" y="554" type="line"/>
      <point x="278" y="0" type="line"/>
      <point x="353" y="0" type="line"/>
    </contour>
    <contour>
      <point x="16" y="419" type="curve"/>
      <point x="43" y="353" type="line"/>
      <point x="73" y="370"/>
      <point x="98" y="379"/>
      <point x="122" y="379" type="curve" smooth="yes"/>
      <point x="166" y="379"/>
      <point x="179" y="361"/>
      <point x="247" y="260" type="curve"/>
      <point x="291" y="274" type="line"/>
      <point x="292" y="304" type="line"/>
      <point x="224" y="416"/>
      <point x="197" y="450"/>
      <point x="124" y="450" type="curve" smooth="yes"/>
      <point x="87" y="450"/>
      <point x="56" y="439"/>
    </contour>
    <contour>
      <point x="104" y="81" type="line"/>
      <point x="307" y="261" type="line"/>
      <point x="262" y="307" type="line"/>
      <point x="53" y="141" type="line"/>
    </contour>
    <contour>
      <point x="338" y="328" type="curve"/>
      <point x="344" y="263" type="line"/>
      <point x="383" y="265"/>
      <point x="429" y="275"/>
      <point x="457" y="285" type="curve"/>
      <point x="467" y="257"/>
      <point x="487" y="212"/>
      <point x="500" y="187" type="curve"/>
      <point x="545" y="189" type="line"/>
      <point x="558" y="219" type="line"/>
      <point x="543" y="244"/>
      <point x="529" y="273"/>
      <point x="515" y="305" type="curve"/>
      <point x="537" y="317"/>
      <point x="552" y="337"/>
      <point x="552" y="371" type="curve" smooth="yes"/>
      <point x="552" y="414"/>
      <point x="529" y="448"/>
      <point x="485" y="448" type="curve" smooth="yes"/>
      <point x="456" y="448"/>
      <point x="430" y="428"/>
      <point x="430" y="387" type="curve" smooth="yes"/>
      <point x="430" y="370"/>
      <point x="434" y="354"/>
      <point x="439" y="338" type="curve"/>
      <point x="443" y="347" type="line"/>
      <point x="419" y="337"/>
      <point x="373" y="330"/>
    </contour>
    <contour>
      <point x="642" y="25" type="curve"/>
      <point x="614" y="88" type="line"/>
      <point x="582" y="70"/>
      <point x="561" y="64"/>
      <point x="534" y="64" type="curve" smooth="yes"/>
      <point x="500" y="64"/>
      <point x="473" y="79"/>
      <point x="473" y="118" type="curve" smooth="yes"/>
      <point x="473" y="152"/>
      <point x="497" y="175"/>
      <point x="545" y="189" type="curve"/>
      <point x="510" y="250" type="line"/>
      <point x="433" y="226"/>
      <point x="401" y="176"/>
      <point x="401" y="121" type="curve" smooth="yes"/>
      <point x="401" y="37"/>
      <point x="460" y="-3"/>
      <point x="535" y="-3" type="curve" smooth="yes"/>
      <point x="576" y="-3"/>
      <point x="610" y="8"/>
    </contour>
    <contour>
      <point x="679" y="-131" type="curve"/>
      <point x="651" y="-68" type="line"/>
      <point x="619" y="-86"/>
      <point x="598" y="-92"/>
      <point x="571" y="-92" type="curve" smooth="yes"/>
      <point x="537" y="-92"/>
      <point x="510" y="-77"/>
      <point x="510" y="-38" type="curve" smooth="yes"/>
      <point x="510" y="-19"/>
      <point x="517" y="-4"/>
      <point x="529" y="12" type="curve"/>
      <point x="462" y="39" type="line"/>
      <point x="446" y="15"/>
      <point x="438" y="-8"/>
      <point x="438" y="-35" type="curve" smooth="yes"/>
      <point x="438" y="-119"/>
      <point x="497" y="-159"/>
      <point x="572" y="-159" type="curve" smooth="yes"/>
      <point x="613" y="-159"/>
      <point x="647" y="-148"/>
    </contour>
  </outline>
</glyph>
<glyph name="llvocalicdeva" format="2">
  <advance width="525"/>
  <unicode hex="0961"/>
  <outline>
    <contour>
      <point x="578" y="-170" type="curve"/>
      <point x="550" y="-107" type="line"/>
      <point x="518" y="-125"/>
      <point x="497" y="-131"/>
      <point x="470" y="-131" type="curve" smooth="yes"/>
      <point x="436" y="-131"/>
      <point x="409" y="-116"/>
      <point x="409" y="-77" type="curve" smooth="yes"/>
      <point x="409" y="-58"/>
      <point x="416" y="-43"/>
      <point x="428" y="-27" type="curve"/>
      <point x="361" y="0" type="line"/>
      <point x="345" y="-24"/>
      <point x="337" y="-47"/>
      <point x="337" y="-74" type="curve" smooth="yes"/>
      <point x="337" y="-158"/>
      <point x="396" y="-198"/>
      <point x="471" y="-198" type="curve" smooth="yes"/>
      <point x="512" y="-198"/>
      <point x="546" y="-187"/>
    </contour>
    <contour>
      <point x="541" y="-14" type="curve"/>
      <point x="513" y="49" type="line"/>
      <point x="481" y="31"/>
      <point x="460" y="25"/>
      <point x="433" y="25" type="curve" smooth="yes"/>
      <point x="399" y="25"/>
      <point x="372" y="40"/>
      <point x="372" y="79" type="curve" smooth="yes"/>
      <point x="372" y="121"/>
      <point x="408" y="145"/>
      <point x="474" y="157" type="curve"/>
      <point x="446" y="220" type="line"/>
      <point x="342" y="202"/>
      <point x="300" y="145"/>
      <point x="300" y="82" type="curve" smooth="yes"/>
      <point x="300" y="-2"/>
      <point x="359" y="-42"/>
      <point x="434" y="-42" type="curve" smooth="yes"/>
      <point x="475" y="-42"/>
      <point x="509" y="-31"/>
    </contour>
    <contour>
      <point x="492" y="273" type="curve" smooth="yes"/>
      <point x="492" y="386"/>
      <point x="439" y="426"/>
      <point x="373" y="426" type="curve" smooth="yes"/>
      <point x="284" y="426"/>
      <point x="226" y="368"/>
      <point x="202" y="230" type="curve"/>
      <point x="274" y="212" type="line"/>
      <point x="294" y="337"/>
      <point x="333" y="359"/>
      <point x="367" y="359" type="curve" smooth="yes"/>
      <point x="397" y="359"/>
      <point x="417" y="340"/>
      <point x="417" y="276" type="curve" smooth="yes"/>
      <point x="417" y="240"/>
      <point x="411" y="207"/>
      <point x="400" y="174" type="curve"/>
      <point x="474" y="157" type="line"/>
      <point x="486" y="191"/>
      <point x="492" y="233"/>
    </contour>
    <contour>
      <point x="159" y="426" type="curve" smooth="yes"/>
      <point x="92" y="426"/>
      <point x="32" y="379"/>
      <point x="32" y="283" type="curve" smooth="yes"/>
      <point x="32" y="188"/>
      <point x="92" y="88"/>
      <point x="171" y="-12" type="curve"/>
      <point x="227" y="30" type="line"/>
      <point x="149" y="132"/>
      <point x="107" y="198"/>
      <point x="107" y="280" type="curve" smooth="yes"/>
      <point x="107" y="324"/>
      <point x="127" y="356"/>
      <point x="168" y="356" type="curve" smooth="yes"/>
      <point x="203" y="356"/>
      <point x="228" y="329"/>
      <point x="248" y="296" type="curve"/>
      <point x="285" y="358" type="line"/>
      <point x="242" y="403"/>
      <point x="210" y="426"/>
    </contour>
    <contour>
      <point x="342" y="554" type="line"/>
      <point x="342" y="414" type="line"/>
      <point x="416" y="380" type="line"/>
      <point x="416" y="554" type="line"/>
      <point x="537" y="554" type="line"/>
      <point x="537" y="622" type="line"/>
      <point x="0" y="622" type="line"/>
      <point x="0" y="554" type="line"/>
    </contour>
  </outline>
</glyph>
<glyph name="lvocalicvowelsigndeva" format="2">
  <unicode hex="0962"/>
  <outline>
    <contour>
      <point x="-182" y="-99" type="curve"/>
      <point x="-150" y="-49" type="line"/>
      <point x="-185" y="-14"/>
      <point x="-212" y="0"/>
      <point x="-250" y="0" type="curve" smooth="yes"/>
      <point x="-299" y="0"/>
      <point x="-349" y="-35"/>
      <point x="-349" y="-112" type="curve" smooth="yes"/>
      <point x="-349" y="-189"/>
      <point x="-294" y="-265"/>
      <point x="-236" y="-337" type="curve"/>
      <point x="-186" y="-298" type="line"/>
      <point x="-244" y="-230"/>
      <point x="-284" y="-174"/>
      <point x="-284" y="-116" type="curve" smooth="yes"/>
      <point x="-284" y="-88"/>
      <point x="-269" y="-62"/>
      <point x="-239" y="-62" type="curve" smooth="yes"/>
      <point x="-218" y="-62"/>
      <point x="-201" y="-75"/>
    </contour>
    <contour>
      <point x="-76" y="0" type="curve" smooth="yes"/>
      <point x="-151" y="0"/>
      <point x="-199" y="-56"/>
      <point x="-214" y="-160" type="curve"/>
      <point x="-152" y="-174" type="line"/>
      <point x="-137" y="-81"/>
      <point x="-105" y="-60"/>
      <point x="-82" y="-60" type="curve" smooth="yes"/>
      <point x="-60" y="-60"/>
      <point x="-45" y="-78"/>
      <point x="-45" y="-117" type="curve" smooth="yes"/>
      <point x="-45" y="-144"/>
      <point x="-52" y="-164"/>
      <point x="-60" y="-188" type="curve"/>
      <point x="-18" y="-163" type="line"/>
      <point x="-90" y="-181"/>
      <point x="-129" y="-224"/>
      <point x="-129" y="-282" type="curve" smooth="yes"/>
      <point x="-129" y="-347"/>
      <point x="-92" y="-394"/>
      <point x="-28" y="-394" type="curve" smooth="yes"/>
      <point x="5" y="-394"/>
      <point x="26" y="-387"/>
      <point x="51" y="-374" type="curve"/>
      <point x="33" y="-319" type="line"/>
      <point x="13" y="-330"/>
      <point x="-2" y="-335"/>
      <point x="-22" y="-335" type="curve" smooth="yes"/>
      <point x="-51" y="-335"/>
      <point x="-69" y="-318"/>
      <point x="-69" y="-289" type="curve" smooth="yes"/>
      <point x="-69" y="-253"/>
      <point x="-44" y="-231"/>
      <point x="1" y="-218" type="curve"/>
      <point x="12" y="-187"/>
      <point x="20" y="-152"/>
      <point x="20" y="-114" type="curve" smooth="yes"/>
      <point x="20" y="-31"/>
      <point x="-27" y="0"/>
    </contour>
  </outline>
</glyph>
<glyph name="llvocalicvowelsigndeva" format="2">
  <unicode hex="0963"/>
  <outline>
    <contour>
      <point x="5" y="-277" type="curve" smooth="yes"/>
      <point x="38" y="-277"/>
      <point x="59" y="-270"/>
      <point x="84" y="-257" type="curve"/>
      <point x="66" y="-202" type="line"/>
      <point x="46" y="-213"/>
      <point x="31" y="-218"/>
      <point x="11" y="-218" type="curve" smooth="yes"/>
      <point x="-16" y="-218"/>
      <point x="-36" y="-203"/>
      <point x="-36" y="-177" type="curve" smooth="yes"/>
      <point x="-36" y="-154"/>
      <point x="-22" y="-135"/>
      <point x="19" y="-127" type="curve"/>
      <point x="20" y="-122"/>
      <point x="20" y="-117"/>
      <point x="20" y="-114" type="curve" smooth="yes"/>
      <point x="20" y="-31"/>
      <point x="-27" y="0"/>
      <point x="-76" y="0" type="curve" smooth="yes"/>
      <point x="-151" y="0"/>
      <point x="-199" y="-56"/>
      <point x="-214" y="-160" type="curve"/>
      <point x="-152" y="-174" type="line"/>
      <point x="-137" y="-81"/>
      <point x="-105" y="-60"/>
      <point x="-82" y="-60" type="curve" smooth="yes"/>
      <point x="-59" y="-60"/>
      <point x="-46" y="-77"/>
      <point x="-44" y="-115" type="curve"/>
      <point x="-23" y="-80" type="line"/>
      <point x="-73" y="-97"/>
      <point x="-95" y="-135"/>
      <point x="-95" y="-173" type="curve" smooth="yes"/>
      <point x="-95" y="-244"/>
      <point x="-41" y="-277"/>
    </contour>
    <contour>
      <point x="-250" y="0" type="curve" smooth="yes"/>
      <point x="-299" y="0"/>
      <point x="-349" y="-35"/>
      <point x="-349" y="-112" type="curve" smooth="yes"/>
      <point x="-349" y="-189"/>
      <point x="-294" y="-265"/>
      <point x="-236" y="-337" type="curve"/>
      <point x="-186" y="-298" type="line"/>
      <point x="-244" y="-230"/>
      <point x="-284" y="-174"/>
      <point x="-284" y="-116" type="curve" smooth="yes"/>
      <point x="-284" y="-88"/>
      <point x="-269" y="-62"/>
      <point x="-239" y="-62" type="curve" smooth="yes"/>
      <point x="-218" y="-62"/>
      <point x="-201" y="-75"/>
      <point x="-182" y="-99" type="curve"/>
      <point x="-150" y="-49" type="line"/>
      <point x="-185" y="-14"/>
      <point x="-212" y="0"/>
    </contour>
    <contour>
      <point x="36" y="-394" type="curve" smooth="yes"/>
      <point x="69" y="-394"/>
      <point x="90" y="-387"/>
      <point x="115" y="-374" type="curve"/>
      <point x="97" y="-319" type="line"/>
      <point x="77" y="-330"/>
      <point x="62" y="-335"/>
      <point x="42" y="-335" type="curve" smooth="yes"/>
      <point x="15" y="-335"/>
      <point x="-5" y="-320"/>
      <point x="-5" y="-294" type="curve" smooth="yes"/>
      <point x="-5" y="-280"/>
      <point x="1" y="-270"/>
      <point x="5" y="-266" type="curve"/>
      <point x="-49" y="-239" type="line"/>
      <point x="-59" y="-256"/>
      <point x="-64" y="-271"/>
      <point x="-64" y="-290" type="curve" smooth="yes"/>
      <point x="-64" y="-361"/>
      <point x="-10" y="-394"/>
    </contour>
  </outline>
</glyph>
<glyph name="dandadeva" format="2">
  <advance width="356"/>
  <unicode hex="0964"/>
  <outline>
    <contour>
      <point x="179" y="622" type="line"/>
      <point x="179" y="0" type="line"/>
      <point x="254" y="0" type="line"/>
      <point x="254" y="622" type="line"/>
    </contour>
  </outline>
</glyph>
<glyph name="zerodeva" format="2">
  <advance width="411"/>
  <unicode hex="0966"/>
  <outline>
    <contour>
      <point x="204" y="122" type="curve" smooth="yes"/>
      <point x="302" y="122"/>
      <point x="371" y="196"/>
      <point x="371" y="319" type="curve" smooth="yes"/>
      <point x="371" y="441"/>
      <point x="304" y="519"/>
      <point x="205" y="519" type="curve" smooth="yes"/>
      <point x="107" y="519"/>
      <point x="39" y="442"/>
      <point x="39" y="321" type="curve" smooth="yes"/>
      <point x="39" y="200"/>
      <point x="106" y="122"/>
    </contour>
    <contour>
      <point x="203" y="191" type="curve" smooth="yes"/>
      <point x="145" y="191"/>
      <point x="115" y="242"/>
      <point x="115" y="319" type="curve" smooth="yes"/>
      <point x="115" y="398"/>
      <point x="149" y="450"/>
      <point x="206" y="450" type="curve" smooth="yes"/>
      <point x="263" y="450"/>
      <point x="295" y="401"/>
      <point x="295" y="323" type="curve" smooth="yes"/>
      <point x="295" y="244"/>
      <point x="262" y="191"/>
    </contour>
  </outline>
</glyph>
<glyph name="onedeva" format="2">
  <advance width="411"/>
  <unicode hex="0967"/>
  <outline>
    <contour>
      <point x="205" y="632" type="curve" smooth="yes"/>
      <point x="115" y="632"/>
      <point x="77" y="571"/>
      <point x="77" y="517" type="curve" smooth="yes"/>
      <point x="77" y="449"/>
      <point x="121" y="411"/>
      <point x="168" y="385" type="curve"/>
      <point x="215" y="441" type="line"/>
      <point x="174" y="457"/>
      <point x="149" y="481"/>
      <point x="149" y="514" type="curve" smooth="yes"/>
      <point x="149" y="546"/>
      <point x="169" y="565"/>
      <point x="202" y="565" type="curve" smooth="yes"/>
      <point x="235" y="565"/>
      <point x="261" y="543"/>
      <point x="261" y="499" type="curve" smooth="yes"/>
      <point x="261" y="430"/>
      <point x="207" y="370"/>
      <point x="85" y="277" type="curve"/>
      <point x="79" y="254" type="line"/>
      <point x="221" y="109" type="line" smooth="yes"/>
      <point x="253" y="77"/>
      <point x="263" y="57"/>
      <point x="263" y="28" type="curve" smooth="yes"/>
      <point x="263" y="0"/>
      <point x="252" y="-16"/>
      <point x="236" y="-35" type="curve"/>
      <point x="297" y="-78" type="line"/>
      <point x="325" y="-43"/>
      <point x="340" y="-7"/>
      <point x="340" y="34" type="curve" smooth="yes"/>
      <point x="340" y="81"/>
      <point x="315" y="122"/>
      <point x="269" y="168" type="curve" smooth="yes"/>
      <point x="155" y="281" type="line"/>
      <point x="150" y="233" type="line"/>
      <point x="291" y="343"/>
      <point x="337" y="416"/>
      <point x="337" y="500" type="curve" smooth="yes"/>
      <point x="337" y="576"/>
      <point x="289" y="632"/>
    </contour>
  </outline>
</glyph>
<glyph name="twodeva" format="2">
  <advance width="411"/>
  <unicode hex="0968"/>
  <outline>
    <contour>
      <point x="153" y="280" type="curve"/>
      <point x="154" y="234" type="line"/>
      <point x="199" y="187"/>
      <point x="254" y="97"/>
      <point x="314" y="-11" type="curve"/>
      <point x="379" y="24" type="line"/>
      <point x="339" y="95"/>
      <point x="268" y="208"/>
      <point x="217" y="259" type="curve"/>
      <point x="210" y="274" type="line"/>
      <point x="174" y="315"/>
      <point x="151" y="324"/>
      <point x="123" y="324" type="curve" smooth="yes"/>
      <point x="94" y="324"/>
      <point x="68" y="306"/>
      <point x="68" y="271" type="curve" smooth="yes"/>
      <point x="68" y="230"/>
      <point x="97" y="206"/>
      <point x="141" y="206" type="curve" smooth="yes"/>
      <point x="262" y="206"/>
      <point x="352" y="306"/>
      <point x="352" y="436" type="curve" smooth="yes"/>
      <point x="352" y="568"/>
      <point x="280" y="632"/>
      <point x="184" y="632" type="curve" smooth="yes"/>
      <point x="130" y="632"/>
      <point x="91" y="621"/>
      <point x="52" y="604" type="curve"/>
      <point x="77" y="540" type="line"/>
      <point x="104" y="554"/>
      <point x="139" y="564"/>
      <point x="173" y="564" type="curve" smooth="yes"/>
      <point x="233" y="564"/>
      <point x="273" y="524"/>
      <point x="273" y="439" type="curve" smooth="yes"/>
      <point x="273" y="347"/>
      <point x="213" y="282"/>
    </contour>
  </outline>
</glyph>
<glyph name="threedeva" format="2">
  <advance width="411"/>
  <unicode hex="0969"/>
  <outline>
    <contour>
      <point x="166" y="157" type="curve"/>
      <point x="160" y="122" type="line"/>
      <point x="196" y="78"/>
      <point x="234" y="17"/>
      <point x="282" y="-66" type="curve"/>
      <point x="346" y="-31" type="line"/>
      <point x="306" y="32"/>
      <point x="260" y="96"/>
      <point x="221" y="141" type="curve"/>
      <point x="216" y="155" type="line"/>
      <point x="178" y="200"/>
      <point x="148" y="206"/>
      <point x="126" y="206" type="curve" smooth="yes"/>
      <point x="95" y="206"/>
      <point x="71" y="189"/>
      <point x="71" y="153" type="curve" smooth="yes"/>
      <point x="71" y="114"/>
      <point x="102" y="88"/>
      <point x="154" y="88" type="curve" smooth="yes"/>
      <point x="270" y="88"/>
      <point x="355" y="155"/>
      <point x="355" y="253" type="curve" smooth="yes"/>
      <point x="355" y="326"/>
      <point x="315" y="379"/>
      <point x="241" y="396" type="curve"/>
      <point x="185" y="351" type="line"/>
      <point x="236" y="346"/>
      <point x="278" y="317"/>
      <point x="278" y="258" type="curve" smooth="yes"/>
      <point x="278" y="196"/>
      <point x="231" y="162"/>
    </contour>
    <contour>
      <point x="51" y="602" type="curve"/>
      <point x="75" y="537" type="line"/>
      <point x="107" y="554"/>
      <point x="143" y="563"/>
      <point x="175" y="563" type="curve" smooth="yes"/>
      <point x="213" y="563"/>
      <point x="250" y="543"/>
      <point x="250" y="495" type="curve" smooth="yes"/>
      <point x="250" y="441"/>
      <point x="211" y="412"/>
      <point x="131" y="410" type="curve"/>
      <point x="136" y="343" type="line"/>
      <point x="184" y="344"/>
      <point x="212" y="354"/>
      <point x="240" y="369" type="curve"/>
      <point x="250" y="375" type="line"/>
      <point x="297" y="403"/>
      <point x="325" y="437"/>
      <point x="325" y="496" type="curve" smooth="yes"/>
      <point x="325" y="579"/>
      <point x="271" y="632"/>
      <point x="183" y="632" type="curve" smooth="yes"/>
      <point x="126" y="632"/>
      <point x="77" y="615"/>
    </contour>
  </outline>
</glyph>
<glyph name="fourdeva" format="2">
  <advance width="411"/>
  <unicode hex="096A"/>
  <outline>
    <contour>
      <point x="167" y="313" type="curve"/>
      <point x="197" y="279" type="line"/>
      <point x="247" y="214"/>
      <point x="263" y="171"/>
      <point x="263" y="134" type="curve" smooth="yes"/>
      <point x="263" y="90"/>
      <point x="241" y="66"/>
      <point x="204" y="66" type="curve" smooth="yes"/>
      <point x="162" y="66"/>
      <point x="145" y="95"/>
      <point x="145" y="137" type="curve" smooth="yes"/>
      <point x="145" y="168"/>
      <point x="156" y="208"/>
      <point x="212" y="278" type="curve"/>
      <point x="243" y="311" type="line"/>
      <point x="365" y="457"/>
      <point x="380" y="509"/>
      <point x="380" y="578" type="curve" smooth="yes"/>
      <point x="380" y="595"/>
      <point x="378" y="612"/>
      <point x="372" y="632" type="curve"/>
      <point x="296" y="618" type="line"/>
      <point x="300" y="603"/>
      <point x="302" y="588"/>
      <point x="302" y="576" type="curve" smooth="yes"/>
      <point x="302" y="527"/>
      <point x="288" y="476"/>
      <point x="192" y="360" type="curve"/>
      <point x="167" y="330" type="line"/>
      <point x="87" y="231"/>
      <point x="70" y="186"/>
      <point x="70" y="131" type="curve" smooth="yes"/>
      <point x="70" y="50"/>
      <point x="122" y="-2"/>
      <point x="205" y="-2" type="curve" smooth="yes"/>
      <point x="292" y="-2"/>
      <point x="338" y="52"/>
      <point x="338" y="131" type="curve" smooth="yes"/>
      <point x="338" y="176"/>
      <point x="332" y="225"/>
      <point x="244" y="331" type="curve"/>
      <point x="218" y="363" type="line"/>
      <point x="122" y="480"/>
      <point x="113" y="523"/>
      <point x="113" y="575" type="curve" smooth="yes"/>
      <point x="113" y="590"/>
      <point x="116" y="604"/>
      <point x="121" y="618" type="curve"/>
      <point x="44" y="632" type="line"/>
      <point x="38" y="612"/>
      <point x="35" y="595"/>
      <point x="35" y="578" type="curve" smooth="yes"/>
      <point x="35" y="516"/>
      <point x="46" y="459"/>
    </contour>
  </outline>
</glyph>
<glyph name="fivedeva" format="2">
  <advance width="411"/>
  <unicode hex="096B"/>
  <outline>
    <contour>
      <point x="347" y="-67" type="curve"/>
      <point x="414" y="-41" type="line"/>
      <point x="374" y="42"/>
      <point x="326" y="172"/>
      <point x="309" y="235" type="curve"/>
      <point x="269" y="282" type="line"/>
      <point x="254" y="276"/>
      <point x="240" y="274"/>
      <point x="232" y="274" type="curve" smooth="yes"/>
      <point x="156" y="274"/>
      <point x="120" y="322"/>
      <point x="120" y="414" type="curve" smooth="yes"/>
      <point x="120" y="486"/>
      <point x="141" y="549"/>
      <point x="171" y="612" type="curve"/>
      <point x="94" y="632" type="line"/>
      <point x="63" y="565"/>
      <point x="44" y="489"/>
      <point x="44" y="423" type="curve" smooth="yes"/>
      <point x="44" y="258"/>
      <point x="137" y="208"/>
      <point x="229" y="208" type="curve" smooth="yes"/>
      <point x="304" y="208"/>
      <point x="356" y="225"/>
      <point x="356" y="292" type="curve" smooth="yes"/>
      <point x="356" y="336"/>
      <point x="329" y="372"/>
      <point x="286" y="372" type="curve" smooth="yes"/>
      <point x="259" y="372"/>
      <point x="230" y="353"/>
      <point x="230" y="310" type="curve" smooth="yes"/>
      <point x="230" y="286"/>
      <point x="235" y="255"/>
      <point x="245" y="222" type="curve"/>
      <point x="259" y="164"/>
      <point x="311" y="16"/>
    </contour>
  </outline>
</glyph>
<glyph name="sixdeva" format="2">
  <advance width="411"/>
  <unicode hex="096C"/>
  <outline>
    <contour>
      <point x="337" y="-67" type="curve"/>
      <point x="404" y="-41" type="line"/>
      <point x="377" y="10"/>
      <point x="347" y="83"/>
      <point x="332" y="131" type="curve"/>
      <point x="290" y="179" type="line"/>
      <point x="277" y="173"/>
      <point x="259" y="171"/>
      <point x="250" y="171" type="curve" smooth="yes"/>
      <point x="190" y="171"/>
      <point x="149" y="202"/>
      <point x="149" y="266" type="curve" smooth="yes"/>
      <point x="149" y="323"/>
      <point x="183" y="353"/>
      <point x="237" y="353" type="curve" smooth="yes"/>
      <point x="247" y="353"/>
      <point x="262" y="352"/>
      <point x="272" y="351" type="curve"/>
      <point x="278" y="417" type="line"/>
      <point x="268" y="419"/>
      <point x="249" y="421"/>
      <point x="235" y="421" type="curve" smooth="yes"/>
      <point x="197" y="421"/>
      <point x="164" y="412"/>
      <point x="137" y="394" type="curve"/>
      <point x="126" y="381" type="line"/>
      <point x="91" y="356"/>
      <point x="74" y="314"/>
      <point x="74" y="269" type="curve" smooth="yes"/>
      <point x="74" y="181"/>
      <point x="129" y="104"/>
      <point x="249" y="104" type="curve" smooth="yes"/>
      <point x="310" y="104"/>
      <point x="378" y="112"/>
      <point x="378" y="188" type="curve" smooth="yes"/>
      <point x="378" y="230"/>
      <point x="351" y="268"/>
      <point x="308" y="268" type="curve" smooth="yes"/>
      <point x="281" y="268"/>
      <point x="252" y="250"/>
      <point x="252" y="206" type="curve" smooth="yes"/>
      <point x="252" y="189"/>
      <point x="256" y="162"/>
      <point x="261" y="148" type="curve"/>
      <point x="268" y="118" type="line"/>
      <point x="277" y="84"/>
      <point x="309" y="-4"/>
    </contour>
    <contour>
      <point x="166" y="351" type="curve"/>
      <point x="200" y="405" type="line"/>
      <point x="164" y="417"/>
      <point x="126" y="446"/>
      <point x="126" y="495" type="curve" smooth="yes"/>
      <point x="126" y="541"/>
      <point x="154" y="564"/>
      <point x="201" y="564" type="curve" smooth="yes"/>
      <point x="233" y="564"/>
      <point x="259" y="558"/>
      <point x="278" y="553" type="curve"/>
      <point x="284" y="622" type="line"/>
      <point x="265" y="627"/>
      <point x="226" y="632"/>
      <point x="196" y="632" type="curve" smooth="yes"/>
      <point x="111" y="632"/>
      <point x="51" y="584"/>
      <point x="51" y="498" type="curve" smooth="yes"/>
      <point x="51" y="426"/>
      <point x="100" y="377"/>
    </contour>
  </outline>
</glyph>
<glyph name="sevendeva" format="2">
  <advance width="411"/>
  <unicode hex="096D"/>
  <outline>
    <contour>
      <point x="385" y="274" type="curve" smooth="yes"/>
      <point x="385" y="435"/>
      <point x="330" y="539"/>
      <point x="238" y="539" type="curve" smooth="yes"/>
      <point x="178" y="539"/>
      <point x="134" y="494"/>
      <point x="134" y="425" type="curve" smooth="yes"/>
      <point x="134" y="348"/>
      <point x="183" y="287"/>
      <point x="278" y="274" type="curve"/>
      <point x="291" y="341" type="line"/>
      <point x="231" y="347"/>
      <point x="203" y="383"/>
      <point x="203" y="423" type="curve" smooth="yes"/>
      <point x="203" y="455"/>
      <point x="219" y="471"/>
      <point x="241" y="471" type="curve" smooth="yes"/>
      <point x="288" y="471"/>
      <point x="310" y="377"/>
      <point x="310" y="283" type="curve" smooth="yes"/>
      <point x="310" y="179"/>
      <point x="296" y="121"/>
      <point x="241" y="121" type="curve" smooth="yes"/>
      <point x="147" y="121"/>
      <point x="107" y="290"/>
      <point x="95" y="588" type="curve"/>
      <point x="21" y="577" type="line"/>
      <point x="42" y="153"/>
      <point x="119" y="49"/>
      <point x="248" y="49" type="curve" smooth="yes"/>
      <point x="332" y="49"/>
      <point x="385" y="114"/>
    </contour>
  </outline>
</glyph>
<glyph name="eightdeva" format="2">
  <advance width="411"/>
  <unicode hex="096E"/>
  <outline>
    <contour>
      <point x="210" y="0" type="curve" smooth="yes"/>
      <point x="280" y="0"/>
      <point x="329" y="14"/>
      <point x="388" y="46" type="curve"/>
      <point x="359" y="116" type="line"/>
      <point x="309" y="85"/>
      <point x="268" y="71"/>
      <point x="215" y="71" type="curve" smooth="yes"/>
      <point x="161" y="71"/>
      <point x="122" y="101"/>
      <point x="122" y="160" type="curve" smooth="yes"/>
      <point x="122" y="187"/>
      <point x="131" y="217"/>
      <point x="158" y="261" type="curve" smooth="yes"/>
      <point x="359" y="589" type="line"/>
      <point x="289" y="632" type="line"/>
      <point x="110" y="337" type="line" smooth="yes"/>
      <point x="69" y="270"/>
      <point x="45" y="223"/>
      <point x="45" y="167" type="curve" smooth="yes"/>
      <point x="45" y="54"/>
      <point x="130" y="0"/>
    </contour>
  </outline>
</glyph>
<glyph name="ninedeva" format="2">
  <advance width="411"/>
  <unicode hex="096F"/>
  <outline>
    <contour>
      <point x="43" y="476" type="curve" smooth="yes"/>
      <point x="43" y="396"/>
      <point x="67" y="328"/>
      <point x="176" y="214" type="curve" smooth="yes"/>
      <point x="276" y="109" type="line" smooth="yes"/>
      <point x="307" y="76"/>
      <point x="318" y="56"/>
      <point x="318" y="28" type="curve" smooth="yes"/>
      <point x="318" y="0"/>
      <point x="307" y="-16"/>
      <point x="291" y="-35" type="curve"/>
      <point x="352" y="-78" type="line"/>
      <point x="380" y="-43"/>
      <point x="395" y="-7"/>
      <point x="395" y="34" type="curve" smooth="yes"/>
      <point x="395" y="81"/>
      <point x="372" y="119"/>
      <point x="324" y="168" type="curve" smooth="yes"/>
      <point x="241" y="252" type="line" smooth="yes"/>
      <point x="201" y="292"/>
      <point x="157" y="331"/>
      <point x="142" y="341" type="curve"/>
      <point x="133" y="313" type="line"/>
      <point x="147" y="307"/>
      <point x="170" y="306"/>
      <point x="178" y="306" type="curve" smooth="yes"/>
      <point x="278" y="311"/>
      <point x="324" y="369"/>
      <point x="324" y="469" type="curve" smooth="yes"/>
      <point x="324" y="569"/>
      <point x="272" y="632"/>
      <point x="184" y="632" type="curve" smooth="yes"/>
      <point x="92" y="632"/>
      <point x="43" y="558"/>
    </contour>
    <contour>
      <point x="116" y="465" type="curve" smooth="yes"/>
      <point x="116" y="530"/>
      <point x="144" y="564"/>
      <point x="184" y="564" type="curve" smooth="yes"/>
      <point x="222" y="564"/>
      <point x="248" y="530"/>
      <point x="248" y="468" type="curve" smooth="yes"/>
      <point x="248" y="403"/>
      <point x="221" y="370"/>
      <point x="180" y="370" type="curve" smooth="yes"/>
      <point x="142" y="370"/>
      <point x="116" y="400"/>
    </contour>
  </outline>
</glyph>
<glyph name="abbreviationsigndeva" format="2">
  <advance width="344"/>
  <unicode hex="0970"/>
  <outline>
    <contour>
      <point x="174" y="282" type="curve" smooth="yes"/>
      <point x="255" y="282"/>
      <point x="298" y="343"/>
      <point x="298" y="420" type="curve" smooth="yes"/>
      <point x="298" y="499"/>
      <point x="255" y="558"/>
      <point x="174" y="558" type="curve" smooth="yes"/>
      <point x="90" y="558"/>
      <point x="49" y="495"/>
      <point x="49" y="420" type="curve" smooth="yes"/>
      <point x="49" y="339"/>
      <point x="94" y="282"/>
    </contour>
    <contour>
      <point x="174" y="345" type="curve" smooth="yes"/>
      <point x="136" y="345"/>
      <point x="115" y="375"/>
      <point x="115" y="420" type="curve" smooth="yes"/>
      <point x="115" y="463"/>
      <point x="132" y="495"/>
      <point x="174" y="495" type="curve" smooth="yes"/>
      <point x="212" y="495"/>
      <point x="232" y="463"/>
      <point x="232" y="420" type="curve" smooth="yes"/>
      <point x="232" y="375"/>
      <point x="212" y="345"/>
    </contour>
  </outline>
</glyph>
<glyph name="uni0971" format="2">
  <advance width="241"/>
  <unicode hex="0971"/>
  <outline>
    <contour>
      <point x="74" y="591" type="curve" smooth="yes"/>
      <point x="74" y="556"/>
      <point x="95" y="534"/>
      <point x="127" y="534" type="curve" smooth="yes"/>
      <point x="161" y="534"/>
      <point x="180" y="556"/>
      <point x="180" y="591" type="curve" smooth="yes"/>
      <point x="180" y="624"/>
      <point x="161" y="648"/>
      <point x="127" y="648" type="curve" smooth="yes"/>
      <point x="97" y="648"/>
      <point x="74" y="626"/>
    </contour>
  </outline>
</glyph>
<glyph name="marwariddadeva" format="2">
  <advance width="418"/>
  <unicode hex="0978"/>
  <outline>
    <contour>
      <point x="171" y="554" type="line"/>
      <point x="430" y="554" type="line"/>
      <point x="430" y="622" type="line"/>
      <point x="0" y="622" type="line"/>
      <point x="0" y="554" type="line"/>
      <point x="96" y="554" type="line"/>
      <point x="96" y="377" type="line"/>
      <point x="117" y="337" type="line"/>
      <point x="147" y="351"/>
      <point x="182" y="360"/>
      <point x="217" y="360" type="curve" smooth="yes"/>
      <point x="288" y="360"/>
      <point x="312" y="310"/>
      <point x="312" y="242" type="curve" smooth="yes"/>
      <point x="312" y="173"/>
      <point x="293" y="115"/>
      <point x="265" y="65" type="curve"/>
      <point x="332" y="29" type="line"/>
      <point x="366" y="92"/>
      <point x="387" y="160"/>
      <point x="387" y="242" type="curve" smooth="yes"/>
      <point x="387" y="350"/>
      <point x="343" y="428"/>
      <point x="221" y="428" type="curve" smooth="yes"/>
      <point x="197" y="428"/>
      <point x="166" y="425"/>
      <point x="138" y="416" type="curve"/>
      <point x="120" y="416" type="line"/>
      <point x="58" y="397"/>
      <point x="30" y="379"/>
      <point x="30" y="342" type="curve" smooth="yes"/>
      <point x="30" y="285"/>
      <point x="87" y="220"/>
      <point x="128" y="220" type="curve" smooth="yes"/>
      <point x="158" y="220"/>
      <point x="171" y="240"/>
      <point x="171" y="274" type="curve" smooth="yes"/>
    </contour>
  </outline>
</glyph>
<glyph name="gabardeva" format="2">
  <advance width="430"/>
  <unicode hex="097B"/>
  <outline>
    <contour>
      <point x="171" y="554" type="line"/>
      <point x="291" y="554" type="line"/>
      <point x="291" y="0" type="line"/>
      <point x="366" y="0" type="line"/>
      <point x="366" y="554" type="line"/>
      <point x="442" y="554" type="line"/>
      <point x="442" y="622" type="line"/>
      <point x="0" y="622" type="line"/>
      <point x="0" y="554" type="line"/>
      <point x="96" y="554" type="line"/>
      <point x="96" y="376" type="line"/>
      <point x="83" y="376" type="line" smooth="yes"/>
      <point x="43" y="376"/>
      <point x="30" y="357"/>
      <point x="30" y="327" type="curve" smooth="yes"/>
      <point x="30" y="267"/>
      <point x="87" y="202"/>
      <point x="128" y="202" type="curve" smooth="yes"/>
      <point x="158" y="202"/>
      <point x="171" y="222"/>
      <point x="171" y="256" type="curve" smooth="yes"/>
    </contour>
    <contour>
      <point x="69" y="68" type="line"/>
      <point x="69" y="0" type="line"/>
      <point x="322" y="0" type="line"/>
      <point x="322" y="68" type="line"/>
    </contour>
  </outline>
</glyph>
<glyph name="jabardeva" format="2">
  <advance width="551"/>
  <unicode hex="097C"/>
  <outline>
    <contour>
      <point x="487" y="554" type="line"/>
      <point x="563" y="554" type="line"/>
      <point x="563" y="622" type="line"/>
      <point x="0" y="622" type="line"/>
      <point x="0" y="554" type="line"/>
      <point x="412" y="554" type="line"/>
      <point x="412" y="464" type="line"/>
      <point x="227" y="464" type="line"/>
      <point x="197" y="403" type="line"/>
      <point x="246" y="355"/>
      <point x="272" y="301"/>
      <point x="272" y="250" type="curve" smooth="yes"/>
      <point x="272" y="215"/>
      <point x="259" y="193"/>
      <point x="224" y="193" type="curve" smooth="yes"/>
      <point x="163" y="193"/>
      <point x="125" y="266"/>
      <point x="87" y="437" type="curve"/>
      <point x="19" y="419" type="line"/>
      <point x="72" y="190"/>
      <point x="133" y="124"/>
      <point x="230" y="124" type="curve" smooth="yes"/>
      <point x="307" y="124"/>
      <point x="348" y="172"/>
      <point x="348" y="244" type="curve" smooth="yes"/>
      <point x="348" y="307"/>
      <point x="311" y="370"/>
      <point x="266" y="412" type="curve"/>
      <point x="267" y="400" type="line"/>
      <point x="284" y="397"/>
      <point x="303" y="397"/>
      <point x="324" y="397" type="curve" smooth="yes"/>
      <point x="412" y="397" type="line"/>
      <point x="412" y="0" type="line"/>
      <point x="487" y="0" type="line"/>
    </contour>
    <contour>
      <point x="63" y="68" type="line"/>
      <point x="63" y="0" type="line"/>
      <point x="430" y="0" type="line"/>
      <point x="430" y="68" type="line"/>
    </contour>
  </outline>
</glyph>
<glyph name="uni097D" format="2">
  <advance width="352"/>
  <unicode hex="097D"/>
  <outline>
    <contour>
      <point x="164" y="632" type="curve" smooth="yes"/>
      <point x="119" y="632"/>
      <point x="78" y="621"/>
      <point x="40" y="605" type="curve"/>
      <point x="66" y="539" type="line"/>
      <point x="95" y="554"/>
      <point x="124" y="563"/>
      <point x="155" y="563" type="curve" smooth="yes"/>
      <point x="212" y="563"/>
      <point x="241" y="521"/>
      <point x="241" y="448" type="curve" smooth="yes"/>
      <point x="241" y="378"/>
      <point x="209" y="331"/>
      <point x="125" y="326" type="curve"/>
      <point x="125" y="0" type="line"/>
      <point x="200" y="0" type="line"/>
      <point x="200" y="268" type="line"/>
      <point x="274" y="291"/>
      <point x="318" y="354"/>
      <point x="318" y="447" type="curve" smooth="yes"/>
      <point x="318" y="558"/>
      <point x="265" y="632"/>
    </contour>
  </outline>
</glyph>
<glyph name="ddabardeva" format="2">
  <advance width="433"/>
  <unicode hex="097E"/>
  <outline>
    <contour>
      <point x="249" y="271" type="curve" smooth="yes"/>
      <point x="305" y="271"/>
      <point x="325" y="246"/>
      <point x="325" y="207" type="curve" smooth="yes"/>
      <point x="325" y="167"/>
      <point x="297" y="148"/>
      <point x="238" y="148" type="curve" smooth="yes"/>
      <point x="174" y="148"/>
      <point x="128" y="179"/>
      <point x="76" y="251" type="curve"/>
      <point x="14" y="209" type="line"/>
      <point x="75" y="126"/>
      <point x="149" y="80"/>
      <point x="240" y="80" type="curve" smooth="yes"/>
      <point x="358" y="80"/>
      <point x="400" y="136"/>
      <point x="400" y="206" type="curve" smooth="yes"/>
      <point x="400" y="287"/>
      <point x="353" y="338"/>
      <point x="263" y="338" type="curve" smooth="yes"/>
      <point x="235" y="338"/>
      <point x="216" y="334"/>
      <point x="195" y="328" type="curve"/>
      <point x="185" y="340"/>
      <point x="172" y="360"/>
      <point x="172" y="383" type="curve" smooth="yes"/>
      <point x="172" y="409"/>
      <point x="188" y="416"/>
      <point x="219" y="416" type="curve" smooth="yes"/>
      <point x="363" y="416" type="line"/>
      <point x="363" y="554" type="line"/>
      <point x="445" y="554" type="line"/>
      <point x="445" y="622" type="line"/>
      <point x="0" y="622" type="line"/>
      <point x="0" y="554" type="line"/>
      <point x="288" y="554" type="line"/>
      <point x="288" y="484" type="line"/>
      <point x="232" y="484" type="line" smooth="yes"/>
      <point x="177" y="484"/>
      <point x="149" y="474"/>
      <point x="127" y="453" type="curve" smooth="yes"/>
      <point x="111" y="437"/>
      <point x="99" y="415"/>
      <point x="99" y="386" type="curve" smooth="yes"/>
      <point x="99" y="338"/>
      <point x="136" y="289"/>
      <point x="171" y="255" type="curve"/>
      <point x="195" y="264"/>
      <point x="224" y="271"/>
    </contour>
    <contour>
      <point x="43" y="68" type="line"/>
      <point x="43" y="0" type="line"/>
      <point x="394" y="0" type="line"/>
      <point x="394" y="68" type="line"/>
    </contour>
  </outline>
</glyph>
<glyph name="babardeva" format="2">
  <advance width="431"/>
  <unicode hex="097F"/>
  <outline>
    <contour>
      <point x="443" y="554" type="line"/>
      <point x="443" y="622" type="line"/>
      <point x="0" y="622" type="line"/>
      <point x="0" y="554" type="line"/>
      <point x="292" y="554" type="line"/>
      <point x="292" y="241" type="line"/>
      <point x="312" y="291" type="line"/>
      <point x="281" y="243"/>
      <point x="246" y="204"/>
      <point x="185" y="204" type="curve" smooth="yes"/>
      <point x="138" y="204"/>
      <point x="107" y="231"/>
      <point x="107" y="308" type="curve" smooth="yes"/>
      <point x="107" y="382"/>
      <point x="137" y="418"/>
      <point x="198" y="418" type="curve" smooth="yes"/>
      <point x="220" y="418"/>
      <point x="243" y="415"/>
      <point x="261" y="410" type="curve"/>
      <point x="266" y="476" type="line"/>
      <point x="250" y="480"/>
      <point x="218" y="484"/>
      <point x="189" y="484" type="curve" smooth="yes"/>
      <point x="93" y="484"/>
      <point x="33" y="420"/>
      <point x="33" y="307" type="curve" smooth="yes"/>
      <point x="33" y="206"/>
      <point x="87" y="139"/>
      <point x="179" y="139" type="curve" smooth="yes"/>
      <point x="249" y="139"/>
      <point x="287" y="170"/>
      <point x="320" y="201" type="curve"/>
      <point x="292" y="223" type="line"/>
      <point x="292" y="0" type="line"/>
      <point x="367" y="0" type="line"/>
      <point x="367" y="554" type="line"/>
    </contour>
    <contour>
      <point x="156" y="445" type="line"/>
      <point x="106" y="422" type="line"/>
      <point x="241" y="188" type="line"/>
      <point x="279" y="228" type="line"/>
    </contour>
    <contour>
      <point x="63" y="68" type="line"/>
      <point x="63" y="0" type="line"/>
      <point x="316" y="0" type="line"/>
      <point x="316" y="68" type="line"/>
    </contour>
  </outline>
</glyph>
<glyph name="uni1CD0" format="2">
  <unicode hex="1CD0"/>
  <outline>
    <contour>
      <point x="-273" y="972" type="line"/>
      <point x="-215" y="949" type="line"/>
      <point x="-139" y="1162" type="line"/>
      <point x="-53" y="949" type="line"/>
      <point x="-1" y="971" type="line"/>
      <point x="-110" y="1222" type="line"/>
      <point x="-176" y="1222" type="line"/>
    </contour>
  </outline>
</glyph>
<glyph name="uni1CD1" format="2">
  <unicode hex="1CD1"/>
  <outline>
    <contour>
      <point x="-273" y="988" type="line"/>
      <point x="-215" y="965" type="line"/>
      <point x="-139" y="1178" type="line"/>
      <point x="-53" y="965" type="line"/>
      <point x="-1" y="987" type="line"/>
      <point x="-110" y="1238" type="line"/>
      <point x="-176" y="1238" type="line"/>
    </contour>
    <contour>
      <point x="-165" y="1081" type="line"/>
      <point x="-165" y="909" type="line"/>
      <point x="-108" y="909" type="line"/>
      <point x="-108" y="1081" type="line"/>
    </contour>
  </outline>
</glyph>
<glyph name="uni1CD2" format="2">
  <unicode hex="1CD2"/>
  <outline>
    <contour>
      <point x="-263" y="1059" type="line"/>
      <point x="-263" y="992" type="line"/>
      <point x="-4" y="992" type="line"/>
      <point x="-4" y="1059" type="line"/>
    </contour>
  </outline>
</glyph>
<glyph name="uni1CD3" format="2">
  <advance width="262"/>
  <unicode hex="1CD3"/>
  <outline>
    <contour>
      <point x="181" y="896" type="line"/>
      <point x="152" y="659" type="line"/>
      <point x="203" y="659" type="line"/>
      <point x="233" y="896" type="line"/>
    </contour>
    <contour>
      <point x="77" y="896" type="line"/>
      <point x="48" y="659" type="line"/>
      <point x="100" y="659" type="line"/>
      <point x="129" y="896" type="line"/>
    </contour>
  </outline>
</glyph>
<glyph name="uni1CD4" format="2">
  <unicode hex="1CD4"/>
  <outline>
    <contour>
      <point x="-212" y="333" type="line"/>
      <point x="-212" y="265" type="line"/>
      <point x="7" y="265" type="line"/>
      <point x="7" y="333" type="line"/>
    </contour>
  </outline>
</glyph>
<glyph name="uni1CD5" format="2">
  <unicode hex="1CD5"/>
  <outline>
    <contour>
      <point x="-157" y="-65" type="curve"/>
      <point x="-209" y="-65" type="line"/>
      <point x="-210" y="-135"/>
      <point x="-221" y="-164"/>
      <point x="-248" y="-164" type="curve" smooth="yes"/>
      <point x="-273" y="-164"/>
      <point x="-287" y="-144"/>
      <point x="-289" y="-63" type="curve"/>
      <point x="-348" y="-65" type="line"/>
      <point x="-346" y="-188"/>
      <point x="-309" y="-228"/>
      <point x="-255" y="-228" type="curve" smooth="yes"/>
      <point x="-195" y="-228"/>
      <point x="-173" y="-180"/>
    </contour>
    <contour>
      <point x="-154" y="-65" type="curve"/>
      <point x="-206" y="-65" type="line"/>
      <point x="-190" y="-180"/>
      <point x="-168" y="-228"/>
      <point x="-109" y="-228" type="curve" smooth="yes"/>
      <point x="-55" y="-228"/>
      <point x="-17" y="-188"/>
      <point x="-15" y="-65" type="curve"/>
      <point x="-75" y="-63" type="line"/>
      <point x="-77" y="-144"/>
      <point x="-90" y="-164"/>
      <point x="-115" y="-164" type="curve" smooth="yes"/>
      <point x="-142" y="-164"/>
      <point x="-153" y="-135"/>
    </contour>
  </outline>
</glyph>
<glyph name="uni1CD6" format="2">
  <unicode hex="1CD6"/>
  <outline>
    <contour>
      <point x="-333" y="-55" type="line"/>
      <point x="-333" y="-230" type="line"/>
      <point x="-60" y="-230" type="line"/>
      <point x="-60" y="-164" type="line"/>
      <point x="-264" y="-164" type="line"/>
      <point x="-264" y="-55" type="line"/>
    </contour>
  </outline>
</glyph>
<glyph name="uni1CD7" format="2">
  <unicode hex="1CD7"/>
  <outline>
    <contour>
      <point x="-338" y="-144" type="curve" smooth="yes"/>
      <point x="-338" y="-177"/>
      <point x="-328" y="-207"/>
      <point x="-302" y="-226" type="curve" smooth="yes"/>
      <point x="-280" y="-244"/>
      <point x="-252" y="-255"/>
      <point x="-185" y="-255" type="curve" smooth="yes"/>
      <point x="-60" y="-255" type="line"/>
      <point x="-60" y="-189" type="line"/>
      <point x="-195" y="-189" type="line" smooth="yes"/>
      <point x="-231" y="-189"/>
      <point x="-244" y="-185"/>
      <point x="-253" y="-177" type="curve"/>
      <point x="-263" y="-170"/>
      <point x="-266" y="-158"/>
      <point x="-266" y="-147" type="curve" smooth="yes"/>
      <point x="-266" y="-113"/>
      <point x="-243" y="-102"/>
      <point x="-213" y="-102" type="curve" smooth="yes"/>
      <point x="-200" y="-102" type="line"/>
      <point x="-204" y="-34" type="line"/>
      <point x="-281" y="-35"/>
      <point x="-338" y="-73"/>
    </contour>
  </outline>
</glyph>
<glyph name="uni1CD9" format="2">
  <unicode hex="1CD9"/>
  <outline>
    <contour>
      <point x="-99" y="-105" type="line"/>
      <point x="32" y="-246" type="line"/>
      <point x="83" y="-195" type="line"/>
      <point x="-82" y="-29" type="line"/>
      <point x="-131" y="-29" type="line"/>
      <point x="-242" y="-209" type="line"/>
      <point x="-179" y="-246" type="line"/>
    </contour>
  </outline>
</glyph>
<glyph name="uni1CDA" format="2">
  <unicode hex="1CDA"/>
  <outline>
    <contour>
      <point x="-82" y="872" type="line"/>
      <point x="-82" y="671" type="line"/>
      <point x="-24" y="671" type="line"/>
      <point x="-24" y="872" type="line"/>
    </contour>
    <contour>
      <point x="-180" y="872" type="line"/>
      <point x="-180" y="671" type="line"/>
      <point x="-122" y="671" type="line"/>
      <point x="-122" y="872" type="line"/>
    </contour>
  </outline>
</glyph>
<glyph name="uni1CDB" format="2">
  <unicode hex="1CDB"/>
  <outline>
    <contour>
      <point x="-211" y="872" type="line"/>
      <point x="-211" y="671" type="line"/>
      <point x="-161" y="671" type="line"/>
      <point x="-161" y="872" type="line"/>
    </contour>
    <contour>
      <point x="-127" y="872" type="line"/>
      <point x="-127" y="671" type="line"/>
      <point x="-76" y="671" type="line"/>
      <point x="-76" y="872" type="line"/>
    </contour>
    <contour>
      <point x="-42" y="872" type="line"/>
      <point x="-42" y="671" type="line"/>
      <point x="9" y="671" type="line"/>
      <point x="9" y="872" type="line"/>
    </contour>
  </outline>
</glyph>
<glyph name="uni1CDD" format="2">
  <unicode hex="1CDD"/>
  <outline>
    <contour>
      <point x="-26" y="-174" type="line"/>
      <point x="-101" y="-94" type="line"/>
      <point x="-177" y="-174" type="line"/>
      <point x="-101" y="-253" type="line"/>
    </contour>
  </outline>
</glyph>
<glyph name="uni1CDE" format="2">
  <unicode hex="1CDE"/>
  <outline>
    <contour>
      <point x="-148" y="-126" type="curve" smooth="yes"/>
      <point x="-148" y="-157"/>
      <point x="-131" y="-178"/>
      <point x="-102" y="-178" type="curve" smooth="yes"/>
      <point x="-71" y="-178"/>
      <point x="-55" y="-157"/>
      <point x="-55" y="-126" type="curve" smooth="yes"/>
      <point x="-55" y="-95"/>
      <point x="-71" y="-73"/>
      <point x="-102" y="-73" type="curve" smooth="yes"/>
      <point x="-131" y="-73"/>
      <point x="-148" y="-95"/>
    </contour>
    <contour>
      <point x="-271" y="-126" type="curve" smooth="yes"/>
      <point x="-271" y="-157"/>
      <point x="-254" y="-178"/>
      <point x="-225" y="-178" type="curve" smooth="yes"/>
      <point x="-194" y="-178"/>
      <point x="-178" y="-157"/>
      <point x="-178" y="-126" type="curve" smooth="yes"/>
      <point x="-178" y="-95"/>
      <point x="-194" y="-73"/>
      <point x="-225" y="-73" type="curve" smooth="yes"/>
      <point x="-254" y="-73"/>
      <point x="-271" y="-95"/>
    </contour>
  </outline>
</glyph>
<glyph name="uni1CDF" format="2">
  <unicode hex="1CDF"/>
  <outline>
    <contour>
      <point x="-148" y="-126" type="curve" smooth="yes"/>
      <point x="-148" y="-157"/>
      <point x="-131" y="-178"/>
      <point x="-102" y="-178" type="curve" smooth="yes"/>
      <point x="-71" y="-178"/>
      <point x="-55" y="-157"/>
      <point x="-55" y="-126" type="curve" smooth="yes"/>
      <point x="-55" y="-95"/>
      <point x="-71" y="-73"/>
      <point x="-102" y="-73" type="curve" smooth="yes"/>
      <point x="-131" y="-73"/>
      <point x="-148" y="-95"/>
    </contour>
    <contour>
      <point x="-266" y="-126" type="curve" smooth="yes"/>
      <point x="-266" y="-157"/>
      <point x="-249" y="-178"/>
      <point x="-220" y="-178" type="curve" smooth="yes"/>
      <point x="-189" y="-178"/>
      <point x="-173" y="-157"/>
      <point x="-173" y="-126" type="curve" smooth="yes"/>
      <point x="-173" y="-95"/>
      <point x="-189" y="-73"/>
      <point x="-220" y="-73" type="curve" smooth="yes"/>
      <point x="-249" y="-73"/>
      <point x="-266" y="-95"/>
    </contour>
    <contour>
      <point x="-384" y="-126" type="curve" smooth="yes"/>
      <point x="-384" y="-157"/>
      <point x="-367" y="-178"/>
      <point x="-338" y="-178" type="curve" smooth="yes"/>
      <point x="-307" y="-178"/>
      <point x="-291" y="-157"/>
      <point x="-291" y="-126" type="curve" smooth="yes"/>
      <point x="-291" y="-95"/>
      <point x="-307" y="-73"/>
      <point x="-338" y="-73" type="curve" smooth="yes"/>
      <point x="-367" y="-73"/>
      <point x="-384" y="-95"/>
    </contour>
  </outline>
</glyph>
<glyph name="uni1CE0" format="2">
  <unicode hex="1CE0"/>
  <outline>
    <contour>
      <point x="31" y="675" type="curve" smooth="yes"/>
      <point x="31" y="598"/>
      <point x="89" y="556"/>
      <point x="172" y="556" type="curve" smooth="yes"/>
      <point x="181" y="556" type="line"/>
      <point x="181" y="622" type="line"/>
      <point x="173" y="622" type="line" smooth="yes"/>
      <point x="137" y="622"/>
      <point x="105" y="635"/>
      <point x="105" y="673" type="curve" smooth="yes"/>
      <point x="105" y="696"/>
      <point x="113" y="710"/>
      <point x="127" y="718" type="curve" smooth="yes"/>
      <point x="142" y="726"/>
      <point x="159" y="729"/>
      <point x="197" y="729" type="curve" smooth="yes"/>
      <point x="334" y="729" type="line"/>
      <point x="334" y="797" type="line"/>
      <point x="199" y="797" type="line" smooth="yes"/>
      <point x="131" y="797"/>
      <point x="100" y="788"/>
      <point x="72" y="768" type="curve" smooth="yes"/>
      <point x="45" y="750"/>
      <point x="31" y="719"/>
    </contour>
  </outline>
</glyph>
<glyph name="uni1CE1" format="2">
  <advance width="306"/>
  <unicode hex="1CE1"/>
  <outline>
    <contour>
      <point x="273" y="754" type="curve"/>
      <point x="339" y="787" type="line"/>
      <point x="309" y="834"/>
      <point x="271" y="854"/>
      <point x="227" y="854" type="curve" smooth="yes"/>
      <point x="148" y="854"/>
      <point x="100" y="798"/>
      <point x="100" y="693" type="curve" smooth="yes"/>
      <point x="100" y="514"/>
      <point x="137" y="298"/>
      <point x="137" y="75" type="curve" smooth="yes"/>
      <point x="137" y="-21"/>
      <point x="113" y="-90"/>
      <point x="20" y="-90" type="curve" smooth="yes"/>
      <point x="2" y="-90"/>
      <point x="-10" y="-89"/>
      <point x="-20" y="-87" type="curve"/>
      <point x="-23" y="-157" type="line"/>
      <point x="-12" y="-159"/>
      <point x="6" y="-161"/>
      <point x="24" y="-161" type="curve" smooth="yes"/>
      <point x="175" y="-161"/>
      <point x="213" y="-49"/>
      <point x="213" y="72" type="curve" smooth="yes"/>
      <point x="213" y="311"/>
      <point x="176" y="523"/>
      <point x="176" y="686" type="curve" smooth="yes"/>
      <point x="176" y="758"/>
      <point x="198" y="785"/>
      <point x="228" y="785" type="curve" smooth="yes"/>
      <point x="248" y="785"/>
      <point x="259" y="773"/>
    </contour>
  </outline>
</glyph>
<glyph name="uni1CE2" format="2">
  <unicode hex="1CE2"/>
  <outline>
    <contour>
      <point x="-214" y="311" type="line"/>
      <point x="-214" y="244" type="line"/>
      <point x="3" y="244" type="line"/>
      <point x="3" y="311" type="line"/>
    </contour>
  </outline>
</glyph>
<glyph name="uni1CE3" format="2">
  <unicode hex="1CE3"/>
  <outline>
    <contour>
      <point x="28" y="585" type="curve"/>
      <point x="-27" y="545" type="line"/>
      <point x="-9" y="523"/>
      <point x="15" y="491"/>
      <point x="39" y="456" type="curve" smooth="yes"/>
      <point x="73" y="405"/>
      <point x="85" y="380"/>
      <point x="85" y="348" type="curve" smooth="yes"/>
      <point x="85" y="337"/>
      <point x="82" y="328"/>
      <point x="75" y="322" type="curve" smooth="yes"/>
      <point x="67" y="315"/>
      <point x="59" y="311"/>
      <point x="32" y="311" type="curve" smooth="yes"/>
      <point x="-95" y="311" type="line"/>
      <point x="-95" y="244" type="line"/>
      <point x="15" y="244" type="line" smooth="yes"/>
      <point x="71" y="244"/>
      <point x="101" y="252"/>
      <point x="124" y="271" type="curve" smooth="yes"/>
      <point x="146" y="288"/>
      <point x="157" y="315"/>
      <point x="157" y="344" type="curve" smooth="yes"/>
      <point x="157" y="396"/>
      <point x="140" y="434"/>
      <point x="90" y="505" type="curve" smooth="yes"/>
      <point x="65" y="540"/>
      <point x="49" y="559"/>
    </contour>
  </outline>
</glyph>
<glyph name="uni1CE4" format="2">
  <unicode hex="1CE4"/>
  <outline>
    <contour>
      <point x="216" y="545" type="curve"/>
      <point x="161" y="585" type="line"/>
      <point x="140" y="559"/>
      <point x="124" y="540"/>
      <point x="99" y="505" type="curve" smooth="yes"/>
      <point x="49" y="434"/>
      <point x="32" y="396"/>
      <point x="32" y="344" type="curve" smooth="yes"/>
      <point x="32" y="315"/>
      <point x="43" y="288"/>
      <point x="65" y="271" type="curve" smooth="yes"/>
      <point x="88" y="252"/>
      <point x="118" y="244"/>
      <point x="174" y="244" type="curve" smooth="yes"/>
      <point x="284" y="244" type="line"/>
      <point x="284" y="311" type="line"/>
      <point x="157" y="311" type="line" smooth="yes"/>
      <point x="130" y="311"/>
      <point x="122" y="315"/>
      <point x="114" y="322" type="curve" smooth="yes"/>
      <point x="107" y="328"/>
      <point x="104" y="337"/>
      <point x="104" y="348" type="curve" smooth="yes"/>
      <point x="104" y="380"/>
      <point x="116" y="405"/>
      <point x="150" y="456" type="curve" smooth="yes"/>
      <point x="174" y="491"/>
      <point x="198" y="523"/>
    </contour>
  </outline>
</glyph>
<glyph name="uni1CE5" format="2">
  <unicode hex="1CE5"/>
  <outline>
    <contour>
      <point x="161" y="-30" type="curve"/>
      <point x="216" y="10" type="line"/>
      <point x="198" y="32"/>
      <point x="174" y="64"/>
      <point x="150" y="99" type="curve" smooth="yes"/>
      <point x="116" y="150"/>
      <point x="104" y="175"/>
      <point x="104" y="207" type="curve" smooth="yes"/>
      <point x="104" y="218"/>
      <point x="107" y="227"/>
      <point x="114" y="233" type="curve" smooth="yes"/>
      <point x="122" y="240"/>
      <point x="130" y="244"/>
      <point x="157" y="244" type="curve" smooth="yes"/>
      <point x="284" y="244" type="line"/>
      <point x="284" y="311" type="line"/>
      <point x="174" y="311" type="line" smooth="yes"/>
      <point x="118" y="311"/>
      <point x="88" y="303"/>
      <point x="65" y="284" type="curve" smooth="yes"/>
      <point x="43" y="267"/>
      <point x="32" y="240"/>
      <point x="32" y="211" type="curve" smooth="yes"/>
      <point x="32" y="159"/>
      <point x="49" y="121"/>
      <point x="99" y="50" type="curve" smooth="yes"/>
      <point x="124" y="15"/>
      <point x="140" y="-4"/>
    </contour>
  </outline>
</glyph>
<glyph name="uni1CE6" format="2">
  <unicode hex="1CE6"/>
  <outline>
    <contour>
      <point x="-27" y="10" type="curve"/>
      <point x="28" y="-30" type="line"/>
      <point x="49" y="-4"/>
      <point x="65" y="15"/>
      <point x="90" y="50" type="curve" smooth="yes"/>
      <point x="140" y="121"/>
      <point x="157" y="159"/>
      <point x="157" y="211" type="curve" smooth="yes"/>
      <point x="157" y="240"/>
      <point x="146" y="267"/>
      <point x="124" y="284" type="curve" smooth="yes"/>
      <point x="101" y="303"/>
      <point x="71" y="311"/>
      <point x="15" y="311" type="curve" smooth="yes"/>
      <point x="-95" y="311" type="line"/>
      <point x="-95" y="244" type="line"/>
      <point x="32" y="244" type="line" smooth="yes"/>
      <point x="59" y="244"/>
      <point x="67" y="240"/>
      <point x="75" y="233" type="curve" smooth="yes"/>
      <point x="82" y="227"/>
      <point x="85" y="218"/>
      <point x="85" y="207" type="curve" smooth="yes"/>
      <point x="85" y="175"/>
      <point x="73" y="150"/>
      <point x="39" y="99" type="curve" smooth="yes"/>
      <point x="15" y="64"/>
      <point x="-9" y="32"/>
    </contour>
  </outline>
</glyph>
<glyph name="uni1CE7" format="2">
  <unicode hex="1CE7"/>
  <outline>
    <contour>
      <point x="-96" y="311" type="line"/>
      <point x="-96" y="244" type="line"/>
      <point x="14" y="244" type="line" smooth="yes"/>
      <point x="70" y="244"/>
      <point x="100" y="252"/>
      <point x="123" y="271" type="curve" smooth="yes"/>
      <point x="145" y="288"/>
      <point x="156" y="315"/>
      <point x="156" y="344" type="curve" smooth="yes"/>
      <point x="156" y="390"/>
      <point x="138" y="427"/>
      <point x="79" y="509" type="curve" smooth="yes"/>
      <point x="35" y="571"/>
      <point x="18" y="603"/>
      <point x="18" y="646" type="curve" smooth="yes"/>
      <point x="18" y="680"/>
      <point x="36" y="697"/>
      <point x="65" y="697" type="curve" smooth="yes"/>
      <point x="98" y="697"/>
      <point x="129" y="664"/>
      <point x="157" y="594" type="curve"/>
      <point x="218" y="618" type="line"/>
      <point x="174" y="726"/>
      <point x="124" y="763"/>
      <point x="60" y="763" type="curve" smooth="yes"/>
      <point x="-13" y="763"/>
      <point x="-54" y="718"/>
      <point x="-54" y="650" type="curve" smooth="yes"/>
      <point x="-54" y="592"/>
      <point x="-32" y="547"/>
      <point x="25" y="460" type="curve" smooth="yes"/>
      <point x="72" y="389"/>
      <point x="84" y="371"/>
      <point x="84" y="346" type="curve" smooth="yes"/>
      <point x="84" y="336"/>
      <point x="81" y="328"/>
      <point x="74" y="322" type="curve" smooth="yes"/>
      <point x="66" y="315"/>
      <point x="58" y="311"/>
      <point x="31" y="311" type="curve"/>
    </contour>
  </outline>
</glyph>
<glyph name="uni1CE8" format="2">
  <unicode hex="1CE8"/>
  <outline>
    <contour>
      <point x="288" y="244" type="line"/>
      <point x="288" y="311" type="line"/>
      <point x="178" y="311" type="line" smooth="yes"/>
      <point x="122" y="311"/>
      <point x="92" y="303"/>
      <point x="69" y="284" type="curve" smooth="yes"/>
      <point x="47" y="267"/>
      <point x="36" y="240"/>
      <point x="36" y="211" type="curve" smooth="yes"/>
      <point x="36" y="165"/>
      <point x="54" y="128"/>
      <point x="113" y="46" type="curve" smooth="yes"/>
      <point x="157" y="-16"/>
      <point x="174" y="-48"/>
      <point x="174" y="-91" type="curve" smooth="yes"/>
      <point x="174" y="-125"/>
      <point x="156" y="-142"/>
      <point x="127" y="-142" type="curve" smooth="yes"/>
      <point x="94" y="-142"/>
      <point x="63" y="-109"/>
      <point x="35" y="-39" type="curve"/>
      <point x="-26" y="-63" type="line"/>
      <point x="18" y="-171"/>
      <point x="68" y="-208"/>
      <point x="132" y="-208" type="curve" smooth="yes"/>
      <point x="203" y="-208"/>
      <point x="246" y="-163"/>
      <point x="246" y="-95" type="curve" smooth="yes"/>
      <point x="246" y="-37"/>
      <point x="224" y="8"/>
      <point x="167" y="95" type="curve" smooth="yes"/>
      <point x="120" y="166"/>
      <point x="108" y="184"/>
      <point x="108" y="209" type="curve" smooth="yes"/>
      <point x="108" y="219"/>
      <point x="111" y="227"/>
      <point x="118" y="233" type="curve" smooth="yes"/>
      <point x="126" y="240"/>
      <point x="134" y="244"/>
      <point x="161" y="244" type="curve" smooth="yes"/>
    </contour>
  </outline>
</glyph>
<glyph name="uni1CE9" format="2">
  <advance width="603"/>
  <unicode hex="1CE9"/>
  <outline>
    <contour>
      <point x="304" y="0" type="curve" smooth="yes"/>
      <point x="483" y="0"/>
      <point x="567" y="137"/>
      <point x="567" y="354" type="curve" smooth="yes"/>
      <point x="567" y="543"/>
      <point x="507" y="632"/>
      <point x="423" y="632" type="curve" smooth="yes"/>
      <point x="353" y="632"/>
      <point x="316" y="580"/>
      <point x="316" y="506" type="curve" smooth="yes"/>
      <point x="316" y="416"/>
      <point x="369" y="370"/>
      <point x="432" y="370" type="curve" smooth="yes"/>
      <point x="448" y="370"/>
      <point x="461" y="371"/>
      <point x="474" y="375" type="curve"/>
      <point x="468" y="439" type="line"/>
      <point x="461" y="437"/>
      <point x="453" y="436"/>
      <point x="440" y="436" type="curve" smooth="yes"/>
      <point x="399" y="436"/>
      <point x="381" y="460"/>
      <point x="381" y="505" type="curve" smooth="yes"/>
      <point x="381" y="541"/>
      <point x="397" y="567"/>
      <point x="424" y="567" type="curve" smooth="yes"/>
      <point x="468" y="567"/>
      <point x="492" y="483"/>
      <point x="492" y="355" type="curve" smooth="yes"/>
      <point x="492" y="351" type="line" smooth="yes"/>
      <point x="492" y="203"/>
      <point x="446" y="71"/>
      <point x="303" y="71" type="curve" smooth="yes"/>
      <point x="165" y="71"/>
      <point x="115" y="193"/>
      <point x="115" y="340" type="curve" smooth="yes"/>
      <point x="115" y="347" type="line" smooth="yes"/>
      <point x="115" y="484"/>
      <point x="145" y="567"/>
      <point x="188" y="567" type="curve" smooth="yes"/>
      <point x="210" y="567"/>
      <point x="226" y="548"/>
      <point x="226" y="509" type="curve" smooth="yes"/>
      <point x="226" y="463"/>
      <point x="208" y="436"/>
      <point x="166" y="436" type="curve" smooth="yes"/>
      <point x="156" y="436"/>
      <point x="148" y="437"/>
      <point x="141" y="439" type="curve"/>
      <point x="133" y="376" type="line"/>
      <point x="143" y="373"/>
      <point x="155" y="370"/>
      <point x="173" y="370" type="curve" smooth="yes"/>
      <point x="253" y="370"/>
      <point x="291" y="424"/>
      <point x="291" y="505" type="curve" smooth="yes"/>
      <point x="291" y="581"/>
      <point x="256" y="632"/>
      <point x="190" y="632" type="curve" smooth="yes"/>
      <point x="104" y="632"/>
      <point x="40" y="541"/>
      <point x="40" y="347" type="curve" smooth="yes"/>
      <point x="40" y="143"/>
      <point x="126" y="0"/>
    </contour>
  </outline>
</glyph>
<glyph name="uni1CEA" format="2">
  <advance width="559"/>
  <unicode hex="1CEA"/>
  <outline>
    <contour>
      <point x="282" y="0" type="curve" smooth="yes"/>
      <point x="430" y="0"/>
      <point x="488" y="93"/>
      <point x="488" y="187" type="curve" smooth="yes"/>
      <point x="488" y="256"/>
      <point x="464" y="302"/>
      <point x="424" y="369" type="curve" smooth="yes"/>
      <point x="395" y="418"/>
      <point x="378" y="452"/>
      <point x="378" y="495" type="curve" smooth="yes"/>
      <point x="378" y="548"/>
      <point x="401" y="571"/>
      <point x="429" y="571" type="curve" smooth="yes"/>
      <point x="451" y="571"/>
      <point x="466" y="555"/>
      <point x="466" y="523" type="curve" smooth="yes"/>
      <point x="466" y="484"/>
      <point x="446" y="466"/>
      <point x="413" y="455" type="curve"/>
      <point x="426" y="388" type="line"/>
      <point x="500" y="408"/>
      <point x="534" y="454"/>
      <point x="534" y="520" type="curve" smooth="yes"/>
      <point x="534" y="587"/>
      <point x="494" y="632"/>
      <point x="426" y="632" type="curve" smooth="yes"/>
      <point x="336" y="632"/>
      <point x="303" y="565"/>
      <point x="303" y="503" type="curve" smooth="yes"/>
      <point x="303" y="437"/>
      <point x="326" y="389"/>
      <point x="365" y="326" type="curve" smooth="yes"/>
      <point x="400" y="269"/>
      <point x="413" y="236"/>
      <point x="413" y="193" type="curve" smooth="yes"/>
      <point x="413" y="141"/>
      <point x="385" y="71"/>
      <point x="283" y="71" type="curve" smooth="yes"/>
      <point x="183" y="71"/>
      <point x="154" y="136"/>
      <point x="154" y="193" type="curve" smooth="yes"/>
      <point x="154" y="240"/>
      <point x="169" y="271"/>
      <point x="200" y="320" type="curve" smooth="yes"/>
      <point x="244" y="389"/>
      <point x="265" y="437"/>
      <point x="265" y="498" type="curve" smooth="yes"/>
      <point x="265" y="549"/>
      <point x="240" y="632"/>
      <point x="146" y="632" type="curve" smooth="yes"/>
      <point x="75" y="632"/>
      <point x="34" y="587"/>
      <point x="34" y="519" type="curve" smooth="yes"/>
      <point x="34" y="463"/>
      <point x="64" y="408"/>
      <point x="142" y="388" type="curve"/>
      <point x="155" y="455" type="line"/>
      <point x="119" y="462"/>
      <point x="102" y="484"/>
      <point x="102" y="520" type="curve" smooth="yes"/>
      <point x="102" y="550"/>
      <point x="115" y="571"/>
      <point x="145" y="571" type="curve" smooth="yes"/>
      <point x="169" y="571"/>
      <point x="190" y="550"/>
      <point x="190" y="497" type="curve" smooth="yes"/>
      <point x="190" y="449"/>
      <point x="171" y="414"/>
      <point x="146" y="373" type="curve" smooth="yes"/>
      <point x="104" y="305"/>
      <point x="79" y="261"/>
      <point x="79" y="191" type="curve" smooth="yes"/>
      <point x="79" y="93"/>
      <point x="139" y="0"/>
    </contour>
  </outline>
</glyph>
<glyph name="uni1CEB" format="2">
  <advance width="566"/>
  <unicode hex="1CEB"/>
  <outline>
    <contour>
      <point x="281" y="0" type="curve" smooth="yes"/>
      <point x="458" y="0"/>
      <point x="534" y="128"/>
      <point x="534" y="324" type="curve" smooth="yes"/>
      <point x="534" y="495"/>
      <point x="475" y="573"/>
      <point x="391" y="573" type="curve" smooth="yes"/>
      <point x="320" y="573"/>
      <point x="283" y="521"/>
      <point x="283" y="447" type="curve" smooth="yes"/>
      <point x="283" y="357"/>
      <point x="336" y="311"/>
      <point x="399" y="311" type="curve" smooth="yes"/>
      <point x="415" y="311"/>
      <point x="428" y="312"/>
      <point x="441" y="316" type="curve"/>
      <point x="435" y="380" type="line"/>
      <point x="428" y="378"/>
      <point x="420" y="377"/>
      <point x="407" y="377" type="curve" smooth="yes"/>
      <point x="366" y="377"/>
      <point x="348" y="401"/>
      <point x="348" y="446" type="curve" smooth="yes"/>
      <point x="348" y="484"/>
      <point x="366" y="508"/>
      <point x="392" y="508" type="curve" smooth="yes"/>
      <point x="436" y="508"/>
      <point x="459" y="427"/>
      <point x="459" y="326" type="curve" smooth="yes"/>
      <point x="459" y="172"/>
      <point x="413" y="71"/>
      <point x="281" y="71" type="curve" smooth="yes"/>
      <point x="183" y="71"/>
      <point x="154" y="136"/>
      <point x="154" y="193" type="curve" smooth="yes"/>
      <point x="154" y="240"/>
      <point x="169" y="271"/>
      <point x="200" y="320" type="curve" smooth="yes"/>
      <point x="244" y="389"/>
      <point x="265" y="437"/>
      <point x="265" y="498" type="curve" smooth="yes"/>
      <point x="265" y="549"/>
      <point x="240" y="632"/>
      <point x="146" y="632" type="curve" smooth="yes"/>
      <point x="75" y="632"/>
      <point x="34" y="587"/>
      <point x="34" y="519" type="curve" smooth="yes"/>
      <point x="34" y="463"/>
      <point x="64" y="408"/>
      <point x="142" y="388" type="curve"/>
      <point x="155" y="455" type="line"/>
      <point x="119" y="462"/>
      <point x="102" y="484"/>
      <point x="102" y="520" type="curve" smooth="yes"/>
      <point x="102" y="550"/>
      <point x="115" y="571"/>
      <point x="145" y="571" type="curve" smooth="yes"/>
      <point x="169" y="571"/>
      <point x="190" y="550"/>
      <point x="190" y="497" type="curve" smooth="yes"/>
      <point x="190" y="449"/>
      <point x="171" y="414"/>
      <point x="146" y="373" type="curve" smooth="yes"/>
      <point x="104" y="305"/>
      <point x="79" y="261"/>
      <point x="79" y="191" type="curve" smooth="yes"/>
      <point x="79" y="93"/>
      <point x="139" y="0"/>
    </contour>
  </outline>
</glyph>
<glyph name="uni1CEC" format="2">
  <advance width="629"/>
  <unicode hex="1CEC"/>
  <outline>
    <contour>
      <point x="432" y="359" type="curve" smooth="yes"/>
      <point x="432" y="178"/>
      <point x="392" y="71"/>
      <point x="275" y="71" type="curve" smooth="yes"/>
      <point x="183" y="71"/>
      <point x="154" y="136"/>
      <point x="154" y="193" type="curve" smooth="yes"/>
      <point x="154" y="240"/>
      <point x="169" y="271"/>
      <point x="200" y="320" type="curve" smooth="yes"/>
      <point x="244" y="389"/>
      <point x="265" y="437"/>
      <point x="265" y="498" type="curve" smooth="yes"/>
      <point x="265" y="549"/>
      <point x="240" y="632"/>
      <point x="146" y="632" type="curve" smooth="yes"/>
      <point x="75" y="632"/>
      <point x="34" y="587"/>
      <point x="34" y="519" type="curve" smooth="yes"/>
      <point x="34" y="463"/>
      <point x="64" y="408"/>
      <point x="142" y="388" type="curve"/>
      <point x="155" y="455" type="line"/>
      <point x="119" y="462"/>
      <point x="102" y="484"/>
      <point x="102" y="520" type="curve" smooth="yes"/>
      <point x="102" y="550"/>
      <point x="115" y="571"/>
      <point x="145" y="571" type="curve" smooth="yes"/>
      <point x="169" y="571"/>
      <point x="190" y="550"/>
      <point x="190" y="497" type="curve" smooth="yes"/>
      <point x="190" y="449"/>
      <point x="171" y="414"/>
      <point x="146" y="373" type="curve" smooth="yes"/>
      <point x="104" y="305"/>
      <point x="79" y="261"/>
      <point x="79" y="191" type="curve" smooth="yes"/>
      <point x="79" y="79"/>
      <point x="153" y="0"/>
      <point x="271" y="0" type="curve" smooth="yes"/>
      <point x="439" y="0"/>
      <point x="504" y="131"/>
      <point x="504" y="354" type="curve" smooth="yes"/>
      <point x="504" y="511"/>
      <point x="462" y="573"/>
      <point x="383" y="573" type="curve" smooth="yes"/>
      <point x="315" y="573"/>
      <point x="279" y="518"/>
      <point x="279" y="448" type="curve" smooth="yes"/>
      <point x="279" y="364"/>
      <point x="323" y="304"/>
      <point x="461" y="274" type="curve"/>
      <point x="524" y="261"/>
      <point x="539" y="231"/>
      <point x="539" y="178" type="curve" smooth="yes"/>
      <point x="539" y="136"/>
      <point x="526" y="98"/>
      <point x="504" y="60" type="curve"/>
      <point x="572" y="31" type="line"/>
      <point x="594" y="74"/>
      <point x="610" y="124"/>
      <point x="610" y="178" type="curve" smooth="yes"/>
      <point x="610" y="267"/>
      <point x="572" y="317"/>
      <point x="477" y="336" type="curve"/>
      <point x="364" y="354"/>
      <point x="345" y="396"/>
      <point x="345" y="447" type="curve" smooth="yes"/>
      <point x="345" y="479"/>
      <point x="357" y="508"/>
      <point x="382" y="508" type="curve" smooth="yes"/>
      <point x="420" y="508"/>
      <point x="432" y="448"/>
    </contour>
  </outline>
</glyph>
<glyph name="uni1CED" format="2">
  <unicode hex="1CED"/>
  <outline>
    <contour>
      <point x="-144" y="-86" type="line"/>
      <point x="34" y="-262" type="line"/>
      <point x="84" y="-212" type="line"/>
      <point x="-94" y="-36" type="line"/>
    </contour>
  </outline>
</glyph>
<glyph name="uni1CEE" format="2">
  <advance width="413"/>
  <unicode hex="1CEE"/>
  <outline>
    <contour>
      <point x="240" y="0" type="curve" smooth="yes"/>
      <point x="317" y="0"/>
      <point x="364" y="31"/>
      <point x="364" y="98" type="curve" smooth="yes"/>
      <point x="364" y="128"/>
      <point x="347" y="152"/>
      <point x="314" y="152" type="curve" smooth="yes"/>
      <point x="287" y="152"/>
      <point x="266" y="134"/>
      <point x="266" y="101" type="curve" smooth="yes"/>
      <point x="266" y="89"/>
      <point x="270" y="74"/>
      <point x="275" y="67" type="curve"/>
      <point x="288" y="74" type="line"/>
      <point x="275" y="69"/>
      <point x="263" y="67"/>
      <point x="243" y="67" type="curve" smooth="yes"/>
      <point x="190" y="67"/>
      <point x="147" y="108"/>
      <point x="147" y="191" type="curve" smooth="yes"/>
      <point x="147" y="273"/>
      <point x="186" y="308"/>
      <point x="240" y="308" type="curve" smooth="yes"/>
      <point x="244" y="308"/>
      <point x="252" y="308"/>
      <point x="259" y="307" type="curve"/>
      <point x="265" y="375" type="line"/>
      <point x="258" y="376"/>
      <point x="248" y="377"/>
      <point x="239" y="377" type="curve" smooth="yes"/>
      <point x="134" y="377"/>
      <point x="72" y="304"/>
      <point x="72" y="191" type="curve" smooth="yes"/>
      <point x="72" y="79"/>
      <point x="138" y="0"/>
    </contour>
    <contour>
      <point x="166" y="306" type="curve"/>
      <point x="210" y="362" type="line"/>
      <point x="154" y="383"/>
      <point x="118" y="424"/>
      <point x="118" y="481" type="curve" smooth="yes"/>
      <point x="118" y="526"/>
      <point x="140" y="564"/>
      <point x="205" y="564" type="curve" smooth="yes"/>
      <point x="225" y="564"/>
      <point x="239" y="561"/>
      <point x="255" y="557" type="curve"/>
      <point x="265" y="625" type="line"/>
      <point x="244" y="629"/>
      <point x="221" y="632"/>
      <point x="198" y="632" type="curve" smooth="yes"/>
      <point x="91" y="632"/>
      <point x="43" y="561"/>
      <point x="43" y="479" type="curve" smooth="yes"/>
      <point x="43" y="400"/>
      <point x="97" y="341"/>
    </contour>
    <contour>
      <point x="342" y="287" type="curve" smooth="yes"/>
      <point x="374" y="287"/>
      <point x="391" y="309"/>
      <point x="391" y="342" type="curve" smooth="yes"/>
      <point x="391" y="374"/>
      <point x="374" y="397"/>
      <point x="342" y="397" type="curve" smooth="yes"/>
      <point x="311" y="397"/>
      <point x="293" y="374"/>
      <point x="293" y="342" type="curve" smooth="yes"/>
      <point x="293" y="309"/>
      <point x="311" y="287"/>
    </contour>
  </outline>
</glyph>
<glyph name="uni1CEF" format="2">
  <advance width="347"/>
  <unicode hex="1CEF"/>
  <outline>
    <contour>
      <point x="321" y="289" type="curve"/>
      <point x="298" y="348" type="line"/>
      <point x="267" y="334"/>
      <point x="251" y="330"/>
      <point x="217" y="330" type="curve" smooth="yes"/>
      <point x="166" y="330"/>
      <point x="121" y="368"/>
      <point x="121" y="450" type="curve" smooth="yes"/>
      <point x="121" y="528"/>
      <point x="161" y="563"/>
      <point x="228" y="563" type="curve" smooth="yes"/>
      <point x="251" y="563"/>
      <point x="274" y="559"/>
      <point x="291" y="555" type="curve"/>
      <point x="296" y="624" type="line"/>
      <point x="278" y="628"/>
      <point x="255" y="632"/>
      <point x="220" y="632" type="curve" smooth="yes"/>
      <point x="114" y="632"/>
      <point x="45" y="565"/>
      <point x="45" y="445" type="curve" smooth="yes"/>
      <point x="45" y="350"/>
      <point x="101" y="287"/>
      <point x="174" y="273" type="curve" smooth="yes"/>
      <point x="186" y="271"/>
      <point x="194" y="266"/>
      <point x="204" y="266" type="curve" smooth="yes"/>
      <point x="239" y="266"/>
      <point x="284" y="273"/>
    </contour>
    <contour>
      <point x="274" y="288" type="line"/>
      <point x="196" y="310" type="line"/>
      <point x="110" y="278"/>
      <point x="65" y="214"/>
      <point x="65" y="127" type="curve" smooth="yes"/>
      <point x="65" y="32"/>
      <point x="121" y="-12"/>
      <point x="188" y="-12" type="curve" smooth="yes"/>
      <point x="260" y="-12"/>
      <point x="293" y="33"/>
      <point x="293" y="94" type="curve" smooth="yes"/>
      <point x="293" y="157"/>
      <point x="256" y="199"/>
      <point x="190" y="207" type="curve"/>
      <point x="173" y="142" type="line"/>
      <point x="205" y="137"/>
      <point x="228" y="123"/>
      <point x="228" y="93" type="curve" smooth="yes"/>
      <point x="228" y="67"/>
      <point x="214" y="50"/>
      <point x="189" y="50" type="curve" smooth="yes"/>
      <point x="157" y="50"/>
      <point x="138" y="76"/>
      <point x="138" y="126" type="curve" smooth="yes"/>
      <point x="138" y="208"/>
      <point x="185" y="258"/>
      <point x="262" y="273" type="curve"/>
    </contour>
    <contour>
      <point x="176" y="447" type="curve" smooth="yes"/>
      <point x="176" y="416"/>
      <point x="194" y="395"/>
      <point x="223" y="395" type="curve" smooth="yes"/>
      <point x="253" y="395"/>
      <point x="270" y="416"/>
      <point x="270" y="447" type="curve" smooth="yes"/>
      <point x="270" y="477"/>
      <point x="253" y="499"/>
      <point x="223" y="499" type="curve" smooth="yes"/>
      <point x="194" y="499"/>
      <point x="176" y="477"/>
    </contour>
  </outline>
</glyph>
<glyph name="uni1CF0" format="2">
  <advance width="414"/>
  <unicode hex="1CF0"/>
  <outline>
    <contour>
      <point x="220" y="274" type="curve" smooth="yes"/>
      <point x="248" y="274" type="line"/>
      <point x="252" y="295"/>
      <point x="258" y="317"/>
      <point x="258" y="341" type="curve" smooth="yes"/>
      <point x="258" y="377"/>
      <point x="246" y="406"/>
      <point x="212" y="449" type="curve" smooth="yes"/>
      <point x="187" y="481"/>
      <point x="172" y="505"/>
      <point x="172" y="532" type="curve" smooth="yes"/>
      <point x="172" y="548"/>
      <point x="180" y="568"/>
      <point x="207" y="568" type="curve" smooth="yes"/>
      <point x="228" y="568"/>
      <point x="247" y="549"/>
      <point x="270" y="511" type="curve"/>
      <point x="328" y="538" type="line"/>
      <point x="302" y="589"/>
      <point x="268" y="632"/>
      <point x="209" y="632" type="curve" smooth="yes"/>
      <point x="137" y="632"/>
      <point x="101" y="586"/>
      <point x="101" y="535" type="curve" smooth="yes"/>
      <point x="101" y="487"/>
      <point x="121" y="455"/>
      <point x="148" y="418" type="curve" smooth="yes"/>
      <point x="175" y="380"/>
      <point x="187" y="354"/>
      <point x="187" y="343" type="curve" smooth="yes"/>
      <point x="187" y="340"/>
      <point x="187" y="337"/>
      <point x="186" y="334" type="curve"/>
      <point x="204" y="341" type="line"/>
      <point x="116" y="341"/>
      <point x="30" y="284"/>
      <point x="30" y="170" type="curve" smooth="yes"/>
      <point x="30" y="66"/>
      <point x="98" y="0"/>
      <point x="207" y="0" type="curve" smooth="yes"/>
      <point x="300" y="0"/>
      <point x="378" y="46"/>
      <point x="378" y="161" type="curve" smooth="yes"/>
      <point x="378" y="238"/>
      <point x="327" y="309"/>
      <point x="229" y="340" type="curve"/>
      <point x="225" y="302" type="line"/>
      <point x="220" y="275" type="line"/>
      <point x="271" y="256"/>
      <point x="303" y="212"/>
      <point x="303" y="160" type="curve" smooth="yes"/>
      <point x="303" y="98"/>
      <point x="265" y="68"/>
      <point x="204" y="68" type="curve" smooth="yes"/>
      <point x="150" y="68"/>
      <point x="105" y="92"/>
      <point x="105" y="165" type="curve" smooth="yes"/>
      <point x="105" y="237"/>
      <point x="150" y="274"/>
    </contour>
    <contour>
      <point x="283" y="406" type="curve" smooth="yes"/>
      <point x="283" y="373"/>
      <point x="301" y="351"/>
      <point x="332" y="351" type="curve" smooth="yes"/>
      <point x="364" y="351"/>
      <point x="381" y="373"/>
      <point x="381" y="406" type="curve" smooth="yes"/>
      <point x="381" y="438"/>
      <point x="364" y="461"/>
      <point x="332" y="461" type="curve" smooth="yes"/>
      <point x="301" y="461"/>
      <point x="283" y="438"/>
    </contour>
  </outline>
</glyph>
<glyph name="uni1CF1" format="2">
  <advance width="429"/>
  <unicode hex="1CF1"/>
  <outline>
    <contour>
      <point x="214" y="10" type="curve"/>
      <point x="269" y="-30" type="line"/>
      <point x="290" y="-4"/>
      <point x="306" y="15"/>
      <point x="331" y="50" type="curve" smooth="yes"/>
      <point x="381" y="121"/>
      <point x="398" y="159"/>
      <point x="398" y="211" type="curve" smooth="yes"/>
      <point x="398" y="240"/>
      <point x="387" y="267"/>
      <point x="365" y="284" type="curve" smooth="yes"/>
      <point x="342" y="303"/>
      <point x="312" y="311"/>
      <point x="256" y="311" type="curve" smooth="yes"/>
      <point x="197" y="311" type="line"/>
      <point x="197" y="244" type="line"/>
      <point x="273" y="244" type="line" smooth="yes"/>
      <point x="300" y="244"/>
      <point x="308" y="240"/>
      <point x="316" y="233" type="curve" smooth="yes"/>
      <point x="323" y="227"/>
      <point x="326" y="218"/>
      <point x="326" y="207" type="curve" smooth="yes"/>
      <point x="326" y="175"/>
      <point x="314" y="150"/>
      <point x="280" y="99" type="curve" smooth="yes"/>
      <point x="256" y="64"/>
      <point x="232" y="32"/>
    </contour>
    <contour>
      <point x="84" y="118" type="curve" smooth="yes"/>
      <point x="84" y="82"/>
      <point x="104" y="58"/>
      <point x="138" y="58" type="curve" smooth="yes"/>
      <point x="173" y="58"/>
      <point x="192" y="82"/>
      <point x="192" y="118" type="curve" smooth="yes"/>
      <point x="192" y="153"/>
      <point x="173" y="178"/>
      <point x="138" y="178" type="curve" smooth="yes"/>
      <point x="104" y="178"/>
      <point x="84" y="153"/>
    </contour>
    <contour>
      <point x="216" y="545" type="curve"/>
      <point x="161" y="585" type="line"/>
      <point x="140" y="559"/>
      <point x="124" y="540"/>
      <point x="99" y="505" type="curve" smooth="yes"/>
      <point x="49" y="434"/>
      <point x="32" y="396"/>
      <point x="32" y="344" type="curve" smooth="yes"/>
      <point x="32" y="315"/>
      <point x="43" y="288"/>
      <point x="65" y="271" type="curve" smooth="yes"/>
      <point x="88" y="252"/>
      <point x="118" y="244"/>
      <point x="174" y="244" type="curve" smooth="yes"/>
      <point x="231" y="244" type="line"/>
      <point x="231" y="311" type="line"/>
      <point x="157" y="311" type="line" smooth="yes"/>
      <point x="130" y="311"/>
      <point x="122" y="315"/>
      <point x="114" y="322" type="curve" smooth="yes"/>
      <point x="107" y="328"/>
      <point x="104" y="337"/>
      <point x="104" y="348" type="curve" smooth="yes"/>
      <point x="104" y="380"/>
      <point x="116" y="405"/>
      <point x="150" y="456" type="curve" smooth="yes"/>
      <point x="174" y="491"/>
      <point x="198" y="523"/>
    </contour>
    <contour>
      <point x="238" y="436" type="curve" smooth="yes"/>
      <point x="238" y="400"/>
      <point x="258" y="376"/>
      <point x="292" y="376" type="curve" smooth="yes"/>
      <point x="327" y="376"/>
      <point x="346" y="400"/>
      <point x="346" y="436" type="curve" smooth="yes"/>
      <point x="346" y="470"/>
      <point x="327" y="496"/>
      <point x="292" y="496" type="curve" smooth="yes"/>
      <point x="258" y="496"/>
      <point x="238" y="471"/>
    </contour>
  </outline>
</glyph>
<glyph name="uni1CF2" format="2">
  <advance width="405"/>
  <unicode hex="1CF2"/>
  <outline>
    <contour>
      <point x="207" y="289" type="curve" smooth="yes"/>
      <point x="296" y="289"/>
      <point x="353" y="344"/>
      <point x="375" y="485" type="curve"/>
      <point x="304" y="505" type="line"/>
      <point x="288" y="411"/>
      <point x="269" y="357"/>
      <point x="209" y="357" type="curve" smooth="yes"/>
      <point x="151" y="357"/>
      <point x="124" y="405"/>
      <point x="100" y="504" type="curve"/>
      <point x="33" y="485" type="line"/>
      <point x="65" y="349"/>
      <point x="130" y="289"/>
    </contour>
    <contour>
      <point x="201" y="266" type="curve" smooth="yes"/>
      <point x="112" y="266"/>
      <point x="55" y="211"/>
      <point x="33" y="70" type="curve"/>
      <point x="104" y="50" type="line"/>
      <point x="120" y="144"/>
      <point x="139" y="198"/>
      <point x="199" y="198" type="curve" smooth="yes"/>
      <point x="257" y="198"/>
      <point x="284" y="150"/>
      <point x="308" y="51" type="curve"/>
      <point x="375" y="70" type="line"/>
      <point x="343" y="206"/>
      <point x="278" y="266"/>
    </contour>
  </outline>
</glyph>
<glyph name="uni1CF3" format="2">
  <advance width="506"/>
  <unicode hex="1CF3"/>
  <outline>
    <contour>
      <point x="30" y="172" type="curve"/>
      <point x="46" y="106" type="line"/>
      <point x="187" y="126"/>
      <point x="244" y="185"/>
      <point x="244" y="274" type="curve" smooth="yes"/>
      <point x="244" y="351"/>
      <point x="184" y="416"/>
      <point x="48" y="448" type="curve"/>
      <point x="31" y="386" type="line"/>
      <point x="132" y="363"/>
      <point x="171" y="330"/>
      <point x="171" y="272" type="curve" smooth="yes"/>
      <point x="171" y="212"/>
      <point x="126" y="187"/>
    </contour>
    <contour>
      <point x="481" y="382" type="curve"/>
      <point x="465" y="448" type="line"/>
      <point x="324" y="428"/>
      <point x="267" y="369"/>
      <point x="267" y="280" type="curve" smooth="yes"/>
      <point x="267" y="203"/>
      <point x="327" y="138"/>
      <point x="463" y="106" type="curve"/>
      <point x="480" y="168" type="line"/>
      <point x="379" y="191"/>
      <point x="340" y="224"/>
      <point x="340" y="282" type="curve" smooth="yes"/>
      <point x="340" y="342"/>
      <point x="385" y="367"/>
    </contour>
  </outline>
</glyph>
<glyph name="uni1CF4" format="2">
  <unicode hex="1CF4"/>
  <outline>
    <contour>
      <point x="47" y="1139" type="curve"/>
      <point x="-20" y="1158" type="line"/>
      <point x="-35" y="1068"/>
      <point x="-53" y="1017"/>
      <point x="-110" y="1017" type="curve" smooth="yes"/>
      <point x="-165" y="1017"/>
      <point x="-191" y="1063"/>
      <point x="-214" y="1157" type="curve"/>
      <point x="-277" y="1139" type="line"/>
      <point x="-247" y="1009"/>
      <point x="-185" y="952"/>
      <point x="-112" y="952" type="curve" smooth="yes"/>
      <point x="-28" y="952"/>
      <point x="27" y="1005"/>
    </contour>
  </outline>
</glyph>
<glyph name="uni1CF5" format="2">
  <advance width="388"/>
  <unicode hex="1CF5"/>
  <outline>
    <contour>
      <point x="196" y="212" type="line"/>
      <point x="297" y="33" type="line"/>
      <point x="360" y="63" type="line"/>
      <point x="235" y="275" type="line"/>
      <point x="360" y="486" type="line"/>
      <point x="297" y="520" type="line"/>
      <point x="195" y="341" type="line"/>
      <point x="95" y="520" type="line"/>
      <point x="32" y="490" type="line"/>
      <point x="157" y="277" type="line"/>
      <point x="32" y="67" type="line"/>
      <point x="95" y="33" type="line"/>
    </contour>
  </outline>
</glyph>
<glyph name="uni1CF6" format="2">
  <advance width="421"/>
  <unicode hex="1CF6"/>
  <outline>
    <contour>
      <point x="138" y="291" type="curve" smooth="yes"/>
      <point x="200" y="291"/>
      <point x="222" y="342"/>
      <point x="240" y="463" type="curve"/>
      <point x="185" y="463" type="line"/>
      <point x="183" y="390"/>
      <point x="175" y="358"/>
      <point x="145" y="358" type="curve" smooth="yes"/>
      <point x="118" y="358"/>
      <point x="105" y="380"/>
      <point x="103" y="466" type="curve"/>
      <point x="40" y="464" type="line"/>
      <point x="43" y="334"/>
      <point x="81" y="291"/>
    </contour>
    <contour>
      <point x="289" y="291" type="curve" smooth="yes"/>
      <point x="346" y="291"/>
      <point x="385" y="333"/>
      <point x="387" y="464" type="curve"/>
      <point x="324" y="466" type="line"/>
      <point x="322" y="380"/>
      <point x="309" y="358"/>
      <point x="283" y="358" type="curve" smooth="yes"/>
      <point x="253" y="358"/>
      <point x="243" y="390"/>
      <point x="242" y="463" type="curve"/>
      <point x="188" y="463" type="line"/>
      <point x="205" y="342"/>
      <point x="227" y="291"/>
    </contour>
    <contour>
      <point x="138" y="262" type="curve" smooth="yes"/>
      <point x="81" y="262"/>
      <point x="42" y="218"/>
      <point x="40" y="89" type="curve"/>
      <point x="103" y="87" type="line"/>
      <point x="105" y="172"/>
      <point x="118" y="195"/>
      <point x="145" y="195" type="curve" smooth="yes"/>
      <point x="175" y="195"/>
      <point x="183" y="163"/>
      <point x="185" y="90" type="curve"/>
      <point x="240" y="90" type="line"/>
      <point x="222" y="210"/>
      <point x="200" y="262"/>
    </contour>
    <contour>
      <point x="289" y="262" type="curve" smooth="yes"/>
      <point x="227" y="262"/>
      <point x="205" y="210"/>
      <point x="188" y="90" type="curve"/>
      <point x="242" y="90" type="line"/>
      <point x="243" y="163"/>
      <point x="253" y="195"/>
      <point x="283" y="195" type="curve" smooth="yes"/>
      <point x="309" y="195"/>
      <point x="322" y="172"/>
      <point x="324" y="87" type="curve"/>
      <point x="387" y="89" type="line"/>
      <point x="385" y="218"/>
      <point x="346" y="262"/>
    </contour>
  </outline>
</glyph>
<glyph name="emdash.deva" format="2">
  <advance width="1000"/>
  <unicode hex="2014"/>
  <outline>
    <contour>
      <point x="35" y="341" type="line"/>
      <point x="35" y="263" type="line"/>
      <point x="965" y="263" type="line"/>
      <point x="965" y="341" type="line"/>
    </contour>
  </outline>
</glyph>
<glyph name="quoteleft.deva" format="2">
  <advance width="290"/>
  <unicode hex="2018"/>
  <outline>
    <contour>
      <point x="85" y="484" type="line"/>
      <point x="172" y="484" type="line"/>
      <point x="179" y="555"/>
      <point x="195" y="646"/>
      <point x="217" y="729" type="curve"/>
      <point x="156" y="729" type="line"/>
      <point x="124" y="657"/>
      <point x="98" y="579"/>
      <point x="79" y="495" type="curve"/>
    </contour>
  </outline>
</glyph>
<glyph name="quotedblleft.deva" format="2">
  <advance width="440"/>
  <unicode hex="201C"/>
  <outline>
    <contour>
      <point x="85" y="484" type="line"/>
      <point x="172" y="484" type="line"/>
      <point x="179" y="555"/>
      <point x="195" y="646"/>
      <point x="217" y="729" type="curve"/>
      <point x="156" y="729" type="line"/>
      <point x="124" y="657"/>
      <point x="98" y="579"/>
      <point x="79" y="495" type="curve"/>
    </contour>
    <contour>
      <point x="235" y="484" type="line"/>
      <point x="322" y="484" type="line"/>
      <point x="329" y="555"/>
      <point x="345" y="646"/>
      <point x="367" y="729" type="curve"/>
      <point x="306" y="729" type="line"/>
      <point x="274" y="657"/>
      <point x="248" y="579"/>
      <point x="229" y="495" type="curve"/>
    </contour>
  </outline>
</glyph>
<glyph name="uni20F0" format="2">
  <unicode hex="20F0"/>
  <outline>
    <contour>
      <point x="-137" y="994" type="line"/>
      <point x="-89" y="968" type="line"/>
      <point x="-42" y="1070" type="line"/>
      <point x="10" y="968" type="line"/>
      <point x="56" y="994" type="line"/>
      <point x="-11" y="1089" type="line"/>
      <point x="96" y="1097" type="line"/>
      <point x="89" y="1148" type="line"/>
      <point x="-24" y="1119" type="line"/>
      <point x="-14" y="1229" type="line"/>
      <point x="-68" y="1229" type="line"/>
      <point x="-58" y="1119" type="line"/>
      <point x="-169" y="1148" type="line"/>
      <point x="-176" y="1097" type="line"/>
      <point x="-70" y="1086" type="line"/>
    </contour>
  </outline>
</glyph>
<glyph name="minus.deva" format="2">
  <advance width="411"/>
  <unicode hex="2212"/>
  <outline>
    <contour>
      <point x="35" y="357" type="line"/>
      <point x="35" y="288" type="line"/>
      <point x="376" y="288" type="line"/>
      <point x="376" y="357" type="line"/>
    </contour>
  </outline>
</glyph>
<glyph name="uniA831" format="2">
  <advance width="358"/>
  <unicode hex="A831"/>
  <outline>
    <contour>
      <point x="215" y="622" type="line"/>
      <point x="215" y="0" type="line"/>
      <point x="290" y="0" type="line"/>
      <point x="290" y="622" type="line"/>
    </contour>
    <contour>
      <point x="69" y="622" type="line"/>
      <point x="69" y="0" type="line"/>
      <point x="144" y="0" type="line"/>
      <point x="144" y="622" type="line"/>
    </contour>
  </outline>
</glyph>
<glyph name="uniA833" format="2">
  <advance width="463"/>
  <unicode hex="A833"/>
  <outline>
    <contour>
      <point x="407" y="621" type="line"/>
      <point x="33" y="490" type="line"/>
      <point x="57" y="416" type="line"/>
      <point x="431" y="547" type="line"/>
    </contour>
  </outline>
</glyph>
<glyph name="uniA834" format="2">
  <advance width="463"/>
  <unicode hex="A834"/>
  <outline>
    <contour>
      <point x="407" y="423" type="line"/>
      <point x="33" y="292" type="line"/>
      <point x="57" y="218" type="line"/>
      <point x="431" y="349" type="line"/>
    </contour>
    <contour>
      <point x="407" y="621" type="line"/>
      <point x="33" y="490" type="line"/>
      <point x="57" y="416" type="line"/>
      <point x="431" y="547" type="line"/>
    </contour>
  </outline>
</glyph>
<glyph name="uniA835" format="2">
  <advance width="463"/>
  <unicode hex="A835"/>
  <outline>
    <contour>
      <point x="407" y="423" type="line"/>
      <point x="33" y="292" type="line"/>
      <point x="57" y="218" type="line"/>
      <point x="431" y="349" type="line"/>
    </contour>
    <contour>
      <point x="407" y="621" type="line"/>
      <point x="33" y="490" type="line"/>
      <point x="57" y="416" type="line"/>
      <point x="431" y="547" type="line"/>
    </contour>
    <contour>
      <point x="407" y="225" type="line"/>
      <point x="33" y="94" type="line"/>
      <point x="57" y="20" type="line"/>
      <point x="431" y="151" type="line"/>
    </contour>
  </outline>
</glyph>
<glyph name="uniA8E0" format="2">
  <unicode hex="A8E0"/>
  <outline>
    <contour>
      <point x="-203" y="1095" type="curve" smooth="yes"/>
      <point x="-203" y="1034"/>
      <point x="-166" y="996"/>
      <point x="-112" y="996" type="curve" smooth="yes"/>
      <point x="-58" y="996"/>
      <point x="-21" y="1034"/>
      <point x="-21" y="1095" type="curve" smooth="yes"/>
      <point x="-21" y="1154"/>
      <point x="-56" y="1194"/>
      <point x="-113" y="1194" type="curve" smooth="yes"/>
      <point x="-166" y="1194"/>
      <point x="-203" y="1156"/>
    </contour>
    <contour>
      <point x="-158" y="1094" type="curve" smooth="yes"/>
      <point x="-158" y="1130"/>
      <point x="-138" y="1150"/>
      <point x="-112" y="1150" type="curve" smooth="yes"/>
      <point x="-84" y="1150"/>
      <point x="-66" y="1131"/>
      <point x="-66" y="1096" type="curve" smooth="yes"/>
      <point x="-66" y="1061"/>
      <point x="-86" y="1040"/>
      <point x="-113" y="1040" type="curve" smooth="yes"/>
      <point x="-141" y="1040"/>
      <point x="-158" y="1060"/>
    </contour>
  </outline>
</glyph>
